<svg width="56" height="56" viewBox="0 0 56 56" fill="none" xmlns="http://www.w3.org/2000/svg">
<circle cx="28" cy="28" r="27.5" stroke="#F06A6A"/>
<g clip-path="url(#clip0_7569_9085)">
<svg width="56" height="56" viewBox="0 0 56 56" fill="none" xmlns="http://www.w3.org/2000/svg">
<circle cx="28" cy="28" r="27.5" stroke="#F06A6A"/>
<path d="M25.6848 27.9457C25.8064 27.9457 25.9254 27.9098 26.0265 27.8423C26.1277 27.7748 26.2066 27.6788 26.2533 27.5665C26.3 27.4541 26.3123 27.3305 26.2887 27.2112C26.2651 27.0919 26.2067 26.9822 26.1208 26.8961L24.7928 25.5625C24.7543 25.5239 24.7328 25.4717 24.7328 25.4173C24.7328 25.3628 24.7543 25.3106 24.7928 25.2721L26.1208 23.9393C26.236 23.8236 26.3006 23.667 26.3003 23.5037C26.3 23.3405 26.2348 23.1841 26.1192 23.0689C26.0036 22.9537 25.8469 22.8891 25.6837 22.8894C25.5204 22.8897 25.364 22.9548 25.2488 23.0705L23.92 24.4001C23.6525 24.6698 23.5024 25.0342 23.5024 25.4141C23.5024 25.7939 23.6525 26.1584 23.92 26.4281L25.2488 27.7617C25.3056 27.8197 25.3735 27.8659 25.4483 27.8975C25.5232 27.929 25.6035 27.9454 25.6848 27.9457Z" fill="#F06A6A"/>
<path d="M31.2096 25.2721C31.2481 25.3106 31.2697 25.3628 31.2697 25.4173C31.2697 25.4717 31.2481 25.5239 31.2096 25.5625L29.8816 26.8961C29.7664 27.0117 29.7018 27.1684 29.7021 27.3316C29.7024 27.4948 29.7676 27.6513 29.8832 27.7665C29.9988 27.8817 30.1555 27.9462 30.3187 27.9459C30.482 27.9456 30.6384 27.8805 30.7536 27.7649L32.08 26.4313C32.3475 26.1616 32.4976 25.7971 32.4976 25.4173C32.4976 25.0374 32.3475 24.673 32.08 24.4033L30.7536 23.0705C30.6384 22.9548 30.482 22.8897 30.3187 22.8894C30.1555 22.8891 29.9988 22.9537 29.8832 23.0689C29.7676 23.1841 29.7024 23.3405 29.7021 23.5037C29.7018 23.667 29.7664 23.8236 29.8816 23.9393L31.2096 25.2721Z" fill="#F06A6A"/>
<path d="M27.1456 28.8393C27.1945 28.8513 27.2448 28.8574 27.2952 28.8577C27.4324 28.8575 27.5656 28.8115 27.6737 28.727C27.7818 28.6425 27.8587 28.5244 27.892 28.3913L29.304 22.7425C29.3267 22.663 29.3333 22.5798 29.3232 22.4978C29.3132 22.4158 29.2867 22.3366 29.2454 22.265C29.2041 22.1934 29.1489 22.1309 29.0829 22.0811C29.0169 22.0313 28.9416 21.9953 28.8615 21.9753C28.7813 21.9552 28.6979 21.9514 28.6163 21.9642C28.5347 21.977 28.4564 22.0061 28.3863 22.0498C28.3161 22.0935 28.2555 22.1508 28.2079 22.2184C28.1604 22.286 28.127 22.3625 28.1096 22.4433L26.6976 28.0921C26.6778 28.1705 26.6737 28.2521 26.6856 28.3322C26.6974 28.4123 26.7249 28.4892 26.7665 28.5586C26.8081 28.628 26.863 28.6885 26.9281 28.7367C26.9931 28.7849 27.067 28.8197 27.1456 28.8393Z" fill="#00B26A"/>
<path d="M21.9792 33.2688C20.9453 33.2699 19.9542 33.681 19.2232 34.412C18.4922 35.143 18.081 36.1342 18.08 37.168V38.364C18.08 38.5531 18.1172 38.7404 18.1896 38.9151C18.2619 39.0898 18.368 39.2485 18.5017 39.3822C18.6354 39.516 18.7942 39.622 18.9689 39.6944C19.1436 39.7668 19.3309 39.804 19.52 39.804H36.48C36.6691 39.804 36.8563 39.7668 37.031 39.6944C37.2057 39.622 37.3645 39.516 37.4982 39.3822C37.6319 39.2485 37.738 39.0898 37.8103 38.9151C37.8827 38.7404 37.92 38.5531 37.92 38.364V37.168C37.9189 36.1342 37.5077 35.143 36.7767 34.412C36.0457 33.681 35.0546 33.2699 34.0208 33.2688H31.8992V31.7792H32.9264C33.5252 31.7786 34.0993 31.5403 34.5226 31.1167C34.9459 30.6931 35.1837 30.1188 35.184 29.52V28.7368C35.92 28.5468 36.5721 28.1176 37.0377 27.5166C37.5032 26.9157 37.7559 26.177 37.7559 25.4168C37.7559 24.6566 37.5032 23.918 37.0377 23.317C36.5721 22.716 35.92 22.2868 35.184 22.0968V21.3128C35.1833 20.7143 34.9453 20.1404 34.522 19.7171C34.0988 19.2939 33.5249 19.0558 32.9264 19.0552H28.616V18.18C28.8069 18.0486 28.9508 17.8595 29.0266 17.6405C29.1024 17.4215 29.1062 17.1839 29.0374 16.9626C28.9686 16.7413 28.8308 16.5477 28.6441 16.4103C28.4575 16.2729 28.2317 16.1987 28 16.1987C27.7682 16.1987 27.5425 16.2729 27.3558 16.4103C27.1692 16.5477 27.0314 16.7413 26.9625 16.9626C26.8937 17.1839 26.8975 17.4215 26.9733 17.6405C27.0491 17.8595 27.193 18.0486 27.384 18.18V19.0552H23.0752C22.4766 19.0558 21.9027 19.2939 21.4795 19.7171C21.0562 20.1404 20.8182 20.7143 20.8176 21.3128V22.0936C20.0793 22.2819 19.4249 22.7107 18.9574 23.3124C18.49 23.914 18.2363 24.6542 18.2363 25.416C18.2363 26.1779 18.49 26.918 18.9574 27.5197C19.4249 28.1213 20.0793 28.5501 20.8176 28.7384V29.52C20.8182 30.1186 21.0562 30.6924 21.4795 31.1157C21.9027 31.5389 22.4766 31.777 23.0752 31.7776H24.1008V33.2672L21.9792 33.2688ZM35.184 23.3928C35.5833 23.5593 35.9245 23.8403 36.1644 24.2003C36.4044 24.5603 36.5324 24.9833 36.5324 25.416C36.5324 25.8487 36.4044 26.2717 36.1644 26.6317C35.9245 26.9917 35.5833 27.2727 35.184 27.4392V23.3928ZM20.8176 27.44C20.4177 27.2739 20.0759 26.9931 19.8355 26.6329C19.5951 26.2727 19.4668 25.8494 19.4668 25.4164C19.4668 24.9834 19.5951 24.5601 19.8355 24.1999C20.0759 23.8398 20.4177 23.5589 20.8176 23.3928V27.44ZM23.0752 30.548C22.9403 30.5479 22.8067 30.5212 22.6821 30.4695C22.5575 30.4178 22.4444 30.342 22.3491 30.2466C22.2537 30.1511 22.1782 30.0378 22.1266 29.9132C22.0751 29.7885 22.0487 29.6549 22.0488 29.52V21.3128C22.049 21.0407 22.1572 20.7797 22.3496 20.5873C22.5421 20.3948 22.803 20.2866 23.0752 20.2864H32.9264C33.1985 20.2866 33.4595 20.3948 33.6519 20.5873C33.8443 20.7797 33.9525 21.0407 33.9528 21.3128V29.52C33.9525 29.7922 33.8443 30.0531 33.6519 30.2455C33.4595 30.438 33.1985 30.5462 32.9264 30.5464H23.0752V30.548ZM30.668 31.7792V33.2688H25.332V31.7792H30.668ZM24.716 34.4992H34.0208C34.7281 34.5001 35.4062 34.7814 35.9064 35.2816C36.4065 35.7817 36.6879 36.4599 36.6888 37.1672V38.3632C36.6885 38.4177 36.6668 38.4698 36.6283 38.5084C36.5898 38.5469 36.5376 38.5686 36.4832 38.5688H34.3272V37.0168C34.3272 36.8534 34.2623 36.6968 34.1467 36.5812C34.0312 36.4657 33.8745 36.4008 33.7112 36.4008C33.5478 36.4008 33.3911 36.4657 33.2756 36.5812C33.1601 36.6968 33.0952 36.8534 33.0952 37.0168V38.5696H22.9048V37.0168C22.9048 36.8534 22.8399 36.6968 22.7243 36.5812C22.6088 36.4657 22.4521 36.4008 22.2888 36.4008C22.1254 36.4008 21.9687 36.4657 21.8532 36.5812C21.7377 36.6968 21.6728 36.8534 21.6728 37.0168V38.5696H19.52C19.4655 38.5694 19.4133 38.5477 19.3748 38.5092C19.3363 38.4706 19.3146 38.4185 19.3144 38.364V37.168C19.3152 36.4607 19.5966 35.7825 20.0967 35.2824C20.5969 34.7822 21.275 34.5009 21.9824 34.5L24.716 34.4992Z" fill="#F06A6A"/>
</svg>
</g>
<defs>
<clipPath id="clip0_7569_9085">
<rect width="24" height="24" fill="white" transform="translate(16 16)"/>
</clipPath>
</defs>
</svg>
