<svg width="56" height="56" viewBox="0 0 56 56" fill="none" xmlns="http://www.w3.org/2000/svg">
<g clip-path="url(#clip0_13018_5068)">
<path d="M28 55.5C43.1878 55.5 55.5 43.1878 55.5 28C55.5 12.8122 43.1878 0.5 28 0.5C12.8122 0.5 0.5 12.8122 0.5 28C0.5 43.1878 12.8122 55.5 28 55.5Z" stroke="#FFBB00"/>
<mask id="mask0_13018_5068" style="mask-type:luminance" maskUnits="userSpaceOnUse" x="16" y="16" width="24" height="24">
<path d="M39.5 16.5V39.5H16.5V16.5H39.5Z" fill="white" stroke="white"/>
</mask>
<g mask="url(#mask0_13018_5068)">
<g clip-path="url(#clip1_13018_5068)">
<path d="M28 55.5C43.1878 55.5 55.5 43.1878 55.5 28C55.5 12.8122 43.1878 0.5 28 0.5C12.8122 0.5 0.5 12.8122 0.5 28C0.5 43.1878 12.8122 55.5 28 55.5Z" stroke="#FFBB00"/>
<path d="M25.6844 27.945C25.806 27.945 25.925 27.9091 26.0261 27.8416C26.1273 27.7741 26.2062 27.6781 26.2529 27.5658C26.2996 27.4534 26.3119 27.3298 26.2883 27.2105C26.2647 27.0912 26.2063 26.9815 26.1204 26.8954L24.7924 25.5618C24.7539 25.5232 24.7324 25.471 24.7324 25.4166C24.7324 25.3621 24.7539 25.3099 24.7924 25.2714L26.1204 23.9386C26.2356 23.8229 26.3002 23.6663 26.2999 23.503C26.2996 23.3398 26.2344 23.1834 26.1188 23.0682C26.0032 22.953 25.8465 22.8884 25.6833 22.8887C25.52 22.889 25.3636 22.9541 25.2484 23.0698L23.9196 24.3994C23.6521 24.6691 23.502 25.0335 23.502 25.4134C23.502 25.7932 23.6521 26.1577 23.9196 26.4274L25.2484 27.761C25.3052 27.819 25.3731 27.8652 25.4479 27.8968C25.5228 27.9283 25.6031 27.9447 25.6844 27.945Z" fill="#FFBB00"/>
<path d="M31.2087 25.2714C31.2472 25.3099 31.2688 25.3621 31.2688 25.4166C31.2688 25.471 31.2472 25.5232 31.2087 25.5618L29.8807 26.8954C29.7655 27.011 29.7009 27.1677 29.7012 27.3309C29.7015 27.4941 29.7667 27.6506 29.8823 27.7658C29.9979 27.881 30.1546 27.9455 30.3178 27.9452C30.4811 27.9449 30.6375 27.8798 30.7527 27.7642L32.0791 26.4306C32.3466 26.1609 32.4967 25.7964 32.4967 25.4166C32.4967 25.0367 32.3466 24.6723 32.0791 24.4026L30.7527 23.0698C30.6375 22.9541 30.4811 22.889 30.3178 22.8887C30.1546 22.8884 29.9979 22.953 29.8823 23.0682C29.7667 23.1834 29.7015 23.3398 29.7012 23.503C29.7009 23.6663 29.7655 23.8229 29.8807 23.9386L31.2087 25.2714Z" fill="#FFBB00"/>
<path d="M27.1463 28.8396C27.1952 28.8516 27.2455 28.8577 27.2959 28.858C27.4331 28.8578 27.5663 28.8118 27.6744 28.7273C27.7825 28.6428 27.8594 28.5247 27.8927 28.3916L29.3047 22.7428C29.3274 22.6633 29.334 22.5801 29.3239 22.4981C29.3139 22.4161 29.2874 22.3369 29.2461 22.2653C29.2048 22.1937 29.1496 22.1312 29.0836 22.0814C29.0176 22.0316 28.9423 21.9956 28.8622 21.9756C28.782 21.9555 28.6986 21.9517 28.617 21.9645C28.5354 21.9773 28.4571 22.0064 28.387 22.0501C28.3168 22.0938 28.2562 22.1511 28.2086 22.2187C28.1611 22.2863 28.1277 22.3628 28.1103 22.4436L26.6983 28.0924C26.6785 28.1708 26.6744 28.2524 26.6863 28.3325C26.6981 28.4126 26.7256 28.4895 26.7672 28.5589C26.8088 28.6283 26.8637 28.6888 26.9288 28.737C26.9938 28.7852 27.0677 28.82 27.1463 28.8396Z" fill="#FFBB00"/>
<path d="M21.9793 33.2693C20.9454 33.2704 19.9543 33.6815 19.2233 34.4125C18.4923 35.1435 18.0811 36.1347 18.0801 37.1685V38.3645C18.0801 38.5536 18.1173 38.7409 18.1897 38.9156C18.262 39.0903 18.3681 39.249 18.5018 39.3827C18.6355 39.5165 18.7943 39.6225 18.969 39.6949C19.1437 39.7673 19.331 39.8045 19.5201 39.8045H36.4801C36.6692 39.8045 36.8564 39.7673 37.0311 39.6949C37.2058 39.6225 37.3646 39.5165 37.4983 39.3827C37.632 39.249 37.7381 39.0903 37.8104 38.9156C37.8828 38.7409 37.9201 38.5536 37.9201 38.3645V37.1685C37.919 36.1347 37.5078 35.1435 36.7768 34.4125C36.0458 33.6815 35.0547 33.2704 34.0209 33.2693H31.8993V31.7797H32.9265C33.5253 31.7791 34.0994 31.5408 34.5227 31.1172C34.946 30.6936 35.1838 30.1193 35.1841 29.5205V28.7373C35.9201 28.5473 36.5722 28.1181 37.0378 27.5171C37.5033 26.9162 37.756 26.1775 37.756 25.4173C37.756 24.6571 37.5033 23.9185 37.0378 23.3175C36.5722 22.7165 35.9201 22.2873 35.1841 22.0973V21.3133C35.1834 20.7148 34.9454 20.1409 34.5221 19.7176C34.0989 19.2944 33.525 19.0563 32.9265 19.0557H28.6161V18.1805C28.807 18.0491 28.9509 17.86 29.0267 17.641C29.1025 17.422 29.1063 17.1844 29.0375 16.9631C28.9687 16.7418 28.8309 16.5482 28.6442 16.4108C28.4576 16.2734 28.2318 16.1992 28.0001 16.1992C27.7683 16.1992 27.5426 16.2734 27.3559 16.4108C27.1693 16.5482 27.0315 16.7418 26.9626 16.9631C26.8938 17.1844 26.8976 17.422 26.9734 17.641C27.0492 17.86 27.1931 18.0491 27.3841 18.1805V19.0557H23.0753C22.4767 19.0563 21.9028 19.2944 21.4796 19.7176C21.0563 20.1409 20.8183 20.7148 20.8177 21.3133V22.0941C20.0794 22.2824 19.425 22.7112 18.9575 23.3129C18.4901 23.9145 18.2364 24.6547 18.2364 25.4165C18.2364 26.1784 18.4901 26.9185 18.9575 27.5202C19.425 28.1218 20.0794 28.5506 20.8177 28.7389V29.5205C20.8183 30.1191 21.0563 30.6929 21.4796 31.1162C21.9028 31.5394 22.4767 31.7775 23.0753 31.7781H24.1009V33.2677L21.9793 33.2693ZM35.1841 23.3933C35.5834 23.5598 35.9246 23.8408 36.1645 24.2008C36.4045 24.5608 36.5325 24.9838 36.5325 25.4165C36.5325 25.8492 36.4045 26.2722 36.1645 26.6322C35.9246 26.9922 35.5834 27.2732 35.1841 27.4397V23.3933ZM20.8177 27.4405C20.4178 27.2744 20.076 26.9936 19.8356 26.6334C19.5952 26.2732 19.4669 25.8499 19.4669 25.4169C19.4669 24.9839 19.5952 24.5606 19.8356 24.2004C20.076 23.8403 20.4178 23.5594 20.8177 23.3933V27.4405ZM23.0753 30.5485C22.9404 30.5484 22.8068 30.5217 22.6822 30.47C22.5576 30.4183 22.4445 30.3425 22.3492 30.2471C22.2538 30.1516 22.1783 30.0383 22.1267 29.9137C22.0752 29.789 22.0488 29.6554 22.0489 29.5205V21.3133C22.0491 21.0412 22.1573 20.7802 22.3497 20.5878C22.5422 20.3953 22.8031 20.2871 23.0753 20.2869H32.9265C33.1986 20.2871 33.4596 20.3953 33.652 20.5878C33.8444 20.7802 33.9526 21.0412 33.9529 21.3133V29.5205C33.9526 29.7927 33.8444 30.0536 33.652 30.246C33.4596 30.4385 33.1986 30.5467 32.9265 30.5469H23.0753V30.5485ZM30.6681 31.7797V33.2693H25.3321V31.7797H30.6681ZM24.7161 34.4997H34.0209C34.7282 34.5006 35.4063 34.7819 35.9065 35.2821C36.4066 35.7822 36.688 36.4604 36.6889 37.1677V38.3637C36.6886 38.4182 36.6669 38.4703 36.6284 38.5089C36.5899 38.5474 36.5377 38.5691 36.4833 38.5693H34.3273V37.0173C34.3273 36.8539 34.2624 36.6973 34.1468 36.5817C34.0313 36.4662 33.8746 36.4013 33.7113 36.4013C33.5479 36.4013 33.3912 36.4662 33.2757 36.5817C33.1602 36.6973 33.0953 36.8539 33.0953 37.0173V38.5701H22.9049V37.0173C22.9049 36.8539 22.84 36.6973 22.7244 36.5817C22.6089 36.4662 22.4522 36.4013 22.2889 36.4013C22.1255 36.4013 21.9688 36.4662 21.8533 36.5817C21.7378 36.6973 21.6729 36.8539 21.6729 37.0173V38.5701H19.5201C19.4656 38.5699 19.4134 38.5482 19.3749 38.5097C19.3364 38.4711 19.3147 38.419 19.3145 38.3645V37.1685C19.3153 36.4612 19.5967 35.783 20.0968 35.2829C20.597 34.7827 21.2751 34.5014 21.9825 34.5005L24.7161 34.4997Z" fill="#FFBB00"/>
</g>
<rect x="0.5" y="0.5" width="55" height="55" stroke="#FFBB00"/>
</g>
</g>
<defs>
<clipPath id="clip0_13018_5068">
<rect width="56" height="56" fill="white"/>
</clipPath>
<clipPath id="clip1_13018_5068">
<rect width="56" height="56" fill="white"/>
</clipPath>
</defs>
</svg>
