<svg viewBox="0 0 64 64" xmlns="http://www.w3.org/2000/svg">
  <rect x="6" y="6" width="52" height="52" rx="4" fill="none" stroke="#F06A6A" stroke-width="2"/>
  <!-- Central node -->
  <circle cx="32" cy="32" r="4" fill="#F06A6A"/>
  <!-- Connections and peripheral nodes -->
  <line x1="32" y1="32" x2="32" y2="14" stroke="#F06A6A" stroke-width="2" stroke-linecap="round"/>
  <circle cx="32" cy="14" r="2" fill="#F06A6A"/>
  
  <line x1="32" y1="32" x2="46" y2="18" stroke="#F06A6A" stroke-width="2" stroke-linecap="round"/>
  <circle cx="46" cy="18" r="2" fill="#F06A6A"/>
  
  <line x1="32" y1="32" x2="50" y2="32" stroke="#F06A6A" stroke-width="2" stroke-linecap="round"/>
  <circle cx="50" cy="32" r="2" fill="#F06A6A"/>
  
  <line x1="32" y1="32" x2="46" y2="46" stroke="#F06A6A" stroke-width="2" stroke-linecap="round"/>
  <circle cx="46" cy="46" r="2" fill="#F06A6A"/>
  
  <line x1="32" y1="32" x2="32" y2="50" stroke="#F06A6A" stroke-width="2" stroke-linecap="round"/>
  <circle cx="32" cy="50" r="2" fill="#F06A6A"/>
  
  <line x1="32" y1="32" x2="18" y2="46" stroke="#F06A6A" stroke-width="2" stroke-linecap="round"/>
  <circle cx="18" cy="46" r="2" fill="#F06A6A"/>
  
  <line x1="32" y1="32" x2="14" y2="32" stroke="#F06A6A" stroke-width="2" stroke-linecap="round"/>
  <circle cx="14" cy="32" r="2" fill="#F06A6A"/>
  
  <line x1="32" y1="32" x2="18" y2="18" stroke="#F06A6A" stroke-width="2" stroke-linecap="round"/>
  <circle cx="18" cy="18" r="2" fill="#F06A6A"/>
</svg>