<svg width="64" height="64" viewBox="0 0 64 64" fill="none" xmlns="http://www.w3.org/2000/svg">
<path d="M22 20H34V22H22V20ZM36 20H38V22H36V20ZM40 20H42V22H40V20ZM22 28H34V30H22V28ZM36 28H38V30H36V28ZM40 28H42V30H40V28ZM22 36H34V38H22V36ZM36 36H38V38H36V36ZM40 36H42V38H40V36Z" fill="#F06A6A"/>
<path d="M58 43C57.1135 43.0011 56.2523 43.2962 55.5514 43.8391C54.8505 44.3819 54.3494 45.1419 54.1266 46H43V42C43.7954 41.9991 44.5579 41.6827 45.1203 41.1203C45.6827 40.5579 45.9991 39.7953 46 39V36H52C53.3815 35.999 54.7479 35.7117 56.0129 35.1563C57.2779 34.6009 58.414 33.7894 59.3498 32.773C60.2855 31.7566 61.0005 30.5574 61.4496 29.2509C61.8987 27.9443 62.0722 26.559 61.9592 25.182C61.8462 23.8051 61.4491 22.4666 60.793 21.2508C60.1369 20.035 59.236 18.9683 58.147 18.1181C57.0581 17.2678 55.8048 16.6525 54.4662 16.3107C53.1276 15.969 51.7327 15.9084 50.3695 16.1326C49.3913 12.4423 47.3242 9.13223 44.4377 6.6336C41.5512 4.13497 37.979 2.56366 34.1866 2.1244C30.3943 1.68513 26.5575 2.39828 23.1762 4.17093C19.795 5.94357 17.026 8.69352 15.2301 12.0625C14.8214 12.0209 14.4108 12 14 12C10.8174 12 7.76515 13.2643 5.51472 15.5147C3.26428 17.7651 2 20.8174 2 24C2 27.1826 3.26428 30.2348 5.51472 32.4853C7.76515 34.7357 10.8174 36 14 36H18V39C18.0009 39.7953 18.3173 40.5579 18.8797 41.1203C19.4421 41.6827 20.2046 41.9991 21 42V46H9.87337C9.62998 45.0573 9.05115 44.2358 8.24537 43.6894C7.43959 43.143 6.46219 42.9092 5.49637 43.0319C4.53056 43.1545 3.64264 43.6252 2.99905 44.3558C2.35546 45.0863 2.00039 46.0264 2.00039 47C2.00039 47.9736 2.35546 48.9137 2.99905 49.6442C3.64264 50.3747 4.53056 50.8454 5.49637 50.9681C6.46219 51.0908 7.43959 50.857 8.24537 50.3106C9.05115 49.7642 9.62998 48.9426 9.87337 48H22C22.2652 48 22.5196 47.8946 22.7071 47.7071C22.8946 47.5196 23 47.2652 23 47V42H25V50H17C16.7348 50 16.4804 50.1053 16.2929 50.2929C16.1054 50.4804 16 50.7348 16 51V54.1266C15.0573 54.37 14.2358 54.9488 13.6894 55.7546C13.143 56.5604 12.9092 57.5378 13.0319 58.5036C13.1546 59.4694 13.6253 60.3573 14.3558 61.0009C15.0863 61.6445 16.0264 61.9996 17 61.9996C17.9736 61.9996 18.9137 61.6445 19.6442 61.0009C20.3747 60.3573 20.8454 59.4694 20.9681 58.5036C21.0908 57.5378 20.857 56.5604 20.3106 55.7546C19.7642 54.9488 18.9427 54.37 18 54.1266V52H26C26.2652 52 26.5196 51.8946 26.7071 51.7071C26.8946 51.5196 27 51.2652 27 51V42H31V52.1266C30.0573 52.37 29.2358 52.9488 28.6894 53.7546C28.143 54.5604 27.9092 55.5378 28.0319 56.5036C28.1546 57.4694 28.6253 58.3573 29.3558 59.0009C30.0863 59.6445 31.0264 59.9996 32 59.9996C32.9736 59.9996 33.9137 59.6445 34.6442 59.0009C35.3747 58.3573 35.8454 57.4694 35.9681 56.5036C36.0908 55.5378 35.857 54.5604 35.3106 53.7546C34.7642 52.9488 33.9427 52.37 33 52.1266V42H37V51C37 51.2652 37.1054 51.5196 37.2929 51.7071C37.4804 51.8946 37.7348 52 38 52H46V54.1266C45.0573 54.37 44.2358 54.9488 43.6894 55.7546C43.143 56.5604 42.9092 57.5378 43.0319 58.5036C43.1546 59.4694 43.6253 60.3573 44.3558 61.0009C45.0863 61.6445 46.0264 61.9996 47 61.9996C47.9736 61.9996 48.9137 61.6445 49.6442 61.0009C50.3747 60.3573 50.8454 59.4694 50.9681 58.5036C51.0908 57.5378 50.857 56.5604 50.3106 55.7546C49.7642 54.9488 48.9427 54.37 48 54.1266V51C48 50.7348 47.8946 50.4804 47.7071 50.2929C47.5196 50.1053 47.2652 50 47 50H39V42H41V47C41 47.2652 41.1054 47.5196 41.2929 47.7071C41.4804 47.8946 41.7348 48 42 48H54.1266C54.3137 48.7243 54.7001 49.3817 55.242 49.8975C55.7839 50.4132 56.4596 50.7667 57.1923 50.9177C57.9251 51.0687 58.6854 51.0111 59.3871 50.7516C60.0888 50.4921 60.7036 50.041 61.1618 49.4496C61.6199 48.8582 61.903 48.1502 61.979 47.4059C62.0549 46.6617 61.9206 45.911 61.5913 45.2393C61.2619 44.5675 60.7509 44.0016 60.116 43.6058C59.4812 43.2099 58.7481 43.0001 58 43ZM6 49C5.60444 49 5.21776 48.8827 4.88886 48.6629C4.55996 48.4432 4.30362 48.1308 4.15224 47.7654C4.00087 47.3999 3.96126 46.9978 4.03843 46.6098C4.1156 46.2218 4.30608 45.8655 4.58579 45.5858C4.86549 45.3061 5.22186 45.1156 5.60982 45.0384C5.99778 44.9612 6.39991 45.0009 6.76537 45.1522C7.13082 45.3036 7.44318 45.5599 7.66294 45.8888C7.8827 46.2177 8 46.6044 8 47C7.99937 47.5302 7.78846 48.0386 7.41352 48.4135C7.03858 48.7884 6.53024 48.9994 6 49ZM19 58C19 58.3955 18.8827 58.7822 18.6629 59.1111C18.4432 59.44 18.1308 59.6964 17.7654 59.8477C17.3999 59.9991 16.9978 60.0387 16.6098 59.9616C16.2219 59.8844 15.8655 59.6939 15.5858 59.4142C15.3061 59.1345 15.1156 58.7781 15.0384 58.3902C14.9613 58.0022 15.0009 57.6001 15.1522 57.2346C15.3036 56.8692 15.56 56.5568 15.8889 56.337C16.2178 56.1173 16.6044 56 17 56C17.5302 56.0006 18.0386 56.2115 18.4135 56.5865C18.7885 56.9614 18.9994 57.4697 19 58ZM34 56C34 56.3955 33.8827 56.7822 33.6629 57.1111C33.4432 57.44 33.1308 57.6964 32.7654 57.8477C32.3999 57.9991 31.9978 58.0387 31.6098 57.9616C31.2219 57.8844 30.8655 57.6939 30.5858 57.4142C30.3061 57.1345 30.1156 56.7781 30.0384 56.3902C29.9613 56.0022 30.0009 55.6001 30.1522 55.2346C30.3036 54.8692 30.56 54.5568 30.8889 54.337C31.2178 54.1173 31.6044 54 32 54C32.5302 54.0006 33.0386 54.2115 33.4135 54.5865C33.7885 54.9614 33.9994 55.4697 34 56ZM49 58C49 58.3955 48.8827 58.7822 48.6629 59.1111C48.4432 59.44 48.1308 59.6964 47.7654 59.8477C47.3999 59.9991 46.9978 60.0387 46.6098 59.9616C46.2219 59.8844 45.8655 59.6939 45.5858 59.4142C45.3061 59.1345 45.1156 58.7781 45.0384 58.3902C44.9613 58.0022 45.0009 57.6001 45.1522 57.2346C45.3036 56.8692 45.56 56.5568 45.8889 56.337C46.2178 56.1173 46.6044 56 47 56C47.5302 56.0006 48.0386 56.2115 48.4135 56.5865C48.7885 56.9614 48.9994 57.4697 49 58ZM20 23V19C20.0003 18.7349 20.1058 18.4807 20.2932 18.2932C20.4807 18.1057 20.7349 18.0003 21 18H43C43.2651 18.0003 43.5193 18.1057 43.7068 18.2932C43.8943 18.4807 43.9997 18.7349 44 19V23C43.9997 23.2651 43.8943 23.5193 43.7068 23.7068C43.5193 23.8942 43.2651 23.9997 43 24H21C20.7349 23.9997 20.4807 23.8942 20.2932 23.7068C20.1058 23.5193 20.0003 23.2651 20 23ZM20 31V27C20.0003 26.7349 20.1058 26.4807 20.2932 26.2932C20.4807 26.1057 20.7349 26.0003 21 26H43C43.2651 26.0003 43.5193 26.1057 43.7068 26.2932C43.8943 26.4807 43.9997 26.7349 44 27V31C43.9997 31.2651 43.8943 31.5193 43.7068 31.7068C43.5193 31.8942 43.2651 31.9997 43 32H21C20.7349 31.9997 20.4807 31.8942 20.2932 31.7068C20.1058 31.5193 20.0003 31.2651 20 31ZM4 24C4.00301 21.3487 5.05755 18.807 6.93226 16.9322C8.80697 15.0575 11.3488 14.003 14 14C14.5485 13.9999 15.0962 14.0443 15.6375 14.133C15.8502 14.1682 16.0687 14.1337 16.2602 14.0346C16.4517 13.9354 16.606 13.777 16.7 13.583C18.2485 10.3906 20.7568 7.76261 23.8736 6.06707C26.9903 4.37152 30.5594 3.69338 34.0808 4.12763C37.6022 4.56189 40.8996 6.08679 43.511 8.48873C46.1225 10.8907 47.9172 14.0493 48.6437 17.5222C48.6716 17.6561 48.7265 17.7828 48.8053 17.8946C48.884 18.0064 48.9848 18.1009 49.1015 18.1721C49.2181 18.2434 49.3482 18.29 49.4836 18.3091C49.619 18.3281 49.7568 18.3192 49.8886 18.2829C50.9886 17.9823 52.1401 17.9204 53.266 18.1012C54.3919 18.2821 55.4661 18.7016 56.4166 19.3315C57.3671 19.9614 58.1719 20.7873 58.7772 21.7537C59.3825 22.7201 59.7741 23.8047 59.9259 24.9349C60.0778 26.065 59.9862 27.2146 59.6575 28.3064C59.3287 29.3983 58.7703 30.4073 58.0198 31.2658C57.2692 32.1242 56.3438 32.8123 55.3056 33.2838C54.2673 33.7554 53.1403 33.9996 52 34H45.828C45.697 33.6311 45.4951 33.2914 45.2336 33C45.7275 32.451 46.0005 31.7385 46 31V27C46.0005 26.2615 45.7275 25.549 45.2336 25C45.7275 24.451 46.0005 23.7385 46 23V19C45.9991 18.2046 45.6827 17.4421 45.1203 16.8797C44.5579 16.3173 43.7954 16.0009 43 16H21C20.2046 16.0009 19.4421 16.3173 18.8797 16.8797C18.3173 17.4421 18.0009 18.2046 18 19V23C17.9995 23.7385 18.2725 24.451 18.7664 25C18.2725 25.549 17.9995 26.2615 18 27V31C17.9995 31.7385 18.2725 32.451 18.7664 33C18.5049 33.2914 18.303 33.6311 18.172 34H14C11.3488 33.997 8.80697 32.9424 6.93226 31.0677C5.05755 29.193 4.00301 26.6512 4 24ZM20 39V35C20.0003 34.7349 20.1058 34.4807 20.2932 34.2932C20.4807 34.1057 20.7349 34.0003 21 34H43C43.2651 34.0003 43.5193 34.1057 43.7068 34.2932C43.8943 34.4807 43.9997 34.7349 44 35V39C43.9997 39.2651 43.8943 39.5193 43.7068 39.7068C43.5193 39.8942 43.2651 39.9997 43 40H21C20.7349 39.9997 20.4807 39.8942 20.2932 39.7068C20.1058 39.5193 20.0003 39.2651 20 39ZM58 49C57.6044 49 57.2178 48.8827 56.8889 48.6629C56.56 48.4432 56.3036 48.1308 56.1522 47.7654C56.0009 47.3999 55.9613 46.9978 56.0384 46.6098C56.1156 46.2218 56.3061 45.8655 56.5858 45.5858C56.8655 45.3061 57.2219 45.1156 57.6098 45.0384C57.9978 44.9612 58.3999 45.0009 58.7654 45.1522C59.1308 45.3036 59.4432 45.5599 59.6629 45.8888C59.8827 46.2177 60 46.6044 60 47C59.9994 47.5302 59.7885 48.0386 59.4135 48.4135C59.0386 48.7884 58.5302 48.9994 58 49Z" fill="#F06A6A"/>
</svg>
