<svg width="56" height="56" viewBox="0 0 56 56" fill="none" xmlns="http://www.w3.org/2000/svg">
<g clip-path="url(#clip0_13029_5071)">
<path d="M28 55.5C43.1878 55.5 55.5 43.1878 55.5 28C55.5 12.8122 43.1878 0.5 28 0.5C12.8122 0.5 0.5 12.8122 0.5 28C0.5 43.1878 12.8122 55.5 28 55.5Z" stroke="#FFBB00"/>
<path d="M28 19C25.252 19 22.8613 20.9102 22.1992 23.5352C20.582 23.7754 19.2988 25.0645 19.0469 26.7402C17.2539 27.3496 16 29.0605 16 31C16 33.4785 18.0215 35.5 20.5 35.5H35.5C37.9785 35.5 40 33.4785 40 31C40 29.6523 39.4023 28.3926 38.3711 27.543C38.459 27.1973 38.5 26.8457 38.5 26.5C38.5 23.7695 36.0859 21.543 33.2383 22.0703C32.1836 20.1895 30.1973 19 28 19ZM28 20.5C29.8105 20.5 31.4395 21.5781 32.1484 23.2422L32.4121 23.8867L33.0684 23.6641C33.4082 23.5527 33.7129 23.5 34 23.5C35.6523 23.5 37 24.8477 37 26.5C37 26.8516 36.9297 27.209 36.7891 27.5664L36.5781 28.1406L37.0938 28.4688C37.9727 29.0254 38.5 29.9688 38.5 31C38.5 32.6523 37.1523 34 35.5 34H20.5C18.8477 34 17.5 32.6523 17.5 31C17.5 29.5762 18.5137 28.3398 19.9023 28.0586L20.5176 27.8828L20.5 27.25C20.5 26.0078 21.5078 25 22.6738 24.9941L22.8262 25.0117H23.4766L23.5703 24.3613C23.8809 22.1582 25.7852 20.5 28 20.5ZM31.123 26.4297L27.2148 30.3379L25.3867 28.5098L24.8594 27.9766L23.7988 29.043L24.332 29.5703L27.2148 32.459L31.6562 28.0234L32.1895 27.4902L31.123 26.4297Z" fill="#FFBB00"/>
</g>
<defs>
<clipPath id="clip0_13029_5071">
<rect width="56" height="56" fill="white"/>
</clipPath>
</defs>
</svg>
