<svg width="64" height="64" viewBox="0 0 64 64" fill="none" xmlns="http://www.w3.org/2000/svg">
<path d="M45.9999 17.489L47.2119 16.277C47.3921 16.0874 47.4912 15.8349 47.4878 15.5733C47.4845 15.3117 47.3791 15.0618 47.1942 14.8768C47.0092 14.6918 46.7592 14.5864 46.4976 14.5831C46.2361 14.5798 45.9835 14.6788 45.7939 14.859L42.8939 17.759C42.8007 17.8521 42.7268 17.9626 42.6764 18.0843C42.6259 18.2059 42.6 18.3363 42.6 18.468C42.6 18.5997 42.6259 18.7301 42.6764 18.8518C42.7268 18.9734 42.8007 19.084 42.8939 19.177L45.7939 22.077C45.8869 22.1703 45.9974 22.2443 46.1191 22.2948C46.2408 22.3452 46.3712 22.3711 46.5029 22.371C46.6996 22.3675 46.8909 22.3067 47.0535 22.196C47.216 22.0853 47.3427 21.9295 47.418 21.7478C47.4933 21.5661 47.5139 21.3664 47.4773 21.1732C47.4407 20.9799 47.3484 20.8016 47.2119 20.66L46.0489 19.497C49.2785 19.6305 52.3318 21.0061 54.5716 23.3367C56.8114 25.6672 58.0647 28.7727 58.0699 32.005C57.3799 48.635 33.6879 48.625 33.0029 32.005C32.9987 28.1501 31.4654 24.4542 28.7396 21.7284C26.0137 19.0025 22.3179 17.4693 18.4629 17.465C-0.53109 18.208 -0.95009 45.19 17.9999 46.52L16.7879 47.732C16.6909 47.8242 16.6133 47.935 16.5597 48.0576C16.5062 48.1803 16.4777 48.3124 16.476 48.4463C16.4743 48.5801 16.4994 48.713 16.5499 48.837C16.6003 48.9609 16.675 49.0736 16.7697 49.1682C16.8643 49.2629 16.977 49.3376 17.101 49.3881C17.225 49.4385 17.3578 49.4636 17.4916 49.4619C17.6255 49.4602 17.7576 49.4318 17.8803 49.3782C18.003 49.3246 18.1137 49.247 18.2059 49.15L21.1059 46.25C21.1991 46.157 21.273 46.0464 21.3235 45.9248C21.3739 45.8031 21.3999 45.6727 21.3999 45.541C21.3999 45.4093 21.3739 45.2789 21.3235 45.1573C21.273 45.0356 21.1991 44.9251 21.1059 44.832L18.2059 41.932C18.0158 41.7552 17.7645 41.6591 17.5049 41.6637C17.2453 41.6684 16.9976 41.7736 16.814 41.9571C16.6303 42.1406 16.525 42.3882 16.5201 42.6478C16.5153 42.9074 16.6112 43.1588 16.7879 43.349L17.9509 44.512C1.70591 43.237 2.14691 20.104 18.4639 19.471C21.7868 19.475 24.9725 20.7968 27.322 23.1466C29.6716 25.4963 30.9932 28.6821 30.9969 32.005C31.0014 35.8598 32.5348 39.5554 35.2606 42.281C37.9864 45.0067 41.6821 46.5398 45.5369 46.544C64.5309 45.8 64.9499 18.82 45.9999 17.489Z" fill="#F06A6A"/>
<path d="M26.4898 29.65H25.8648C25.5243 28.5875 24.9607 27.61 24.2118 26.783L24.5278 26.236C24.7473 25.8499 24.8055 25.3929 24.69 24.9641C24.5745 24.5354 24.2945 24.1695 23.9108 23.946L22.7298 23.263C22.3441 23.0417 21.8865 22.982 21.457 23.0968C21.0274 23.2117 20.6607 23.4917 20.4368 23.876L20.1228 24.416C19.0328 24.1797 17.9049 24.1794 16.8148 24.415C16.5248 23.864 16.1448 23.224 15.4818 23.089C14.6588 22.779 13.7008 23.589 13.0248 23.939C12.6394 24.1619 12.3582 24.5287 12.2429 24.9588C12.1276 25.3888 12.1876 25.8471 12.4098 26.233L12.7238 26.776C11.9723 27.6004 11.4069 28.5768 11.0658 29.639H10.4378C9.99225 29.639 9.56493 29.816 9.24987 30.131C8.93481 30.4461 8.75781 30.8734 8.75781 31.319V32.681C8.75781 33.1265 8.93481 33.5538 9.24987 33.8689C9.56493 34.184 9.99225 34.361 10.4378 34.361H11.0618C11.4023 35.4229 11.9659 36.3997 12.7148 37.226L12.3988 37.773C12.1794 38.159 12.1211 38.616 12.2366 39.0448C12.3521 39.4736 12.6321 39.8394 13.0158 40.063L14.1968 40.746C14.5825 40.9681 15.0405 41.0283 15.4705 40.9134C15.9004 40.7985 16.2673 40.5179 16.4908 40.133L16.8028 39.593C17.8934 39.8296 19.022 39.8303 20.1128 39.595L20.4268 40.14C20.6507 40.5242 21.0174 40.8043 21.447 40.9191C21.8765 41.0339 22.3341 40.9742 22.7198 40.753C23.3578 40.33 24.5418 39.923 24.6848 39.05C24.7428 38.7304 24.7298 38.4019 24.6467 38.0879C24.5636 37.7739 24.4124 37.482 24.2038 37.233C24.955 36.4084 25.5201 35.432 25.8608 34.37H26.4888C26.9342 34.37 27.3614 34.1931 27.6764 33.8783C27.9914 33.5634 28.1685 33.1364 28.1688 32.691V31.328C28.1683 30.8827 27.991 30.4559 27.676 30.1413C27.361 29.8267 26.935 29.65 26.4898 29.65ZM26.1628 32.365C25.4128 32.375 24.3028 32.176 24.1068 33.168C23.8554 34.3854 23.2161 35.4885 22.2848 36.312C21.5198 36.968 22.2558 37.853 22.6158 38.497L21.9988 38.853C21.6748 38.34 21.3418 37.366 20.5938 37.421C19.3137 37.8437 17.9342 37.8612 16.6438 37.471C15.6938 37.133 15.2938 38.214 14.9178 38.846L14.3008 38.49C14.6638 37.846 15.3918 36.958 14.6338 36.306C13.7042 35.4802 13.0665 34.3759 12.8158 33.158C12.6278 32.17 11.5008 32.364 10.7638 32.355V31.645C11.5138 31.634 12.6238 31.833 12.8198 30.841C13.0713 29.6235 13.7105 28.5204 14.6418 27.697C15.4068 27.04 14.6708 26.156 14.3098 25.512L14.9278 25.156L15.4638 26.087C15.579 26.2876 15.7601 26.442 15.9763 26.5241C16.1926 26.6061 16.4306 26.6107 16.6498 26.537C17.8301 26.1462 19.1051 26.1473 20.2848 26.54C21.2328 26.873 21.6328 25.796 22.0088 25.163L22.6258 25.519C22.2628 26.163 21.5348 27.051 22.2928 27.702C23.2261 28.5256 23.8645 29.6318 24.1108 30.852C24.1567 31.0786 24.2796 31.2823 24.4586 31.4286C24.6375 31.575 24.8616 31.655 25.0928 31.655H26.1628V32.365Z" fill="#F06A6A"/>
<path d="M18.4638 27.6181C17.3119 27.6355 16.2131 28.1053 15.4047 28.926C14.5962 29.7467 14.1431 30.8525 14.1431 32.0046C14.1431 33.1566 14.5962 34.2624 15.4047 35.0832C16.2131 35.9039 17.3119 36.3737 18.4638 36.3911C19.6157 36.3737 20.7146 35.9039 21.523 35.0832C22.3314 34.2624 22.7846 33.1566 22.7846 32.0046C22.7846 30.8525 22.3314 29.7467 21.523 28.926C20.7146 28.1053 19.6157 27.6355 18.4638 27.6181ZM18.4638 34.3861C17.8407 34.3733 17.2473 34.1168 16.8111 33.6716C16.3749 33.2263 16.1306 32.6279 16.1306 32.0046C16.1306 31.3813 16.3749 30.7828 16.8111 30.3376C17.2473 29.8924 17.8407 29.6359 18.4638 29.6231C19.087 29.6359 19.6803 29.8924 20.1165 30.3376C20.5527 30.7828 20.797 31.3813 20.797 32.0046C20.797 32.6279 20.5527 33.2263 20.1165 33.6716C19.6803 34.1168 19.087 34.3733 18.4638 34.3861ZM39.2738 36.1851C39.4634 36.3653 39.716 36.4643 39.9776 36.461C40.2392 36.4577 40.4891 36.3523 40.6741 36.1673C40.8591 35.9823 40.9645 35.7324 40.9678 35.4708C40.9711 35.2092 40.8721 34.9567 40.6918 34.7671L37.9298 32.0051L40.6918 29.2421C40.8721 29.0525 40.9711 28.7999 40.9678 28.5383C40.9645 28.2768 40.8591 28.0268 40.6741 27.8418C40.4891 27.6569 40.2392 27.5515 39.9776 27.5481C39.716 27.5448 39.4634 27.6438 39.2738 27.8241L35.8038 31.2961C35.6159 31.484 35.5104 31.7388 35.5104 32.0046C35.5104 32.2703 35.6159 32.5252 35.8038 32.7131L39.2738 36.1851ZM50.3798 36.1851C50.4729 36.2783 50.5834 36.3522 50.7051 36.4026C50.8267 36.4531 50.9571 36.479 51.0888 36.479C51.2205 36.479 51.3509 36.4531 51.4726 36.4026C51.5943 36.3522 51.7048 36.2783 51.7978 36.1851L55.2698 32.7131C55.4577 32.5252 55.5633 32.2703 55.5633 32.0046C55.5633 31.7388 55.4577 31.484 55.2698 31.2961L51.7978 27.8241C51.7056 27.7271 51.5949 27.6495 51.4722 27.5959C51.3496 27.5423 51.2174 27.5139 51.0836 27.5122C50.9497 27.5105 50.8169 27.5356 50.6929 27.586C50.5689 27.6365 50.4563 27.7112 50.3616 27.8059C50.267 27.9005 50.1922 28.0132 50.1418 28.1371C50.0913 28.2611 50.0662 28.394 50.0679 28.5278C50.0696 28.6617 50.0981 28.7938 50.1517 28.9165C50.2052 29.0392 50.2828 29.1499 50.3798 29.2421L53.1428 32.0051L50.3798 34.7671C50.2866 34.8601 50.2127 34.9707 50.1623 35.0923C50.1118 35.214 50.0859 35.3444 50.0859 35.4761C50.0859 35.6078 50.1118 35.7382 50.1623 35.8598C50.2127 35.9815 50.2866 36.092 50.3798 36.1851ZM45.2068 37.4541L47.8098 27.0401C47.8743 26.7822 47.8336 26.5092 47.6968 26.2812C47.56 26.0533 47.3383 25.889 47.0803 25.8246C46.8224 25.7601 46.5495 25.8008 46.3215 25.9376C46.0936 26.0744 45.9293 26.2962 45.8648 26.5541L43.2628 36.9671C43.229 37.0954 43.2209 37.2291 43.2392 37.3605C43.2574 37.492 43.3016 37.6185 43.3691 37.7327C43.4366 37.8469 43.5262 37.9466 43.6325 38.0259C43.7389 38.1052 43.8599 38.1627 43.9886 38.1949C44.1174 38.227 44.2512 38.2333 44.3824 38.2134C44.5135 38.1934 44.6395 38.1476 44.7528 38.0786C44.8661 38.0096 44.9646 37.9188 45.0426 37.8114C45.1205 37.704 45.1763 37.5832 45.2068 37.4541Z" fill="#F06A6A"/>
</svg>
