<svg width="56" height="56" viewBox="0 0 56 56" fill="none" xmlns="http://www.w3.org/2000/svg">
<g clip-path="url(#clip0_13028_5073)">
<path d="M28 55.5C43.1878 55.5 55.5 43.1878 55.5 28C55.5 12.8122 43.1878 0.5 28 0.5C12.8122 0.5 0.5 12.8122 0.5 28C0.5 43.1878 12.8122 55.5 28 55.5Z" stroke="#FFBB00"/>
<g clip-path="url(#clip1_13028_5073)">
<path d="M28 55.5C43.1878 55.5 55.5 43.1878 55.5 28C55.5 12.8122 43.1878 0.5 28 0.5C12.8122 0.5 0.5 12.8122 0.5 28C0.5 43.1878 12.8122 55.5 28 55.5Z" stroke="#FFBB00"/>
<path d="M27.25 17.5C22.1992 17.5 19 21.2852 19 25.75C19 28.0293 19.8555 29.5234 20.6289 30.6836C21.3965 31.8379 22 32.623 22 33.8125V37H23.5V33.8125C23.5 32.1016 22.6035 30.9531 21.8711 29.8516C21.1445 28.75 20.5 27.6719 20.5 25.75C20.5 21.9648 22.9199 19 27.25 19C29.4941 19 30.9531 19.6973 31.9609 20.7344C32.9746 21.7715 33.5371 23.1953 33.7539 24.6836C33.7891 24.9414 33.8711 25.1934 34 25.4336L35.4824 28.0938C35.5293 28.1699 35.5059 28.2285 35.4238 28.2637L34 28.791V31.75C34 32.998 33.4844 33.4199 32.916 33.7012C32.3477 33.9883 31.75 34 31.75 34H31V37H32.5V35.3125C32.8516 35.2715 33.0332 35.3184 33.584 35.0488C34.5156 34.5801 35.5 33.502 35.5 31.75V29.834L35.9922 29.6523L36.0039 29.6465C36.8828 29.2773 37.2578 28.1992 36.7949 27.3672L35.3125 24.707C35.2773 24.6426 35.248 24.5664 35.2363 24.4727C34.9844 22.75 34.334 21.0098 33.0391 19.6855C31.7441 18.3613 29.8164 17.5 27.25 17.5ZM26.5 20.5V22.0762C26.0195 22.1758 25.5859 22.375 25.1934 22.6328L24.0684 21.5078L23.0078 22.5684L24.1328 23.6934C23.875 24.0859 23.6816 24.5254 23.582 25H22V26.5H23.582C23.6816 26.9746 23.875 27.4141 24.1328 27.8008L23.0078 28.9316L24.0684 29.9922L25.1934 28.8672C25.5859 29.1309 26.0254 29.3242 26.5 29.4238V31H28V29.4238C28.4805 29.3242 28.9141 29.125 29.3066 28.8672L30.4316 29.9922L31.4922 28.9316L30.3672 27.8066C30.625 27.4141 30.8184 26.9746 30.918 26.5H32.5V25H30.918C30.8184 24.5254 30.625 24.0859 30.3672 23.6992L31.4922 22.5684L30.4316 21.5078L29.3066 22.6328C28.9141 22.3691 28.4746 22.1758 28 22.0762V20.5H26.5ZM27.25 23.5C27.8594 23.5 28.4043 23.7402 28.8086 24.127L28.873 24.1914C29.2598 24.5957 29.5 25.1406 29.5 25.75C29.5 26.3594 29.2598 26.9043 28.873 27.3086L28.8086 27.373C28.4043 27.7598 27.8594 28 27.25 28C26.6406 28 26.0957 27.7598 25.6914 27.373L25.627 27.3086C25.2402 26.9043 25 26.3594 25 25.75C25 25.1406 25.2402 24.5957 25.627 24.1914L25.6914 24.127C26.0957 23.7402 26.6406 23.5 27.25 23.5Z" fill="#FFBB00"/>
</g>
</g>
<defs>
<clipPath id="clip0_13028_5073">
<rect width="56" height="56" fill="white"/>
</clipPath>
<clipPath id="clip1_13028_5073">
<rect width="56" height="56" fill="white"/>
</clipPath>
</defs>
</svg>
