<svg width="64" height="64" viewBox="0 0 64 64" fill="none" xmlns="http://www.w3.org/2000/svg">
<g clip-path="url(#clip0_15510_317)">
<path d="M55.9779 39.7207C56.7846 37.231 57.1942 34.6343 57.1942 31.9883C57.1942 29.352 56.7876 26.7646 55.9858 24.2827C57.7489 23.6206 59.3521 22.5605 60.6831 21.1509C62.9833 18.7159 64.1972 15.5303 64.1016 12.1821C63.9033 5.26963 58.1191 -0.191875 51.2056 0.005375C47.8568 0.101125 44.7466 1.49513 42.4462 3.93062C41.2846 5.16062 40.4008 6.582 39.8222 8.11913C37.3397 7.31788 34.7524 6.91113 32.1152 6.91113C29.4764 6.91113 26.8872 7.31888 24.4033 8.12113C22.6118 3.38038 18.0268 0 12.6664 0C5.75094 0 0.124939 5.626 0.124939 12.541C0.124939 17.9009 3.50581 22.4854 8.24656 24.2764C7.44381 26.7607 7.03656 29.3501 7.03656 31.9883C7.03656 34.6343 7.44619 37.231 8.25281 39.7207C3.50869 41.5103 0.124939 46.0966 0.124939 51.459C0.124939 53.3466 0.534064 55.1616 1.34119 56.853C1.3942 56.9641 1.46858 57.0638 1.56009 57.1461C1.6516 57.2285 1.75845 57.2921 1.87453 57.3332C1.9906 57.3743 2.11364 57.3921 2.23661 57.3856C2.35957 57.3792 2.48006 57.3485 2.59119 57.2955C2.81549 57.1883 2.98807 56.9964 3.07103 56.762C3.154 56.5277 3.14057 56.27 3.03369 56.0455C2.34756 54.608 1.99994 53.065 1.99994 51.459C1.99994 45.5781 6.78506 40.7935 12.6664 40.7935C18.5483 40.7935 23.3334 45.5781 23.3334 51.459C23.3334 57.3402 18.5483 62.125 12.6664 62.125C9.98394 62.125 7.41981 61.1255 5.44719 59.3105C5.06594 58.96 4.47256 58.9849 4.12244 59.3657C4.03906 59.4563 3.97435 59.5625 3.93201 59.6781C3.88966 59.7937 3.87051 59.9165 3.87564 60.0395C3.88077 60.1625 3.91008 60.2833 3.96191 60.395C4.01374 60.5067 4.08706 60.607 4.17769 60.6904C6.49744 62.8248 9.51219 64 12.6664 64C18.0346 64 22.6254 60.6094 24.4111 55.8579C26.8921 56.6588 29.4789 57.0654 32.1152 57.0654C34.7519 57.0654 37.3393 56.6588 39.8202 55.8584C41.6061 60.61 46.1968 64 51.5649 64C58.4804 64 64.1064 58.374 64.1064 51.459C64.1064 46.0966 60.7227 41.5098 55.9779 39.7207ZM43.8096 5.21775C45.7656 3.1465 48.4116 1.961 51.2597 1.87937C51.3629 1.87645 51.4661 1.87499 51.5693 1.875C57.3106 1.875 62.0619 6.4605 62.2269 12.2354C62.3086 15.083 61.2763 17.792 59.3203 19.8638C57.3642 21.935 54.7182 23.1206 51.8701 23.2021C51.7669 23.205 51.6637 23.2065 51.5604 23.2065C45.8192 23.2065 41.0678 18.6211 40.9028 12.8462C40.8207 9.9985 41.8534 7.28912 43.8096 5.21775ZM39.2943 54.0576C36.9843 54.8086 34.5737 55.1904 32.1152 55.1904C29.6577 55.1904 27.2471 54.8086 24.9369 54.0576C25.1175 53.2032 25.2085 52.3322 25.2084 51.4589C25.2084 44.5439 19.5819 38.9185 12.6664 38.9185C11.7704 38.9185 10.8964 39.0136 10.0532 39.1929C9.29581 36.8745 8.91156 34.4551 8.91156 31.9883C8.91156 29.5293 9.29394 27.1176 10.0463 24.8051C10.9075 24.9891 11.7858 25.0818 12.6664 25.0815C14.8149 25.0815 16.9346 24.5288 18.7973 23.4834C19.2486 23.23 19.4091 22.6588 19.1557 22.2071C18.9023 21.7555 18.3309 21.5953 17.8794 21.8486C16.2963 22.7369 14.4936 23.2065 12.6664 23.2065C6.78456 23.2065 1.99994 18.4219 1.99994 12.5405C1.99994 6.65962 6.78506 1.875 12.6664 1.875C18.5483 1.875 23.3334 6.65963 23.3334 12.541C23.3334 15.0015 22.4756 17.4019 20.9179 19.3008C20.5892 19.7008 20.6479 20.2915 21.0483 20.6201C21.2406 20.7777 21.4875 20.8525 21.7349 20.8281C21.9823 20.8036 22.2099 20.6819 22.3676 20.4897C24.1992 18.2569 25.2084 15.4335 25.2084 12.5405C25.2084 11.6426 25.1122 10.7661 24.9321 9.92087C27.2441 9.16838 29.6562 8.78613 32.1152 8.78613C34.5737 8.78613 36.9848 9.168 39.2958 9.91938C39.0891 10.8988 38.9993 11.8993 39.0283 12.8999C39.2231 19.6904 44.8091 25.082 51.5599 25.0815C52.4421 25.0816 53.3219 24.9897 54.1849 24.8071C54.9369 27.1186 55.3193 29.5303 55.3193 31.9884C55.3193 34.4551 54.9346 36.8746 54.1777 39.1929C53.3188 39.0101 52.4431 38.9181 51.5649 38.9185C44.6493 38.9185 39.0234 44.544 39.0234 51.459C39.0234 52.3501 39.1172 53.2192 39.2943 54.0576ZM51.5649 62.125C45.6831 62.125 40.8984 57.3404 40.8984 51.4595C40.8984 45.5781 45.6831 40.7935 51.5649 40.7935C57.4467 40.7935 62.2314 45.5781 62.2314 51.4595C62.2314 57.3404 57.4467 62.125 51.5649 62.125Z" fill="#F06A6A"/>
<path d="M19.0502 7.00693C18.8924 6.89955 18.7056 6.8429 18.5148 6.84456C18.3239 6.84621 18.1382 6.90609 17.9823 7.01618C17.6639 7.24062 17.3217 7.4291 16.9618 7.57818C15.6738 6.5703 13.807 6.58205 12.5283 7.69393C11.8686 8.26664 11.4485 9.06651 11.3514 9.93468C10.6648 9.83252 10.0063 9.59159 9.41588 9.22657C8.82549 8.86154 8.31563 8.38009 7.91741 7.81155C7.82193 7.67599 7.69226 7.56813 7.54158 7.49892C7.3909 7.42972 7.22459 7.40164 7.05954 7.41755C6.89437 7.43355 6.73641 7.4931 6.60179 7.59013C6.46716 7.68715 6.36071 7.81817 6.29329 7.9698C6.26654 8.0303 5.63566 9.47168 5.71616 11.2359C5.77779 12.5859 6.26066 14.3262 8.02191 15.6699C7.38577 15.8759 6.71832 15.9681 6.05016 15.9424C5.83956 15.9343 5.63234 15.9973 5.46196 16.1214C5.29157 16.2454 5.16794 16.4233 5.11102 16.6262C5.0541 16.8291 5.0672 17.0453 5.14821 17.2399C5.22922 17.4345 5.37342 17.5961 5.55754 17.6987C7.02829 18.5157 8.60391 18.9249 10.1434 18.9249C11.6224 18.9249 13.0678 18.5469 14.3539 17.7906C15.9667 16.8418 17.1385 15.3893 17.7748 13.6153C17.7948 13.5703 17.8114 13.5236 17.8247 13.4752C18.1518 12.5118 18.3232 11.4566 18.3232 10.3374C18.3232 10.2887 18.3217 10.2393 18.3198 10.1904C18.8561 9.55812 19.2376 8.80947 19.434 8.00393C19.479 7.81843 19.4664 7.62364 19.3978 7.44551C19.3293 7.26739 19.208 7.11439 19.0503 7.00693H19.0502ZM16.4193 10.0449C16.4379 10.1427 16.4477 10.2437 16.4477 10.3404C16.4477 11.2593 16.3109 12.1104 16.0507 12.8794C16.0365 12.9151 16.0246 12.9516 16.015 12.9888C15.5283 14.3512 14.642 15.4454 13.4033 16.1744C12.2695 16.8419 10.9683 17.1261 9.64204 17.0298C9.94594 16.8794 10.2392 16.7085 10.5199 16.5182C10.6582 16.4242 10.7688 16.295 10.8404 16.1439C10.912 15.9928 10.942 15.8253 10.9272 15.6588C10.9123 15.4922 10.8532 15.3327 10.7559 15.1967C10.6586 15.0607 10.5267 14.9532 10.3739 14.8853C8.62341 14.1074 7.68741 12.8702 7.59216 11.2086C7.57477 10.8861 7.58623 10.5627 7.62641 10.2423C8.91591 11.3198 10.5678 11.9078 12.2919 11.8633C12.5363 11.8571 12.7686 11.7556 12.9393 11.5806C13.1099 11.4056 13.2055 11.1708 13.2055 10.9263V10.3448C13.2021 10.1109 13.2498 9.87914 13.3454 9.66566C13.4409 9.45217 13.582 9.26216 13.7587 9.10893C14.4287 8.52643 15.4472 8.59718 16.0297 9.26718C16.1441 9.3986 16.2929 9.49549 16.4594 9.54693C16.4015 9.70629 16.3876 9.87835 16.4194 10.0449H16.4193ZM48.4799 13.2803H49.809V18.8707C49.809 19.1193 49.9078 19.3578 50.0836 19.5336C50.2594 19.7094 50.4979 19.8082 50.7465 19.8082C50.9952 19.8082 51.2336 19.7094 51.4095 19.5336C51.5853 19.3578 51.684 19.1193 51.684 18.8707V13.2803H53.1318C53.6493 13.2803 54.0693 12.8603 54.0693 12.3428C54.0693 11.8253 53.6493 11.4053 53.1318 11.4053H51.684V8.7823C51.684 7.88193 52.4169 7.14893 53.3178 7.14893H54.5315C55.0493 7.14893 55.469 6.72905 55.469 6.21143C55.469 5.96279 55.3703 5.72433 55.1945 5.54851C55.0186 5.3727 54.7802 5.27393 54.5315 5.27393H53.3178C51.3832 5.27393 49.809 6.84768 49.809 8.7823V11.4053H48.4799C47.9624 11.4053 47.5424 11.8253 47.5424 12.3428C47.5424 12.8603 47.9624 13.2803 48.4799 13.2803ZM10.5394 56.3075C10.7627 56.3075 10.9857 56.25 11.1844 56.1353L17.5658 52.4493C17.7617 52.3358 17.9244 52.1729 18.0376 51.9769C18.1508 51.7808 18.2105 51.5584 18.2108 51.3321C18.2108 50.8731 17.9638 50.4449 17.5658 50.2154L11.1845 46.5293C10.9884 46.4163 10.7661 46.3568 10.5397 46.3568C10.3134 46.3568 10.091 46.4163 9.89491 46.5293C9.69894 46.6427 9.53618 46.8056 9.42291 47.0017C9.30963 47.1978 9.24981 47.4201 9.24941 47.6465V55.0182C9.24941 55.4775 9.49691 55.9058 9.89491 56.1353C10.0908 56.2486 10.3131 56.308 10.5394 56.3077V56.3075ZM11.1244 48.6602L15.7514 51.3327L11.1244 54.0049V48.6602ZM55.6387 44.8194H47.4912C46.0762 44.8194 44.9247 45.9707 44.9247 47.3863V55.5323C44.9247 56.9478 46.076 58.0992 47.4912 58.0992H55.6387C57.0537 58.0992 58.2049 56.9478 58.2049 55.5323V47.3863C58.2049 45.9708 57.0537 44.8194 55.6387 44.8194ZM56.3299 55.5323C56.3298 55.7157 56.257 55.8915 56.1274 56.0212C55.9978 56.151 55.822 56.2239 55.6387 56.2242H47.4912C47.3078 56.224 47.1319 56.1511 47.0022 56.0213C46.8726 55.8916 46.7997 55.7157 46.7997 55.5323V47.3863C46.7998 47.2029 46.8727 47.0271 47.0024 46.8974C47.132 46.7677 47.3078 46.6947 47.4912 46.6944H55.6387C55.822 46.6948 55.9977 46.7678 56.1273 46.8975C56.2569 47.0272 56.3298 47.203 56.3299 47.3863V55.5323Z" fill="#F06A6A"/>
<path d="M51.565 48.6256C50.0025 48.6256 48.731 49.8971 48.731 51.4596C48.731 53.0221 50.0025 54.2931 51.565 54.2931C53.1275 54.2931 54.3988 53.0221 54.3988 51.4596C54.3988 49.8971 53.1275 48.6256 51.565 48.6256ZM51.565 52.4181C51.0362 52.4181 50.606 51.9878 50.606 51.4596C50.606 50.9308 51.0361 50.5006 51.565 50.5006C52.0938 50.5006 52.5238 50.9307 52.5238 51.4596C52.5238 51.9878 52.0937 52.4181 51.565 52.4181ZM38.9003 22.2618C38.6517 22.2618 38.4132 22.3606 38.2374 22.5364C38.0616 22.7122 37.9628 22.9507 37.9628 23.1993V23.6197C36.6405 24.3993 35.2562 25.0687 33.8241 25.6212C32.6762 26.0626 31.5005 26.4278 30.3046 26.7145C30.1154 26.5678 29.8828 26.4881 29.6435 26.4878H25.351C24.314 26.4878 23.4707 27.3316 23.4707 28.3682V33.2916C23.4707 34.3287 24.314 35.172 25.3511 35.172H26.209L26.5341 41.423C26.5405 41.5459 26.5711 41.6664 26.624 41.7775C26.677 41.8886 26.7514 41.9882 26.8428 42.0706C26.9343 42.1529 27.0411 42.2165 27.1571 42.2576C27.2732 42.2987 27.3961 42.3165 27.5191 42.3101C27.7673 42.2972 28.0003 42.1862 28.1667 42.0015C28.3332 41.8168 28.4194 41.5736 28.4066 41.3253L28.0863 35.172H29.6435C29.8921 35.172 30.121 35.087 30.3042 34.9458C31.0653 35.1293 31.8183 35.3445 32.5615 35.5908C32.6783 35.6296 32.8017 35.645 32.9245 35.6361C33.0473 35.6272 33.1671 35.5942 33.2771 35.5389C33.3872 35.4837 33.4853 35.4074 33.5658 35.3142C33.6463 35.2211 33.7078 35.113 33.7465 34.9962C33.7853 34.8793 33.8006 34.7559 33.7917 34.6331C33.7828 34.5103 33.7498 34.3905 33.6946 34.2805C33.6394 34.1704 33.563 34.0723 33.4699 33.9918C33.3768 33.9113 33.2687 33.8499 33.1518 33.8111C32.3538 33.5464 31.5449 33.3155 30.7275 33.1187V28.5421C32.0087 28.2351 33.2683 27.8438 34.498 27.3707C35.6856 26.9127 36.8428 26.3794 37.9625 25.7738V35.8881C37.5515 35.6661 37.1354 35.4538 36.7145 35.2515C36.6035 35.198 36.4832 35.167 36.3602 35.1601C36.2373 35.1532 36.1142 35.1707 35.9981 35.2114C35.8819 35.2521 35.7748 35.3153 35.6831 35.3975C35.5914 35.4796 35.5167 35.579 35.4635 35.69C35.4101 35.8009 35.3791 35.9213 35.3722 36.0443C35.3653 36.1672 35.3828 36.2903 35.4235 36.4065C35.4642 36.5227 35.5274 36.6297 35.6095 36.7215C35.6916 36.8133 35.791 36.888 35.902 36.9413C36.6036 37.2798 37.291 37.647 37.9625 38.042V38.4605C37.9625 38.7091 38.0612 38.9476 38.237 39.1234C38.4129 39.2992 38.6513 39.398 38.9 39.398C39.1486 39.398 39.387 39.2992 39.5629 39.1234C39.7387 38.9476 39.8375 38.7091 39.8375 38.4605V23.1992C39.8375 23.0761 39.8133 22.9542 39.7663 22.8405C39.7192 22.7268 39.6502 22.6234 39.5632 22.5363C39.4762 22.4493 39.3729 22.3802 39.2591 22.3331C39.1454 22.286 39.0235 22.2617 38.9005 22.2617L38.9003 22.2618ZM28.853 33.2965L25.3457 33.2916L25.3511 28.3628H28.853V33.2965Z" fill="#F06A6A"/>
</g>
<defs>
<clipPath id="clip0_15510_317">
<rect width="64" height="64" fill="white"/>
</clipPath>
</defs>
</svg>
