<svg width="403" height="391" viewBox="0 0 403 391" fill="none" xmlns="http://www.w3.org/2000/svg">
<path d="M207.648 221.897L185.236 164.522L162.825 221.897M171.993 207.705H198.706M232.304 164.522V221.897M201.5 35.3022V65.4042" stroke="#F06A6A" stroke-width="11" stroke-miterlimit="10" stroke-linecap="round" stroke-linejoin="round"/>
<path d="M214.52 24.6299C217.498 17.6531 214.083 9.65448 206.893 6.76458C199.702 3.87467 191.457 7.1878 188.479 14.1647C185.5 21.1415 188.915 29.1401 196.106 32.03C203.297 34.9199 211.541 31.6068 214.52 24.6299Z" stroke="#F06A6A" stroke-width="11" stroke-miterlimit="10" stroke-linecap="round" stroke-linejoin="round"/>
<path d="M311.584 42.0562C314.562 35.0793 311.147 27.0808 303.956 24.1909C296.765 21.301 288.521 24.6141 285.543 31.5909C282.564 38.5678 285.979 46.5664 293.17 49.4563C300.361 52.3462 308.605 49.0331 311.584 42.0562Z" stroke="#F06A6A" stroke-width="11" stroke-miterlimit="10" stroke-linecap="round" stroke-linejoin="round"/>
<path d="M282.689 36.8296H256.75C251.297 36.8296 246.878 41.1176 246.878 46.4076V77.877" stroke="#F06A6A" stroke-width="11" stroke-miterlimit="10" stroke-linecap="round" stroke-linejoin="round"/>
<path d="M109.828 49.46C117.019 46.5701 120.434 38.5715 117.455 31.5947C114.477 24.6178 106.232 21.3047 99.0415 24.1946C91.8505 27.0845 88.4358 35.0831 91.4144 42.06C94.3929 49.0368 102.637 52.3499 109.828 49.46Z" stroke="#F06A6A" stroke-width="11" stroke-miterlimit="10" stroke-linecap="round" stroke-linejoin="round"/>
<path d="M120.311 36.8296H146.25C151.703 36.8296 156.122 41.1176 156.122 46.4077V77.8774M201.5 355.699V325.597" stroke="#F06A6A" stroke-width="11" stroke-miterlimit="10" stroke-linecap="round" stroke-linejoin="round"/>
<path d="M206.899 384.226C214.09 381.336 217.505 373.338 214.526 366.361C211.548 359.384 203.303 356.071 196.113 358.961C188.922 361.851 185.507 369.849 188.485 376.826C191.464 383.803 199.708 387.116 206.899 384.226Z" stroke="#F06A6A" stroke-width="11" stroke-miterlimit="10" stroke-linecap="round" stroke-linejoin="round"/>
<path d="M303.963 366.797C311.154 363.907 314.569 355.908 311.59 348.932C308.611 341.955 300.367 338.642 293.176 341.532C285.985 344.421 282.571 352.42 285.549 359.397C288.528 366.374 296.772 369.687 303.963 366.797Z" stroke="#F06A6A" stroke-width="11" stroke-miterlimit="10" stroke-linecap="round" stroke-linejoin="round"/>
<path d="M282.689 354.17H256.75C251.297 354.17 246.878 349.882 246.878 344.592V313.123" stroke="#F06A6A" stroke-width="11" stroke-miterlimit="10" stroke-linecap="round" stroke-linejoin="round"/>
<path d="M117.462 359.399C120.44 352.423 117.025 344.424 109.834 341.534C102.643 338.644 94.3993 341.957 91.4207 348.934C88.4421 355.911 91.8569 363.91 99.0479 366.8C106.239 369.689 114.483 366.376 117.462 359.399Z" stroke="#F06A6A" stroke-width="11" stroke-miterlimit="10" stroke-linecap="round" stroke-linejoin="round"/>
<path d="M120.311 354.171H146.25C151.703 354.171 156.122 349.883 156.122 344.593V313.123M36.3853 195.5H67.4111" stroke="#F06A6A" stroke-width="11" stroke-miterlimit="10" stroke-linecap="round" stroke-linejoin="round"/>
<path d="M33.0199 200.731C35.9985 193.754 32.5837 185.755 25.3927 182.865C18.2017 179.975 9.95765 183.288 6.97905 190.265C4.00045 197.242 7.41525 205.241 14.6062 208.131C21.7972 211.02 30.0413 207.707 33.0199 200.731Z" stroke="#F06A6A" stroke-width="11" stroke-miterlimit="10" stroke-linecap="round" stroke-linejoin="round"/>
<path d="M50.982 106.557C53.9606 99.5798 50.5458 91.5812 43.3548 88.6913C36.1638 85.8014 27.9197 89.1146 24.9411 96.0914C21.9625 103.068 25.3773 111.067 32.5683 113.957C39.7593 116.847 48.0034 113.534 50.982 106.557Z" stroke="#F06A6A" stroke-width="11" stroke-miterlimit="10" stroke-linecap="round" stroke-linejoin="round"/>
<path d="M37.9595 116.729V141.895C37.9595 147.185 42.3792 151.473 47.8315 151.473H80.2667" stroke="#F06A6A" stroke-width="11" stroke-miterlimit="10" stroke-linecap="round" stroke-linejoin="round"/>
<path d="M43.3575 302.306C50.5484 299.416 53.9632 291.417 50.9846 284.44C48.0061 277.464 39.762 274.15 32.571 277.04C25.38 279.93 21.9652 287.929 24.9438 294.906C27.9224 301.883 36.1665 305.196 43.3575 302.306Z" stroke="#F06A6A" stroke-width="11" stroke-miterlimit="10" stroke-linecap="round" stroke-linejoin="round"/>
<path d="M37.9595 274.272V249.105C37.9595 243.815 42.3792 239.527 47.8316 239.527H80.2671M366.615 195.5H335.589" stroke="#F06A6A" stroke-width="11" stroke-miterlimit="10" stroke-linecap="round" stroke-linejoin="round"/>
<path d="M388.398 208.125C395.589 205.235 399.003 197.237 396.025 190.26C393.046 183.283 384.802 179.97 377.611 182.86C370.42 185.75 367.005 193.748 369.984 200.725C372.963 207.702 381.207 211.015 388.398 208.125Z" stroke="#F06A6A" stroke-width="11" stroke-miterlimit="10" stroke-linecap="round" stroke-linejoin="round"/>
<path d="M370.433 113.951C377.624 111.061 381.039 103.063 378.061 96.0859C375.082 89.109 366.838 85.7959 359.647 88.6858C352.456 91.5757 349.041 99.5743 352.02 106.551C354.998 113.528 363.242 116.841 370.433 113.951Z" stroke="#F06A6A" stroke-width="11" stroke-miterlimit="10" stroke-linecap="round" stroke-linejoin="round"/>
<path d="M365.04 116.729V141.895C365.04 147.185 360.62 151.473 355.168 151.473H322.733" stroke="#F06A6A" stroke-width="11" stroke-miterlimit="10" stroke-linecap="round" stroke-linejoin="round"/>
<path d="M378.064 294.899C381.043 287.922 377.628 279.924 370.437 277.034C363.246 274.144 355.002 277.457 352.023 284.434C349.044 291.411 352.459 299.409 359.65 302.299C366.841 305.189 375.085 301.876 378.064 294.899Z" stroke="#F06A6A" stroke-width="11" stroke-miterlimit="10" stroke-linecap="round" stroke-linejoin="round"/>
<path d="M365.041 274.272V249.105C365.041 243.815 360.621 239.527 355.168 239.527H322.733M273.278 182.136V169.377C273.278 160.69 268.46 152.595 260.706 148.251L214.071 122.128C206.317 117.785 196.682 117.785 188.928 122.128L142.293 148.251C134.538 152.595 129.721 160.69 129.721 169.377V221.623C129.721 230.311 134.538 238.406 142.293 242.749L188.928 268.872C196.682 273.216 206.317 273.216 214.07 268.872L260.705 242.749C268.46 238.406 273.277 230.311 273.277 221.623V208.864" stroke="#F06A6A" stroke-width="11" stroke-miterlimit="10" stroke-linecap="round" stroke-linejoin="round"/>
<path d="M238.675 105.047L227.846 98.9807C211.595 89.8769 191.405 89.8769 175.153 98.9807L128.518 125.103C112.267 134.207 102.173 151.171 102.173 169.377V221.623C102.173 239.829 112.268 256.794 128.519 265.897L175.153 292.02C191.405 301.124 211.595 301.124 227.845 292.02L274.481 265.897C290.732 256.794 300.827 239.829 300.827 221.623V169.377C300.827 151.171 290.732 134.207 274.48 125.103L262.533 118.411" stroke="#F06A6A" stroke-width="11" stroke-miterlimit="10" stroke-linecap="round" stroke-linejoin="round"/>
</svg>
