<svg width="56" height="56" viewBox="0 0 56 56" fill="none" xmlns="http://www.w3.org/2000/svg">
<g clip-path="url(#clip0_13030_5089)">
<path d="M28 55.5C43.1878 55.5 55.5 43.1878 55.5 28C55.5 12.8122 43.1878 0.5 28 0.5C12.8122 0.5 0.5 12.8122 0.5 28C0.5 43.1878 12.8122 55.5 28 55.5Z" stroke="#FFBB00"/>
<mask id="mask0_13030_5089" style="mask-type:luminance" maskUnits="userSpaceOnUse" x="16" y="16" width="24" height="24">
<path d="M40 16H16V40H40V16Z" fill="white"/>
</mask>
<g mask="url(#mask0_13030_5089)">
<path d="M24.2471 19C23.0107 19 21.9971 20.0137 21.9971 21.25V22H23.4971V21.25C23.4971 20.8281 23.8252 20.5 24.2471 20.5H31.7471C32.1689 20.5 32.4971 20.8281 32.4971 21.25V22H33.9971V21.25C33.9971 20.0137 32.9834 19 31.7471 19H24.2471ZM22.4072 23.5352L19.2197 26.7227C18.9268 27.0098 18.9268 27.4902 19.2197 27.7773L22.4072 30.9648L23.4619 29.9102L20.8076 27.25L23.4619 24.5898L22.4072 23.5352ZM33.5928 23.5352L32.5264 24.5898L35.1865 27.25L32.5264 29.9102L33.5928 30.9648L36.7803 27.7773C37.0674 27.4902 37.0674 27.0098 36.7803 26.7227L33.5928 23.5352ZM21.9971 32.5V34.75C21.9971 35.9863 23.0107 37 24.2471 37H31.7471C32.9834 37 33.9971 35.9863 33.9971 34.75V32.5H32.4971V34.75C32.4971 35.1719 32.1689 35.5 31.7471 35.5H24.2471C23.8252 35.5 23.4971 35.1719 23.4971 34.75V32.5H21.9971ZM26.4971 32.5V34H29.4971V32.5H26.4971Z" fill="#FFBB00"/>
</g>
</g>
<defs>
<clipPath id="clip0_13030_5089">
<rect width="56" height="56" fill="white"/>
</clipPath>
</defs>
</svg>
