<svg width="64" height="64" viewBox="0 0 64 64" fill="none" xmlns="http://www.w3.org/2000/svg">
<g clip-path="url(#clip0_15513_379)">
<path d="M15.3956 55.8214H7.07039M11.2178 26.227H16.3206M11.2178 31.2222H16.3206M11.2178 36.2174H16.3206M6.14527 26.227H6.68089M6.14527 31.2222H6.68089M6.14527 36.2174H6.68089M10.5424 0.9375V8.28238M1.52014 0.9375V5.99162C1.52014 6.85237 1.94714 7.43187 2.67239 7.89525C3.02564 8.121 3.47177 8.28175 4.02627 8.2825C4.50639 8.28313 4.90777 8.172 5.23952 8.00488C6.08477 7.57925 6.62377 6.93275 6.62377 5.98637V0.9375M30.3714 0.9375L35.5384 8.28238M35.1748 0.9375L30.0005 8.28238M21.9268 0.9375V5.99162C21.9268 6.85237 22.3538 7.43187 23.079 7.89525C23.4323 8.121 23.8784 8.28175 24.4329 8.2825C24.913 8.28313 25.3144 8.172 25.6461 8.00488C26.4914 7.57925 27.0304 6.93275 27.0304 5.98637V0.9375M17.9333 0.9375L14.8273 8.28238M1.52014 14.2926H62.4799M55.9443 0.9625H62.4799M62.4799 4.60988H55.9443M62.4799 8.25737H55.9443M6.62502 48.5804H4.02014C2.63939 48.5804 1.52014 49.6996 1.52014 51.0804V60.5625C1.52014 61.9432 2.63939 63.0625 4.02014 63.0625H18.4459C19.8266 63.0625 20.9459 61.9432 20.9459 60.5625V51.0804C20.9459 49.6996 19.8266 48.5804 18.4459 48.5804H11M1.52014 31.2764V39.6185C1.52014 40.9992 2.63939 42.1185 4.02014 42.1185H18.4459C19.8266 42.1185 20.9459 40.9992 20.9459 39.6185V22.8259C20.9459 21.4451 19.8266 20.3259 18.4459 20.3259H4.02014C2.63939 20.3259 1.52014 21.4451 1.52014 22.8259V26.9014M59.9799 63.0625H29.2735C27.8928 63.0625 26.7735 61.9432 26.7735 60.5625V22.8259C26.7735 21.4451 27.8928 20.3259 29.2735 20.3259H59.9799C61.3606 20.3259 62.4799 21.4451 62.4799 22.8259V60.5625C62.4799 61.9432 61.3606 63.0625 59.9799 63.0625Z" stroke="#F06A6A" stroke-width="2" stroke-miterlimit="10" stroke-linecap="round" stroke-linejoin="round"/>
<path d="M35.9915 38.2289C36.9666 42.0901 40.4625 44.9481 44.6267 44.9481C49.5459 44.9481 53.5335 40.9605 53.5335 36.0414C53.5335 31.1223 49.5459 27.1346 44.6267 27.1346C40.4626 27.1346 36.9667 29.9926 35.9915 33.8539M52.767 56.5873H36.4864C34.8515 56.5873 33.5262 55.262 33.5262 53.6271C33.5262 51.9923 34.8515 50.667 36.4864 50.667H52.767C54.4019 50.667 55.7271 51.9923 55.7271 53.6271C55.7271 55.262 54.4019 56.5873 52.767 56.5873Z" stroke="#F06A6A" stroke-width="2" stroke-miterlimit="10" stroke-linecap="round" stroke-linejoin="round"/>
</g>
<defs>
<clipPath id="clip0_15513_379">
<rect width="64" height="64" fill="white"/>
</clipPath>
</defs>
</svg>
