<svg width="64" height="64" viewBox="0 0 64 64" fill="none" xmlns="http://www.w3.org/2000/svg">
<path d="M58.1819 50.2304H5.81821C3.10306 50.2304 0.969727 48.0971 0.969727 45.382V15.4183C0.969727 12.7032 3.10306 10.5698 5.81821 10.5698H6.20609C6.78791 10.5698 7.17579 10.9577 7.17579 11.5395C7.17579 12.1213 6.78791 12.5092 6.20609 12.5092H5.81821C4.16973 12.5092 2.90912 13.7698 2.90912 15.4183V45.382C2.90912 47.0304 4.16973 48.291 5.81821 48.291H58.1819C59.8303 48.291 61.0909 47.0304 61.0909 45.382V15.4183C61.0909 13.7698 59.8303 12.5092 58.1819 12.5092H28.3152C27.7334 12.5092 27.3455 12.1213 27.3455 11.5395C27.3455 10.9577 27.7334 10.5698 28.3152 10.5698H58.1819C60.897 10.5698 63.0303 12.7032 63.0303 15.4183V45.382C63.0303 48.0971 60.897 50.2304 58.1819 50.2304Z" fill="#F06A6A"/>
<path d="M62.0606 44.3151H1.93942C1.35761 44.3151 0.969727 43.9272 0.969727 43.3454C0.969727 42.7636 1.35761 42.3757 1.93942 42.3757H62.0606C62.6425 42.3757 63.0303 42.7636 63.0303 43.3454C63.0303 43.9272 62.6425 44.3151 62.0606 44.3151ZM38.6909 56.5333H25.3091C24.7273 56.5333 24.3394 56.1454 24.3394 55.5636V49.2606C24.3394 48.6788 24.7273 48.2909 25.3091 48.2909H38.6909C39.2728 48.2909 39.6606 48.6788 39.6606 49.2606V55.5636C39.6606 56.1454 39.2728 56.5333 38.6909 56.5333ZM26.2788 54.5939H37.7212V50.2303H26.2788V54.5939Z" fill="#F06A6A"/>
<path d="M42.8606 62.9334H21.1394C19.7819 62.9334 18.7152 61.8667 18.7152 60.5092V57.0183C18.7152 55.6607 19.7819 54.594 21.1394 54.594H42.8606C44.2182 54.594 45.2849 55.6607 45.2849 57.0183V60.5092C45.2849 61.8667 44.2182 62.9334 42.8606 62.9334ZM21.1394 56.5334C20.9455 56.5334 20.6546 56.8243 20.6546 57.0183V60.5092C20.6546 60.7031 20.7516 60.994 21.1394 60.994H42.8606C43.0546 60.994 43.3455 60.897 43.3455 60.5092V57.0183C43.3455 56.8243 43.2485 56.5334 42.8606 56.5334H21.1394ZM33.4546 47.3213H30.5455C29.9637 47.3213 29.5758 46.9334 29.5758 46.3516C29.5758 45.7698 29.9637 45.3819 30.5455 45.3819H33.4546C34.0364 45.3819 34.4243 45.7698 34.4243 46.3516C34.4243 46.9334 34.0364 47.3213 33.4546 47.3213ZM17.2606 24.7273C16.2909 24.7273 15.4182 24.6304 14.5455 24.4364C14.0606 24.3395 13.7697 23.8546 13.8667 23.3698C14.0606 22.3031 13.7697 21.7213 13.4788 21.5273C13.2849 21.4304 12.7031 21.7213 12.1212 22.497C11.8303 22.8849 11.2485 22.9819 10.8606 22.788C9.4061 21.8183 8.24246 20.5576 7.36973 19.1031C7.07882 18.7152 7.27276 18.1334 7.66064 17.8425C8.53337 17.1637 8.72731 16.5819 8.72731 16.388C8.63034 16.194 8.04852 15.9031 6.98186 15.9031C6.49701 15.9031 6.01216 15.6122 5.91519 15.1273C5.62428 13.3819 5.62428 11.6364 6.01216 10.0849C6.10913 9.60007 6.59398 9.30916 7.07883 9.40613C7.95155 9.40613 8.63034 9.11522 8.72731 8.92128C8.82428 8.72734 8.53337 8.04856 7.75761 7.46674C7.36973 7.17583 7.27276 6.59401 7.56367 6.20613C8.53337 4.75159 9.79398 3.58795 11.2485 2.71522C11.6364 2.42431 12.2182 2.61825 12.5091 3.00613C13.0909 3.87886 13.7697 4.0728 13.9637 4.0728C14.1576 3.87886 14.5455 3.20007 14.4485 2.13341C14.4485 1.64856 14.7394 1.16371 15.2243 1.06674C16.9697 0.77583 18.7152 0.77583 20.2667 1.16371C20.7516 1.26068 21.0425 1.74553 20.9455 2.23038C20.7516 3.29704 21.0425 3.87886 21.3334 4.0728C21.5273 4.16977 22.1091 3.87886 22.6909 3.1031C22.9819 2.71522 23.5637 2.61825 23.9516 2.81219C25.4061 3.78189 26.5697 5.0425 27.4425 6.49704C27.7334 6.88492 27.5394 7.46674 27.1516 7.75765C26.2788 8.43644 26.0849 9.01825 26.0849 9.21219C26.1819 9.40613 26.7637 9.69704 27.7334 9.60007C28.2182 9.5031 28.7031 9.89098 28.8 10.3758C29.0909 12.1213 29.0909 13.8667 28.7031 15.4183C28.6061 15.9031 28.1213 16.194 27.6364 16.097C26.5697 15.9031 25.9879 16.194 25.794 16.4849C25.6 16.9698 26.1819 17.6486 26.7637 18.0364C27.1516 18.3273 27.2485 18.9092 27.0546 19.297C26.0849 20.7516 24.8243 21.9152 23.3697 22.788C22.9819 23.0789 22.4 22.8849 22.1091 22.497C21.6243 21.7213 20.9455 21.3334 20.5576 21.5273C20.3637 21.6243 20.0728 22.2061 20.1697 23.2728C20.1697 23.7576 19.8788 24.2425 19.394 24.3395C18.8122 24.6304 18.0364 24.7273 17.2606 24.7273ZM15.8061 22.691C16.6788 22.788 17.5516 22.8849 18.4243 22.691C18.5212 21.3334 19.2 20.2667 20.0728 19.8789C21.1394 19.491 22.3031 19.8789 23.2728 20.8486C24.0485 20.3637 24.6303 19.7819 25.2122 19.1031C24.2425 18.1334 23.9516 16.8728 24.3394 15.8061C24.8243 14.8364 25.8909 14.2546 27.2485 14.2546C27.3455 13.3819 27.4425 12.5092 27.3455 11.6364C25.9879 11.6364 24.9212 10.9576 24.5334 9.98795C24.1455 9.01825 24.5334 7.85462 25.5031 6.88492C25.0182 6.10916 24.4364 5.52734 23.7576 4.94553C22.7879 5.91522 21.5273 6.3031 20.5576 5.81825C19.5879 5.33341 19.1031 4.26674 19.1031 2.90916C18.2303 2.81219 17.3576 2.71522 16.4849 2.90916C16.3879 4.36371 15.8061 5.43038 14.7394 5.81825C13.7697 6.20613 12.6061 5.81825 11.6364 4.84856C10.8606 5.33341 10.2788 5.91522 9.69701 6.59401C10.6667 7.56371 11.0546 8.82432 10.5697 9.79401C10.0849 10.7637 9.01822 11.2486 7.66064 11.2486C7.56367 12.1213 7.4667 12.994 7.66064 13.8667C9.01822 13.9637 10.0849 14.5455 10.4728 15.5152C10.8606 16.4849 10.4728 17.6486 9.50307 18.6183C9.98792 19.394 10.5697 19.9758 11.2485 20.5576C12.2182 19.588 13.4788 19.2001 14.4485 19.6849C15.2243 20.2667 15.8061 21.3334 15.8061 22.691Z" fill="#F06A6A"/>
<path d="M17.3576 19.3941C15.6345 19.3941 13.982 18.7096 12.7636 17.4912C11.5452 16.2727 10.8607 14.6202 10.8607 12.8971C10.8607 11.174 11.5452 9.52148 12.7636 8.30307C13.982 7.08465 15.6345 6.40015 17.3576 6.40015C19.0807 6.40015 20.7333 7.08465 21.9517 8.30307C23.1701 9.52148 23.8546 11.174 23.8546 12.8971C23.8546 14.6202 23.1701 16.2727 21.9517 17.4912C20.7333 18.7096 19.0807 19.3941 17.3576 19.3941ZM17.3576 8.33954C14.8364 8.33954 12.8001 10.3759 12.8001 12.8971C12.8001 15.4183 14.8364 17.4547 17.3576 17.4547C19.8788 17.4547 21.9152 15.4183 21.9152 12.8971C21.9152 10.3759 19.8788 8.33954 17.3576 8.33954ZM55.4667 39.9517H35.0061C33.0667 39.9517 31.6122 38.4971 31.6122 36.5577V19.0062C31.6122 17.0668 33.0667 15.6123 35.0061 15.6123H55.5637C57.5031 15.6123 58.9576 17.0668 58.9576 19.0062V36.6547C58.8607 38.4971 57.3091 39.9517 55.4667 39.9517ZM35.0061 17.5517C34.2304 17.5517 33.5516 18.2304 33.5516 19.0062V36.5577C33.5516 37.3335 34.2304 38.0123 35.0061 38.0123H55.4667C56.2425 38.0123 56.9213 37.4305 57.0182 36.5577V19.0062C57.0182 18.2304 56.3394 17.5517 55.5637 17.5517H35.0061Z" fill="#F06A6A"/>
<path d="M57.8909 24.0486H32.5818C32 24.0486 31.6121 23.6607 31.6121 23.0789C31.6121 22.4971 32 22.1092 32.5818 22.1092H57.8909C58.4727 22.1092 58.8606 22.4971 58.8606 23.0789C58.8606 23.6607 58.4727 24.0486 57.8909 24.0486ZM46.3515 20.8486H35.8788C35.297 20.8486 34.9091 20.4607 34.9091 19.8789C34.9091 19.2971 35.297 18.9092 35.8788 18.9092H46.3515C46.9333 18.9092 47.3212 19.2971 47.3212 19.8789C47.3212 20.4607 46.9333 20.8486 46.3515 20.8486ZM50.4242 20.8486H49.3576C48.7758 20.8486 48.3879 20.4607 48.3879 19.8789C48.3879 19.2971 48.7758 18.9092 49.3576 18.9092H50.4242C51.0061 18.9092 51.3939 19.2971 51.3939 19.8789C51.3939 20.4607 51.0061 20.8486 50.4242 20.8486ZM54.5939 20.8486H53.5273C52.9455 20.8486 52.5576 20.4607 52.5576 19.8789C52.5576 19.2971 52.9455 18.9092 53.5273 18.9092H54.5939C55.1758 18.9092 55.5636 19.2971 55.5636 19.8789C55.5636 20.4607 55.1758 20.8486 54.5939 20.8486ZM41.697 34.6183C41.4061 34.6183 41.2121 34.5213 41.0182 34.3274L38.2061 31.5152C38.0121 31.3213 37.9152 31.1274 37.9152 30.8365C37.9152 30.5455 38.0121 30.3516 38.2061 30.1577L41.1152 27.3455C41.503 26.9577 42.0849 26.9577 42.4727 27.3455C42.8606 27.7334 42.8606 28.3152 42.4727 28.7031L40.2424 30.8365L42.3758 32.9698C42.7636 33.3577 42.7636 33.9395 42.3758 34.3274C42.1818 34.5213 41.9879 34.6183 41.697 34.6183ZM48.7758 34.6183C48.4848 34.6183 48.2909 34.5213 48.097 34.3274C47.7091 33.9395 47.7091 33.3577 48.097 32.9698L50.9091 30.1577C51.297 29.7698 51.8788 29.7698 52.2667 30.1577C52.6545 30.5455 52.6545 31.1274 52.2667 31.5152L49.4545 34.3274C49.2606 34.5213 49.0667 34.6183 48.7758 34.6183Z" fill="#F06A6A"/>
<path d="M51.5879 31.8062C51.394 31.8062 51.1031 31.7092 50.9091 31.5152L48.0001 28.7031C47.6122 28.3152 47.6122 27.7334 48.0001 27.3455C48.3879 26.9577 48.9698 26.9577 49.3576 27.3455L52.2667 30.1577C52.6546 30.5455 52.6546 31.1274 52.2667 31.5152C52.0728 31.7092 51.8788 31.8062 51.5879 31.8062ZM44.2182 35.588H43.9273C43.4425 35.491 43.1516 34.9092 43.2485 34.4243L45.2849 26.8607C45.3819 26.3758 45.9637 26.0849 46.4485 26.1819C46.9334 26.2789 47.2243 26.8607 47.1273 27.3455L45.1879 34.9092C44.994 35.2971 44.6061 35.588 44.2182 35.588ZM25.1152 39.9516H9.60006C7.27278 39.9516 5.43036 38.1092 5.43036 35.7819C5.43036 33.4546 7.27278 31.6122 9.60006 31.6122H25.1152C27.4425 31.6122 29.2849 33.4546 29.2849 35.7819C29.2849 38.1092 27.4425 39.9516 25.1152 39.9516ZM9.60006 33.5516C8.43642 33.5516 7.36975 34.6183 7.36975 35.7819C7.36975 36.9455 8.43642 38.0122 9.60006 38.0122H25.1152C26.2788 38.0122 27.3455 36.9455 27.3455 35.7819C27.3455 34.6183 26.2788 33.5516 25.1152 33.5516H9.60006Z" fill="#F06A6A"/>
<path d="M19.5879 36.7516H10.9576C10.3758 36.7516 9.98792 36.3638 9.98792 35.782C9.98792 35.2001 10.3758 34.8123 10.9576 34.8123H19.5879C20.1697 34.8123 20.5576 35.2001 20.5576 35.782C20.5576 36.3638 20.1697 36.7516 19.5879 36.7516Z" fill="#F06A6A"/>
</svg>
