<?xml version="1.0" encoding="UTF-8"?>
<svg id="Layer_2" data-name="Layer 2" xmlns="http://www.w3.org/2000/svg" viewBox="0 0 241.83 56.14">
  <defs>
    <style>
      .cls-1 {
        fill: #fff;
      }

      .cls-2 {
        fill: #f06a6a;
        fill-rule: evenodd;
      }
    </style>
  </defs>
  <g id="Layer_1-2" data-name="Layer 1">
    <g>
      <g>
        <path class="cls-1" d="m102.79,37.34h-2.94c-.84,0-1.16-.26-1.16-1.16V1.79c0-1.21.26-1.73,1.05-1.73.58,0,1,.42,2,1.52l14.65,17.59,14.44-17.59c1.1-1.21,1.42-1.52,2-1.52.79,0,1.05.52,1.05,1.73v34.39c0,.89-.31,1.16-1.16,1.16h-2.94c-.84,0-1.16-.26-1.16-1.16V11.71l-10.5,12.92c-.89,1.21-1.26,1.47-1.84,1.47s-.95-.26-1.84-1.47l-10.5-12.92v24.47c0,.89-.32,1.16-1.16,1.16Z"/>
        <path class="cls-1" d="m176.19,18.91c.16,10.66-8.35,19.22-19.11,19.01-10.5.21-18.95-8.24-18.8-18.8C138.13,8.46,146.69-.21,157.29,0c10.61-.16,19.06,8.3,18.9,18.9Zm-5.46.05c0-8.14-5.99-13.97-13.49-13.97s-13.49,5.93-13.49,14.07c-.16,7.88,5.99,14.02,13.39,13.86,7.4.16,13.76-6.14,13.6-13.97Z"/>
        <path class="cls-1" d="m177.61,37.34c-1,0-1.47-.26-1.47-.79,0-.21.16-.52.42-1l18.59-29.98h-16.64c-.84-.05-1.16-.32-1.16-1.16V1.74c0-.89.32-1.16,1.16-1.16h23.63c1,0,1.47.26,1.47.79,0,.21-.16.52-.42,1l-18.64,29.98h17.38c.89,0,1.21.26,1.21,1.15v2.68c0,.89-.31,1.16-1.21,1.16h-24.31Z"/>
        <path class="cls-1" d="m241.83,18.91c.16,10.66-8.35,19.22-19.11,19.01-10.5.21-18.95-8.24-18.8-18.8C203.76,8.46,212.32-.21,222.93,0c10.61-.16,19.06,8.3,18.9,18.9Zm-5.46.05c0-8.14-5.99-13.97-13.49-13.97s-13.49,5.93-13.49,14.07c-.16,7.88,5.99,14.02,13.39,13.86,7.4.16,13.76-6.14,13.6-13.97Z"/>
      </g>
      <g>
        <path class="cls-1" d="m100.77,48.39v7.42h-1.4v-7.42h-2.29v-1.19h5.96v1.19h-2.27Z"/>
        <path class="cls-1" d="m108.93,55.81v-8.6h4.8v1.19h-3.4v2.16h3.4v1.23h-3.4v2.78h3.4v1.25h-4.8Z"/>
        <path class="cls-1" d="m127.06,49.3c-.4-.34-.81-.59-1.25-.76-.44-.17-.9-.25-1.39-.25-.94,0-1.71.3-2.3.9-.59.6-.88,1.39-.88,2.35s.29,1.69.86,2.3c.57.6,1.3.91,2.17.91.51,0,1-.09,1.46-.27.46-.18.9-.45,1.33-.82v1.58c-.38.27-.79.47-1.23.61-.44.13-.92.2-1.44.2-.66,0-1.27-.11-1.83-.32-.56-.22-1.05-.53-1.47-.95-.42-.41-.74-.9-.97-1.45s-.34-1.15-.34-1.78.11-1.22.34-1.78c.23-.55.55-1.04.98-1.46.43-.42.92-.74,1.47-.96.55-.22,1.15-.33,1.79-.33.5,0,.99.07,1.45.22.46.15.9.37,1.33.67l-.08,1.41Z"/>
        <path class="cls-1" d="m133.61,55.81v-8.6h1.4v3.17h4.23v-3.17h1.4v8.6h-1.4v-4.18h-4.23v4.18h-1.4Z"/>
        <path class="cls-1" d="m147.43,55.81v-8.95l5.47,5.26c.15.15.3.31.45.48.15.17.31.36.48.57v-5.97h1.29v8.94l-5.58-5.35c-.15-.15-.29-.3-.43-.46-.14-.16-.27-.33-.4-.51v5.98h-1.29Z"/>
        <path class="cls-1" d="m170.74,51.52c0,.61-.12,1.19-.34,1.73-.23.54-.56,1.03-1,1.46-.44.43-.94.75-1.5.98-.56.23-1.14.34-1.75.34s-1.21-.11-1.77-.34c-.56-.23-1.06-.56-1.49-.98-.44-.43-.77-.91-1-1.45-.23-.54-.34-1.12-.34-1.74s.11-1.19.34-1.74c.23-.54.56-1.03,1-1.46.44-.43.94-.75,1.49-.98.56-.22,1.15-.34,1.77-.34s1.21.11,1.76.34c.55.22,1.05.55,1.49.98.44.44.77.93,1,1.47.23.55.34,1.12.34,1.73Zm-1.46,0c0-.43-.08-.85-.24-1.24-.16-.39-.39-.74-.68-1.05-.29-.3-.63-.53-1.01-.7-.38-.16-.79-.24-1.21-.24s-.83.08-1.21.24-.72.39-1.02.7c-.3.3-.53.65-.68,1.04-.16.39-.23.81-.23,1.25s.08.85.23,1.23c.16.39.38.73.68,1.04.3.31.64.54,1.02.7s.78.24,1.21.24.82-.08,1.2-.24c.38-.16.72-.39,1.02-.7.3-.31.53-.65.68-1.04.16-.39.24-.8.24-1.23Z"/>
        <path class="cls-1" d="m177.16,55.81v-8.6h1.4v7.35h3.13v1.25h-4.53Z"/>
        <path class="cls-1" d="m196.03,51.52c0,.61-.12,1.19-.34,1.73-.23.54-.56,1.03-1,1.46-.44.43-.94.75-1.5.98-.56.23-1.14.34-1.75.34s-1.21-.11-1.77-.34c-.56-.23-1.06-.56-1.49-.98-.44-.43-.77-.91-1-1.45-.23-.54-.34-1.12-.34-1.74s.11-1.19.34-1.74c.23-.54.56-1.03,1-1.46.44-.43.94-.75,1.49-.98.56-.22,1.15-.34,1.77-.34s1.21.11,1.76.34c.55.22,1.05.55,1.49.98.44.44.77.93,1,1.47.23.55.34,1.12.34,1.73Zm-1.46,0c0-.43-.08-.85-.24-1.24-.16-.39-.39-.74-.68-1.05-.29-.3-.63-.53-1.01-.7-.38-.16-.79-.24-1.21-.24s-.83.08-1.21.24-.72.39-1.02.7c-.3.3-.53.65-.68,1.04-.16.39-.23.81-.23,1.25s.08.85.23,1.23c.16.39.38.73.68,1.04.3.31.64.54,1.02.7s.78.24,1.21.24.82-.08,1.2-.24c.38-.16.72-.39,1.02-.7.3-.31.53-.65.68-1.04.16-.39.24-.8.24-1.23Z"/>
        <path class="cls-1" d="m207.21,51.4h3.41c0,.06,0,.14,0,.25.01.28.02.47.02.56,0,1.21-.35,2.15-1.04,2.82s-1.67,1-2.93,1c-.71,0-1.33-.1-1.89-.31-.55-.21-1.04-.52-1.45-.94-.41-.42-.72-.9-.94-1.46s-.33-1.16-.33-1.8.11-1.25.33-1.8.55-1.03.98-1.45c.42-.41.91-.73,1.48-.94.56-.22,1.17-.32,1.81-.32.68,0,1.28.12,1.82.37.53.25,1.01.62,1.43,1.13l-1.02.77c-.29-.34-.62-.59-.98-.75s-.77-.25-1.22-.25c-.93,0-1.69.3-2.28.9-.59.6-.88,1.37-.88,2.33s.29,1.76.88,2.37c.59.6,1.36.91,2.3.91.8,0,1.43-.19,1.89-.56.46-.37.69-.88.69-1.52v-.12h-2.07v-1.18Z"/>
        <path class="cls-1" d="m216.95,55.81v-8.6h1.4v8.6h-1.4Z"/>
        <path class="cls-1" d="m225.18,55.81v-8.6h4.8v1.19h-3.4v2.16h3.4v1.23h-3.4v2.78h3.4v1.25h-4.8Z"/>
        <path class="cls-1" d="m235.91,54.09l1.12-.52c.11.38.3.68.58.88.28.2.64.3,1.08.3.42,0,.75-.12.99-.35.24-.23.37-.54.37-.93,0-.51-.42-.96-1.26-1.35-.12-.06-.21-.1-.27-.13-.95-.46-1.58-.88-1.9-1.25-.32-.37-.47-.83-.47-1.37,0-.7.24-1.27.71-1.7.48-.44,1.1-.65,1.87-.65.63,0,1.17.12,1.59.37.43.24.72.6.89,1.06l-1.09.56c-.17-.27-.36-.47-.57-.59-.21-.12-.44-.19-.71-.19-.38,0-.67.1-.9.29s-.33.46-.33.79c0,.52.49,1,1.46,1.45.07.04.13.06.18.08.85.39,1.43.77,1.75,1.15.32.37.48.84.48,1.4,0,.82-.26,1.46-.77,1.94s-1.21.72-2.08.72c-.73,0-1.33-.17-1.8-.51-.47-.34-.78-.82-.92-1.45Z"/>
      </g>
      <path class="cls-2" d="m6.69,1.33c-2.1,0-3.8,1.7-3.8,3.8s1.7,3.8,3.8,3.8,3.8-1.7,3.8-3.8-1.7-3.8-3.8-3.8"/>
      <path class="cls-2" d="m14.82,9.97c-1.82,0-3.29,1.47-3.29,3.29s1.47,3.29,3.29,3.29,3.29-1.47,3.29-3.29-1.47-3.29-3.29-3.29Z"/>
      <path class="cls-2" d="m22.4,17.99c-1.57,0-2.85,1.28-2.85,2.85s1.28,2.85,2.85,2.85,2.85-1.28,2.85-2.85-1.28-2.85-2.85-2.85Z"/>
      <path class="cls-2" d="m28.74,24.85c-1.28,0-2.33,1.04-2.33,2.33s1.04,2.33,2.33,2.33,2.33-1.04,2.33-2.33-1.04-2.33-2.33-2.33Z"/>
      <path class="cls-2" d="m34.16,30.6c-1.11,0-2,.9-2,2s.9,2,2,2,2-.9,2-2-.9-2-2-2Z"/>
      <path class="cls-2" d="m3.8,13.24c-2.1,0-3.8,1.7-3.8,3.8s1.7,3.8,3.8,3.8,3.8-1.7,3.8-3.8-1.7-3.8-3.8-3.8Z"/>
      <path class="cls-2" d="m11.93,21.88c-1.82,0-3.29,1.47-3.29,3.29s1.47,3.29,3.29,3.29,3.29-1.47,3.29-3.29-1.47-3.29-3.29-3.29Z"/>
      <path class="cls-2" d="m19.51,29.9c-1.57,0-2.85,1.28-2.85,2.85s1.28,2.85,2.85,2.85,2.85-1.28,2.85-2.85-1.28-2.85-2.85-2.85Z"/>
      <path class="cls-2" d="m25.84,36.76c-1.28,0-2.33,1.04-2.33,2.33s1.04,2.33,2.33,2.33,2.33-1.04,2.33-2.33-1.04-2.33-2.33-2.33Z"/>
      <path class="cls-2" d="m31.27,42.51c-1.11,0-2,.9-2,2s.9,2,2,2,2-.9,2-2-.9-2-2-2Z"/>
      <path class="cls-2" d="m3.8,29.9c-1.57,0-2.85,1.28-2.85,2.85s1.28,2.85,2.85,2.85,2.85-1.28,2.85-2.85-1.28-2.85-2.85-2.85Z"/>
      <path class="cls-2" d="m11.93,36.76c-1.28,0-2.33,1.04-2.33,2.33s1.04,2.33,2.33,2.33,2.33-1.04,2.33-2.33-1.04-2.33-2.33-2.33Z"/>
      <path class="cls-2" d="m3.8,42.51c-1.11,0-2,.9-2,2s.9,2,2,2,2-.9,2-2-.9-2-2-2Z"/>
      <path class="cls-2" d="m3.44,52.22c-.68,0-1.24.56-1.24,1.24s.56,1.24,1.24,1.24,1.24-.56,1.24-1.24-.56-1.24-1.24-1.24Z"/>
      <path class="cls-2" d="m11.93,51.46c-1.11,0-2,.9-2,2s.9,2,2,2,2-.9,2-2-.9-2-2-2Z"/>
      <path class="cls-2" d="m19.51,42.51c-1.11,0-2,.9-2,2s.9,2,2,2,2-.9,2-2-.9-2-2-2Z"/>
      <path class="cls-2" d="m61.63,1.33c2.1,0,3.8,1.7,3.8,3.8s-1.7,3.8-3.8,3.8-3.8-1.7-3.8-3.8,1.7-3.8,3.8-3.8Z"/>
      <path class="cls-2" d="m53.5,9.97c1.82,0,3.29,1.47,3.29,3.29s-1.47,3.29-3.29,3.29-3.29-1.47-3.29-3.29,1.47-3.29,3.29-3.29Z"/>
      <path class="cls-2" d="m45.92,17.99c1.57,0,2.85,1.28,2.85,2.85s-1.28,2.85-2.85,2.85-2.85-1.28-2.85-2.85,1.28-2.85,2.85-2.85Z"/>
      <path class="cls-2" d="m39.58,24.85c1.28,0,2.33,1.04,2.33,2.33s-1.04,2.33-2.33,2.33-2.33-1.04-2.33-2.33,1.04-2.33,2.33-2.33Z"/>
      <path class="cls-2" d="m64.52,13.24c2.1,0,3.8,1.7,3.8,3.8s-1.7,3.8-3.8,3.8-3.8-1.7-3.8-3.8,1.7-3.8,3.8-3.8Z"/>
      <path class="cls-2" d="m56.39,21.88c1.82,0,3.29,1.47,3.29,3.29s-1.47,3.29-3.29,3.29-3.29-1.47-3.29-3.29,1.47-3.29,3.29-3.29Z"/>
      <path class="cls-2" d="m48.81,29.9c1.57,0,2.85,1.28,2.85,2.85s-1.28,2.85-2.85,2.85-2.85-1.28-2.85-2.85,1.28-2.85,2.85-2.85Z"/>
      <path class="cls-2" d="m42.48,36.76c1.28,0,2.33,1.04,2.33,2.33s-1.04,2.33-2.33,2.33-2.33-1.04-2.33-2.33,1.04-2.33,2.33-2.33Z"/>
      <path class="cls-2" d="m37.05,42.51c1.11,0,2,.9,2,2s-.9,2-2,2-2-.9-2-2,.9-2,2-2Z"/>
      <path class="cls-2" d="m34.1,37.06c1.11,0,2,.9,2,2s-.9,2-2,2-2-.9-2-2,.9-2,2-2Z"/>
      <path class="cls-2" d="m64.52,29.9c1.57,0,2.85,1.28,2.85,2.85s-1.28,2.85-2.85,2.85-2.85-1.28-2.85-2.85,1.28-2.85,2.85-2.85Z"/>
      <path class="cls-2" d="m56.39,36.76c1.28,0,2.33,1.04,2.33,2.33s-1.04,2.33-2.33,2.33-2.33-1.04-2.33-2.33,1.04-2.33,2.33-2.33Z"/>
      <path class="cls-2" d="m64.52,42.51c1.11,0,2,.9,2,2s-.9,2-2,2-2-.9-2-2,.9-2,2-2Z"/>
      <path class="cls-2" d="m64.88,52.22c.69,0,1.24.56,1.24,1.24s-.56,1.24-1.24,1.24-1.24-.56-1.24-1.24.56-1.24,1.24-1.24Z"/>
      <path class="cls-2" d="m56.39,51.46c1.11,0,2,.9,2,2s-.9,2-2,2-2-.9-2-2,.9-2,2-2Z"/>
      <path class="cls-2" d="m48.81,42.51c1.11,0,2,.9,2,2s-.9,2-2,2-2-.9-2-2,.9-2,2-2Z"/>
      <g>
        <path class="cls-1" d="m102.79,37.34h-2.94c-.84,0-1.16-.26-1.16-1.16V1.79c0-1.21.26-1.73,1.05-1.73.58,0,1,.42,2,1.52l14.65,17.59,14.44-17.59c1.1-1.21,1.42-1.52,2-1.52.79,0,1.05.52,1.05,1.73v34.39c0,.89-.31,1.16-1.16,1.16h-2.94c-.84,0-1.16-.26-1.16-1.16V11.71l-10.5,12.92c-.89,1.21-1.26,1.47-1.84,1.47s-.95-.26-1.84-1.47l-10.5-12.92v24.47c0,.89-.32,1.16-1.16,1.16Z"/>
        <path class="cls-1" d="m176.19,18.91c.16,10.66-8.35,19.22-19.11,19.01-10.5.21-18.95-8.24-18.8-18.8C138.13,8.46,146.69-.21,157.29,0c10.61-.16,19.06,8.3,18.9,18.9Zm-5.46.05c0-8.14-5.99-13.97-13.49-13.97s-13.49,5.93-13.49,14.07c-.16,7.88,5.99,14.02,13.39,13.86,7.4.16,13.76-6.14,13.6-13.97Z"/>
        <path class="cls-1" d="m177.61,37.34c-1,0-1.47-.26-1.47-.79,0-.21.16-.52.42-1l18.59-29.98h-16.64c-.84-.05-1.16-.32-1.16-1.16V1.74c0-.89.32-1.16,1.16-1.16h23.63c1,0,1.47.26,1.47.79,0,.21-.16.52-.42,1l-18.64,29.98h17.38c.89,0,1.21.26,1.21,1.15v2.68c0,.89-.31,1.16-1.21,1.16h-24.31Z"/>
        <path class="cls-1" d="m241.83,18.91c.16,10.66-8.35,19.22-19.11,19.01-10.5.21-18.95-8.24-18.8-18.8C203.76,8.46,212.32-.21,222.93,0c10.61-.16,19.06,8.3,18.9,18.9Zm-5.46.05c0-8.14-5.99-13.97-13.49-13.97s-13.49,5.93-13.49,14.07c-.16,7.88,5.99,14.02,13.39,13.86,7.4.16,13.76-6.14,13.6-13.97Z"/>
      </g>
      <g>
        <path class="cls-1" d="m100.77,48.39v7.42h-1.4v-7.42h-2.29v-1.19h5.96v1.19h-2.27Z"/>
        <path class="cls-1" d="m108.93,55.81v-8.6h4.8v1.19h-3.4v2.16h3.4v1.23h-3.4v2.78h3.4v1.25h-4.8Z"/>
        <path class="cls-1" d="m127.06,49.3c-.4-.34-.81-.59-1.25-.76-.44-.17-.9-.25-1.39-.25-.94,0-1.71.3-2.3.9-.59.6-.88,1.39-.88,2.35s.29,1.69.86,2.3c.57.6,1.3.91,2.17.91.51,0,1-.09,1.46-.27.46-.18.9-.45,1.33-.82v1.58c-.38.27-.79.47-1.23.61-.44.13-.92.2-1.44.2-.66,0-1.27-.11-1.83-.32-.56-.22-1.05-.53-1.47-.95-.42-.41-.74-.9-.97-1.45s-.34-1.15-.34-1.78.11-1.22.34-1.78c.23-.55.55-1.04.98-1.46.43-.42.92-.74,1.47-.96.55-.22,1.15-.33,1.79-.33.5,0,.99.07,1.45.22.46.15.9.37,1.33.67l-.08,1.41Z"/>
        <path class="cls-1" d="m133.61,55.81v-8.6h1.4v3.17h4.23v-3.17h1.4v8.6h-1.4v-4.18h-4.23v4.18h-1.4Z"/>
        <path class="cls-1" d="m147.43,55.81v-8.95l5.47,5.26c.15.15.3.31.45.48.15.17.31.36.48.57v-5.97h1.29v8.94l-5.58-5.35c-.15-.15-.29-.3-.43-.46-.14-.16-.27-.33-.4-.51v5.98h-1.29Z"/>
        <path class="cls-1" d="m170.74,51.52c0,.61-.12,1.19-.34,1.73-.23.54-.56,1.03-1,1.46-.44.43-.94.75-1.5.98-.56.23-1.14.34-1.75.34s-1.21-.11-1.77-.34c-.56-.23-1.06-.56-1.49-.98-.44-.43-.77-.91-1-1.45-.23-.54-.34-1.12-.34-1.74s.11-1.19.34-1.74c.23-.54.56-1.03,1-1.46.44-.43.94-.75,1.49-.98.56-.22,1.15-.34,1.77-.34s1.21.11,1.76.34c.55.22,1.05.55,1.49.98.44.44.77.93,1,1.47.23.55.34,1.12.34,1.73Zm-1.46,0c0-.43-.08-.85-.24-1.24-.16-.39-.39-.74-.68-1.05-.29-.3-.63-.53-1.01-.7-.38-.16-.79-.24-1.21-.24s-.83.08-1.21.24-.72.39-1.02.7c-.3.3-.53.65-.68,1.04-.16.39-.23.81-.23,1.25s.08.85.23,1.23c.16.39.38.73.68,1.04.3.31.64.54,1.02.7s.78.24,1.21.24.82-.08,1.2-.24c.38-.16.72-.39,1.02-.7.3-.31.53-.65.68-1.04.16-.39.24-.8.24-1.23Z"/>
        <path class="cls-1" d="m177.16,55.81v-8.6h1.4v7.35h3.13v1.25h-4.53Z"/>
        <path class="cls-1" d="m196.03,51.52c0,.61-.12,1.19-.34,1.73-.23.54-.56,1.03-1,1.46-.44.43-.94.75-1.5.98-.56.23-1.14.34-1.75.34s-1.21-.11-1.77-.34c-.56-.23-1.06-.56-1.49-.98-.44-.43-.77-.91-1-1.45-.23-.54-.34-1.12-.34-1.74s.11-1.19.34-1.74c.23-.54.56-1.03,1-1.46.44-.43.94-.75,1.49-.98.56-.22,1.15-.34,1.77-.34s1.21.11,1.76.34c.55.22,1.05.55,1.49.98.44.44.77.93,1,1.47.23.55.34,1.12.34,1.73Zm-1.46,0c0-.43-.08-.85-.24-1.24-.16-.39-.39-.74-.68-1.05-.29-.3-.63-.53-1.01-.7-.38-.16-.79-.24-1.21-.24s-.83.08-1.21.24-.72.39-1.02.7c-.3.3-.53.65-.68,1.04-.16.39-.23.81-.23,1.25s.08.85.23,1.23c.16.39.38.73.68,1.04.3.31.64.54,1.02.7s.78.24,1.21.24.82-.08,1.2-.24c.38-.16.72-.39,1.02-.7.3-.31.53-.65.68-1.04.16-.39.24-.8.24-1.23Z"/>
        <path class="cls-1" d="m207.21,51.4h3.41c0,.06,0,.14,0,.25.01.28.02.47.02.56,0,1.21-.35,2.15-1.04,2.82s-1.67,1-2.93,1c-.71,0-1.33-.1-1.89-.31-.55-.21-1.04-.52-1.45-.94-.41-.42-.72-.9-.94-1.46s-.33-1.16-.33-1.8.11-1.25.33-1.8.55-1.03.98-1.45c.42-.41.91-.73,1.48-.94.56-.22,1.17-.32,1.81-.32.68,0,1.28.12,1.82.37.53.25,1.01.62,1.43,1.13l-1.02.77c-.29-.34-.62-.59-.98-.75s-.77-.25-1.22-.25c-.93,0-1.69.3-2.28.9-.59.6-.88,1.37-.88,2.33s.29,1.76.88,2.37c.59.6,1.36.91,2.3.91.8,0,1.43-.19,1.89-.56.46-.37.69-.88.69-1.52v-.12h-2.07v-1.18Z"/>
        <path class="cls-1" d="m216.95,55.81v-8.6h1.4v8.6h-1.4Z"/>
        <path class="cls-1" d="m225.18,55.81v-8.6h4.8v1.19h-3.4v2.16h3.4v1.23h-3.4v2.78h3.4v1.25h-4.8Z"/>
        <path class="cls-1" d="m235.91,54.09l1.12-.52c.11.38.3.68.58.88.28.2.64.3,1.08.3.42,0,.75-.12.99-.35.24-.23.37-.54.37-.93,0-.51-.42-.96-1.26-1.35-.12-.06-.21-.1-.27-.13-.95-.46-1.58-.88-1.9-1.25-.32-.37-.47-.83-.47-1.37,0-.7.24-1.27.71-1.7.48-.44,1.1-.65,1.87-.65.63,0,1.17.12,1.59.37.43.24.72.6.89,1.06l-1.09.56c-.17-.27-.36-.47-.57-.59-.21-.12-.44-.19-.71-.19-.38,0-.67.1-.9.29s-.33.46-.33.79c0,.52.49,1,1.46,1.45.07.04.13.06.18.08.85.39,1.43.77,1.75,1.15.32.37.48.84.48,1.4,0,.82-.26,1.46-.77,1.94s-1.21.72-2.08.72c-.73,0-1.33-.17-1.8-.51-.47-.34-.78-.82-.92-1.45Z"/>
      </g>
      <path class="cls-2" d="m6.69,1.33c-2.1,0-3.8,1.7-3.8,3.8s1.7,3.8,3.8,3.8,3.8-1.7,3.8-3.8-1.7-3.8-3.8-3.8"/>
      <path class="cls-2" d="m14.82,9.97c-1.82,0-3.29,1.47-3.29,3.29s1.47,3.29,3.29,3.29,3.29-1.47,3.29-3.29-1.47-3.29-3.29-3.29Z"/>
      <path class="cls-2" d="m22.4,17.99c-1.57,0-2.85,1.28-2.85,2.85s1.28,2.85,2.85,2.85,2.85-1.28,2.85-2.85-1.28-2.85-2.85-2.85Z"/>
      <path class="cls-2" d="m28.74,24.85c-1.28,0-2.33,1.04-2.33,2.33s1.04,2.33,2.33,2.33,2.33-1.04,2.33-2.33-1.04-2.33-2.33-2.33Z"/>
      <path class="cls-2" d="m34.16,30.6c-1.11,0-2,.9-2,2s.9,2,2,2,2-.9,2-2-.9-2-2-2Z"/>
      <path class="cls-2" d="m3.8,13.24c-2.1,0-3.8,1.7-3.8,3.8s1.7,3.8,3.8,3.8,3.8-1.7,3.8-3.8-1.7-3.8-3.8-3.8Z"/>
      <path class="cls-2" d="m11.93,21.88c-1.82,0-3.29,1.47-3.29,3.29s1.47,3.29,3.29,3.29,3.29-1.47,3.29-3.29-1.47-3.29-3.29-3.29Z"/>
      <path class="cls-2" d="m19.51,29.9c-1.57,0-2.85,1.28-2.85,2.85s1.28,2.85,2.85,2.85,2.85-1.28,2.85-2.85-1.28-2.85-2.85-2.85Z"/>
      <path class="cls-2" d="m25.84,36.76c-1.28,0-2.33,1.04-2.33,2.33s1.04,2.33,2.33,2.33,2.33-1.04,2.33-2.33-1.04-2.33-2.33-2.33Z"/>
      <path class="cls-2" d="m31.27,42.51c-1.11,0-2,.9-2,2s.9,2,2,2,2-.9,2-2-.9-2-2-2Z"/>
      <path class="cls-2" d="m3.8,29.9c-1.57,0-2.85,1.28-2.85,2.85s1.28,2.85,2.85,2.85,2.85-1.28,2.85-2.85-1.28-2.85-2.85-2.85Z"/>
      <path class="cls-2" d="m11.93,36.76c-1.28,0-2.33,1.04-2.33,2.33s1.04,2.33,2.33,2.33,2.33-1.04,2.33-2.33-1.04-2.33-2.33-2.33Z"/>
      <path class="cls-2" d="m3.8,42.51c-1.11,0-2,.9-2,2s.9,2,2,2,2-.9,2-2-.9-2-2-2Z"/>
      <path class="cls-2" d="m3.44,52.22c-.68,0-1.24.56-1.24,1.24s.56,1.24,1.24,1.24,1.24-.56,1.24-1.24-.56-1.24-1.24-1.24Z"/>
      <path class="cls-2" d="m11.93,51.46c-1.11,0-2,.9-2,2s.9,2,2,2,2-.9,2-2-.9-2-2-2Z"/>
      <path class="cls-2" d="m19.51,42.51c-1.11,0-2,.9-2,2s.9,2,2,2,2-.9,2-2-.9-2-2-2Z"/>
      <path class="cls-2" d="m61.63,1.33c2.1,0,3.8,1.7,3.8,3.8s-1.7,3.8-3.8,3.8-3.8-1.7-3.8-3.8,1.7-3.8,3.8-3.8Z"/>
      <path class="cls-2" d="m53.5,9.97c1.82,0,3.29,1.47,3.29,3.29s-1.47,3.29-3.29,3.29-3.29-1.47-3.29-3.29,1.47-3.29,3.29-3.29Z"/>
      <path class="cls-2" d="m45.92,17.99c1.57,0,2.85,1.28,2.85,2.85s-1.28,2.85-2.85,2.85-2.85-1.28-2.85-2.85,1.28-2.85,2.85-2.85Z"/>
      <path class="cls-2" d="m39.58,24.85c1.28,0,2.33,1.04,2.33,2.33s-1.04,2.33-2.33,2.33-2.33-1.04-2.33-2.33,1.04-2.33,2.33-2.33Z"/>
      <path class="cls-2" d="m64.52,13.24c2.1,0,3.8,1.7,3.8,3.8s-1.7,3.8-3.8,3.8-3.8-1.7-3.8-3.8,1.7-3.8,3.8-3.8Z"/>
      <path class="cls-2" d="m56.39,21.88c1.82,0,3.29,1.47,3.29,3.29s-1.47,3.29-3.29,3.29-3.29-1.47-3.29-3.29,1.47-3.29,3.29-3.29Z"/>
      <path class="cls-2" d="m48.81,29.9c1.57,0,2.85,1.28,2.85,2.85s-1.28,2.85-2.85,2.85-2.85-1.28-2.85-2.85,1.28-2.85,2.85-2.85Z"/>
      <path class="cls-2" d="m42.48,36.76c1.28,0,2.33,1.04,2.33,2.33s-1.04,2.33-2.33,2.33-2.33-1.04-2.33-2.33,1.04-2.33,2.33-2.33Z"/>
      <path class="cls-2" d="m37.05,42.51c1.11,0,2,.9,2,2s-.9,2-2,2-2-.9-2-2,.9-2,2-2Z"/>
      <path class="cls-2" d="m34.1,37.06c1.11,0,2,.9,2,2s-.9,2-2,2-2-.9-2-2,.9-2,2-2Z"/>
      <path class="cls-2" d="m64.52,29.9c1.57,0,2.85,1.28,2.85,2.85s-1.28,2.85-2.85,2.85-2.85-1.28-2.85-2.85,1.28-2.85,2.85-2.85Z"/>
      <path class="cls-2" d="m56.39,36.76c1.28,0,2.33,1.04,2.33,2.33s-1.04,2.33-2.33,2.33-2.33-1.04-2.33-2.33,1.04-2.33,2.33-2.33Z"/>
      <path class="cls-2" d="m64.52,42.51c1.11,0,2,.9,2,2s-.9,2-2,2-2-.9-2-2,.9-2,2-2Z"/>
      <path class="cls-2" d="m64.88,52.22c.69,0,1.24.56,1.24,1.24s-.56,1.24-1.24,1.24-1.24-.56-1.24-1.24.56-1.24,1.24-1.24Z"/>
      <path class="cls-2" d="m56.39,51.46c1.11,0,2,.9,2,2s-.9,2-2,2-2-.9-2-2,.9-2,2-2Z"/>
      <path class="cls-2" d="m48.81,42.51c1.11,0,2,.9,2,2s-.9,2-2,2-2-.9-2-2,.9-2,2-2Z"/>
    </g>
  </g>
</svg>