<svg xmlns="http://www.w3.org/2000/svg" xmlns:xlink="http://www.w3.org/1999/xlink" width="375" zoomAndPan="magnify" viewBox="0 0 281.25 281.249989" height="375" preserveAspectRatio="xMidYMid meet" version="1.0"><defs><clipPath id="0c626492dd"><path d="M 0 0 L 280.503906 0 L 280.503906 280.503906 L 0 280.503906 Z M 0 0 " clip-rule="nonzero"/></clipPath><clipPath id="c3c777cdd4"><path d="M 43.148438 77.6875 L 80.785156 77.6875 L 80.785156 125.664062 L 43.148438 125.664062 Z M 43.148438 77.6875 " clip-rule="nonzero"/></clipPath><clipPath id="bbcf1b4245"><path d="M 58.34375 78 L 105.980469 78 L 105.980469 140.519531 L 58.34375 140.519531 Z M 58.34375 78 " clip-rule="nonzero"/></clipPath></defs><g clip-path="url(#0c626492dd)"><rect x="-28.125" width="337.5" fill="#05243d" y="-28.124999" height="337.499986" fill-opacity="1"/><rect x="-28.125" width="337.5" fill="#05243d" y="-28.124999" height="337.499986" fill-opacity="1"/></g><g clip-path="url(#c3c777cdd4)"><path fill="#ffffff" d="M 80.457031 78.269531 C 78.503906 77.890625 76.488281 77.6875 74.429688 77.6875 C 57.152344 77.6875 43.148438 91.691406 43.148438 108.96875 C 43.148438 115.074219 44.898438 120.773438 47.925781 125.589844 L 80.457031 78.269531 " fill-opacity="1" fill-rule="nonzero"/></g><g clip-path="url(#bbcf1b4245)"><path fill="#ffffff" d="M 81.558594 78.503906 L 82.796875 86.195312 L 87.097656 112.894531 L 92.757812 88.058594 L 93.742188 94.394531 L 97.925781 121.394531 L 92.667969 100.054688 L 88.539062 121.871094 L 86.957031 130.242188 L 80.117188 91.660156 L 58.464844 135.875 C 63.136719 138.652344 68.597656 140.25 74.429688 140.25 C 91.703125 140.25 105.707031 126.242188 105.707031 108.96875 C 105.707031 94.144531 95.398438 81.730469 81.558594 78.503906 " fill-opacity="1" fill-rule="nonzero"/></g><path fill="#ffffff" d="M 135.824219 114.894531 C 135.785156 115.089844 135.710938 115.46875 135.75 115.582031 C 135.863281 115.316406 135.863281 114.9375 136.054688 114.742188 C 136.054688 114.972656 135.824219 115.238281 135.9375 115.46875 C 137.503906 109.785156 140.363281 105.398438 142.765625 100.628906 C 142.765625 100.328125 142.730469 100.25 142.804688 100.058594 C 142.765625 99.980469 142.691406 99.90625 142.730469 99.792969 C 142.5 99.792969 142.539062 99.488281 142.347656 99.640625 C 142.308594 99.449219 142.15625 99.414062 141.964844 99.371094 C 141.964844 99.332031 142.003906 99.296875 142.003906 99.257812 C 141.8125 99.296875 141.8125 99.21875 141.699219 99.179688 C 141.699219 99.257812 141.699219 99.296875 141.621094 99.332031 C 141.507812 99.257812 141.777344 99.144531 141.582031 99.105469 C 141.507812 99.144531 141.546875 99.257812 141.46875 99.332031 C 141.429688 99.332031 141.394531 99.296875 141.394531 99.296875 C 141.316406 99.257812 141.355469 99.332031 141.28125 99.371094 C 141.242188 99.332031 141.242188 99.296875 141.242188 99.257812 C 141.128906 99.296875 141.128906 99.296875 141.015625 99.257812 C 141.050781 99.5625 140.707031 99.488281 140.632812 99.679688 C 140.554688 99.679688 140.554688 99.601562 140.480469 99.640625 C 140.058594 99.945312 139.601562 100.25 139.257812 100.628906 C 139.332031 100.628906 139.371094 100.628906 139.371094 100.707031 C 139.21875 100.863281 138.992188 100.898438 138.800781 101.050781 C 138.800781 101.050781 138.800781 101.089844 138.800781 101.128906 C 138.914062 101.089844 138.839844 101.203125 138.800781 101.203125 C 138.800781 101.203125 138.800781 101.242188 138.761719 101.242188 C 138.761719 101.28125 138.761719 101.355469 138.722656 101.394531 C 138.722656 101.316406 138.722656 101.242188 138.761719 101.242188 C 138.761719 101.203125 138.761719 101.164062 138.800781 101.203125 C 138.800781 101.164062 138.800781 101.128906 138.800781 101.128906 C 138.722656 101.128906 138.648438 101.203125 138.609375 101.316406 C 138.722656 101.316406 138.570312 101.46875 138.609375 101.316406 C 138.570312 101.316406 138.570312 101.316406 138.53125 101.316406 C 138.496094 101.316406 138.496094 101.394531 138.457031 101.429688 C 138.417969 101.585938 138.570312 101.355469 138.53125 101.546875 C 138.417969 101.585938 138.382812 101.546875 138.265625 101.625 C 138.230469 101.699219 138.34375 101.664062 138.34375 101.738281 C 138.265625 101.738281 138.265625 101.851562 138.152344 101.851562 C 138.152344 101.8125 138.191406 101.8125 138.191406 101.777344 C 138.074219 101.777344 138.074219 101.890625 137.921875 101.929688 C 137.351562 102.84375 136.472656 103.453125 135.9375 104.445312 C 135.292969 105.210938 134.566406 105.933594 134.035156 106.808594 C 132.773438 107.878906 131.972656 109.441406 130.523438 110.359375 C 130.449219 110.167969 130.523438 109.898438 130.5625 109.746094 C 130.21875 109.824219 130.601562 110.585938 130.179688 110.472656 C 130.179688 110.359375 130.332031 110.359375 130.253906 110.28125 C 130.21875 110.28125 130.21875 110.207031 130.253906 110.28125 C 130.332031 110.242188 130.253906 110.054688 130.332031 110.054688 C 130.292969 110.054688 130.21875 110.054688 130.21875 110.015625 C 130.523438 109.785156 130.371094 109.328125 130.636719 109.058594 C 130.636719 108.910156 130.636719 108.832031 130.714844 108.792969 C 130.714844 108.679688 130.714844 108.640625 130.789062 108.640625 C 130.789062 108.605469 130.789062 108.566406 130.789062 108.527344 C 130.828125 108.566406 130.867188 108.566406 130.941406 108.527344 C 130.941406 108.375 131.171875 108.144531 131.019531 108.109375 C 131.019531 108.109375 131.019531 108.183594 130.980469 108.183594 C 130.980469 108.222656 130.902344 108.183594 130.980469 108.183594 C 130.980469 108.144531 130.980469 108.109375 131.019531 108.109375 C 131.136719 107.878906 131.171875 107.496094 131.324219 107.609375 C 132.125 105.398438 133.460938 103.566406 134.148438 101.394531 C 134.035156 101.203125 134.148438 101.164062 134.183594 100.976562 C 133.957031 100.898438 133.917969 100.667969 133.765625 100.554688 C 133.535156 100.59375 133.347656 100.328125 133.195312 100.210938 C 133 100.210938 132.699219 100.136719 132.507812 100.097656 C 131.210938 100.59375 130.410156 101.625 129.570312 102.578125 C 129.492188 102.539062 129.453125 102.578125 129.417969 102.613281 C 129.417969 102.804688 129.265625 102.878906 129.113281 102.921875 C 129.113281 102.960938 129.113281 103.035156 129.113281 103.113281 C 129 103.074219 129 103.148438 128.921875 103.1875 C 128.730469 103.683594 128.15625 103.875 127.96875 104.445312 C 127.851562 104.410156 127.851562 104.523438 127.777344 104.5625 C 127.320312 105.285156 126.902344 106.046875 126.328125 106.695312 C 126.019531 107.308594 125.527344 107.726562 125.296875 108.449219 C 124.765625 109.097656 124.535156 110.089844 124.117188 110.890625 C 124.15625 110.890625 124.15625 110.890625 124.191406 110.890625 C 124.191406 110.855469 124.191406 110.816406 124.230469 110.855469 C 124.230469 110.816406 124.269531 110.777344 124.269531 110.855469 C 124.269531 110.855469 124.230469 110.855469 124.230469 110.855469 C 124.230469 110.855469 124.230469 110.890625 124.191406 110.890625 C 124.039062 111.121094 124.003906 111.503906 124.230469 111.730469 C 124.15625 111.730469 124.039062 111.882812 124.117188 111.957031 C 124.15625 111.921875 124.191406 111.730469 124.230469 111.84375 C 124.003906 112.378906 124.34375 112.914062 124.535156 113.40625 C 124.726562 113.292969 124.878906 113.675781 125.183594 113.523438 C 126.019531 111.84375 126.785156 110.320312 127.738281 108.945312 C 127.738281 108.984375 127.738281 108.984375 127.777344 109.023438 C 128.082031 108.03125 128.617188 107.269531 129.152344 106.542969 C 129.152344 106.46875 129.1875 106.507812 129.152344 106.542969 C 128.769531 107.535156 128.273438 108.605469 128.195312 109.824219 C 128.234375 109.824219 128.3125 109.824219 128.3125 109.898438 C 128.273438 110.089844 128.425781 110.207031 128.351562 110.433594 C 128.882812 111.464844 129.722656 112.226562 130.980469 112.570312 C 131.058594 112.492188 131.171875 112.53125 131.210938 112.457031 C 131.703125 112.378906 132.011719 112.152344 132.238281 111.84375 C 132.734375 111.691406 133.152344 111.042969 133.574219 110.929688 C 133.652344 110.777344 133.652344 110.585938 133.765625 110.507812 C 133.6875 110.507812 133.6875 110.472656 133.726562 110.433594 C 133.765625 110.433594 133.765625 110.433594 133.765625 110.507812 C 135.0625 109.136719 136.28125 107.6875 137.386719 106.125 C 137.386719 106.277344 137.351562 106.238281 137.386719 106.425781 C 137.199219 106.425781 137.082031 106.734375 137.121094 106.886719 C 137.121094 106.808594 137.234375 106.734375 137.234375 106.847656 C 137.160156 106.886719 137.007812 106.886719 137.007812 107.039062 C 137.199219 107 136.96875 107.34375 136.933594 107.15625 C 136.855469 107.230469 137.046875 107.34375 136.855469 107.460938 C 136.816406 107.609375 136.816406 107.574219 136.855469 107.726562 C 136.703125 107.609375 136.742188 108.03125 136.550781 107.917969 C 136.511719 108.03125 136.703125 107.957031 136.703125 108.070312 C 136.625 108.109375 136.585938 108.03125 136.511719 108.144531 C 136.550781 108.488281 136.09375 108.527344 136.28125 108.945312 C 136.28125 109.023438 136.132812 108.984375 136.167969 109.136719 C 136.28125 109.210938 136.132812 109.292969 136.320312 109.328125 C 136.359375 109.136719 136.398438 109.023438 136.511719 108.945312 C 136.472656 109.25 136.433594 109.328125 136.359375 109.59375 C 136.664062 109.558594 136.398438 109.25 136.664062 109.25 C 136.664062 109.175781 136.703125 109.210938 136.664062 109.25 C 136.550781 109.367188 136.585938 109.898438 136.359375 109.824219 C 136.359375 110.015625 136.246094 110.320312 136.054688 110.472656 C 136.09375 110.394531 136.09375 110.320312 136.09375 110.242188 C 135.976562 110.320312 135.9375 110.507812 135.75 110.472656 C 135.785156 110.742188 135.40625 110.585938 135.484375 110.890625 C 135.597656 110.816406 135.597656 110.777344 135.710938 110.890625 C 135.710938 110.816406 135.671875 110.660156 135.75 110.703125 C 135.785156 111.007812 135.671875 111.390625 135.519531 111.542969 C 135.558594 111.617188 135.484375 111.808594 135.558594 111.882812 C 135.632812 111.464844 135.75 111.347656 135.902344 111.042969 C 135.863281 111.464844 135.597656 111.691406 135.632812 112.191406 C 135.519531 112.074219 135.597656 112.226562 135.484375 112.226562 C 135.519531 112.609375 135.40625 112.875 135.332031 113.40625 C 135.484375 113.332031 135.367188 113.523438 135.445312 113.523438 C 135.558594 113.292969 135.332031 113.21875 135.484375 113.140625 C 135.484375 113.21875 135.484375 113.257812 135.558594 113.257812 C 135.597656 113.105469 135.519531 113.027344 135.519531 112.914062 C 135.632812 112.992188 135.671875 112.839844 135.710938 112.914062 C 135.597656 113.21875 135.632812 113.484375 135.519531 113.753906 C 135.484375 113.753906 135.484375 113.675781 135.484375 113.675781 C 135.484375 113.753906 135.292969 113.90625 135.40625 113.980469 C 135.40625 113.90625 135.445312 113.90625 135.484375 113.90625 C 135.445312 114.09375 135.367188 114.210938 135.367188 114.476562 C 135.40625 114.554688 135.484375 114.402344 135.519531 114.515625 C 135.40625 114.742188 135.519531 114.9375 135.445312 115.355469 C 135.519531 115.316406 135.597656 115.316406 135.597656 115.238281 C 135.558594 115.238281 135.519531 115.277344 135.519531 115.238281 C 135.519531 115.125 135.597656 115.125 135.558594 115.011719 C 135.710938 115.011719 135.75 114.9375 135.824219 114.894531 C 135.824219 114.820312 135.824219 114.742188 135.863281 114.742188 C 135.824219 114.667969 135.824219 114.628906 135.902344 114.589844 C 135.902344 114.628906 135.902344 114.707031 135.863281 114.742188 C 135.863281 114.78125 135.863281 114.855469 135.824219 114.894531 Z M 140.9375 99.679688 C 140.9375 99.640625 140.9375 99.601562 140.9375 99.5625 C 141.050781 99.488281 141.050781 99.714844 140.9375 99.679688 Z M 140.441406 99.832031 C 140.441406 99.792969 140.480469 99.832031 140.441406 99.832031 Z M 140.328125 99.90625 C 140.328125 99.832031 140.363281 99.867188 140.328125 99.90625 C 140.328125 99.945312 140.25 99.90625 140.328125 99.90625 Z M 140.59375 99.980469 C 140.59375 99.945312 140.632812 99.980469 140.59375 99.980469 Z M 140.289062 100.019531 C 140.25 100.019531 140.25 99.945312 140.289062 100.019531 C 140.328125 99.980469 140.328125 100.058594 140.289062 100.019531 Z M 140.132812 100.097656 C 140.132812 100.058594 140.171875 100.097656 140.132812 100.097656 Z M 140.441406 100.136719 C 140.441406 100.097656 140.480469 100.136719 140.441406 100.136719 Z M 140.289062 100.441406 C 140.328125 100.289062 140.328125 100.59375 140.289062 100.441406 Z M 139.679688 100.78125 C 139.714844 100.863281 139.527344 100.863281 139.5625 100.78125 C 139.5625 100.707031 139.679688 100.746094 139.679688 100.78125 Z M 139.449219 100.824219 C 139.449219 100.78125 139.484375 100.824219 139.449219 100.824219 Z M 139.832031 100.863281 C 139.832031 100.78125 139.867188 100.746094 139.945312 100.78125 C 139.945312 100.824219 139.90625 100.863281 139.832031 100.863281 Z M 139.484375 100.9375 C 139.527344 100.78125 139.527344 101.089844 139.484375 100.9375 Z M 139.257812 101.011719 C 139.371094 100.898438 139.183594 101.128906 139.257812 101.011719 Z M 139.679688 101.050781 C 139.640625 100.9375 139.714844 100.976562 139.792969 100.976562 C 139.792969 101.011719 139.753906 101.050781 139.679688 101.050781 Z M 139.21875 101.164062 C 139.257812 101.011719 139.257812 101.316406 139.21875 101.164062 Z M 139.410156 101.28125 C 139.371094 101.128906 139.527344 101.242188 139.484375 101.128906 C 139.527344 101.128906 139.527344 101.164062 139.601562 101.164062 C 139.601562 101.089844 139.640625 101.128906 139.601562 101.164062 C 139.5625 101.242188 139.484375 101.242188 139.410156 101.28125 C 139.410156 101.316406 139.332031 101.28125 139.410156 101.28125 Z M 138.914062 101.316406 C 138.878906 101.316406 138.878906 101.242188 138.914062 101.316406 C 138.953125 101.28125 138.953125 101.355469 138.914062 101.316406 Z M 138.992188 101.511719 C 138.878906 101.429688 139.03125 101.355469 139.03125 101.316406 C 139.144531 101.355469 138.992188 101.429688 138.992188 101.511719 Z M 139.332031 101.46875 C 139.296875 101.429688 139.296875 101.394531 139.296875 101.355469 C 139.371094 101.316406 139.371094 101.355469 139.371094 101.429688 C 139.332031 101.394531 139.332031 101.429688 139.332031 101.46875 Z M 139.03125 101.699219 C 139.066406 101.585938 139.105469 101.511719 139.183594 101.429688 C 139.332031 101.46875 139.105469 101.625 139.03125 101.699219 Z M 138.878906 101.546875 C 138.914062 101.394531 138.914062 101.699219 138.878906 101.546875 Z M 138.761719 101.964844 C 138.800781 101.777344 138.914062 101.777344 138.953125 101.625 C 139.03125 101.738281 138.878906 101.929688 138.761719 101.964844 C 138.648438 102.273438 138.34375 102.425781 138.191406 102.730469 C 138.152344 102.730469 138.152344 102.691406 138.113281 102.691406 C 138.074219 102.804688 137.960938 102.84375 137.921875 102.996094 C 137.808594 102.878906 137.960938 102.765625 137.960938 102.691406 C 138 102.730469 138.035156 102.730469 138.113281 102.691406 C 138.304688 102.3125 138.457031 102.195312 138.761719 101.964844 Z M 138.53125 101.8125 C 138.457031 101.8125 138.457031 101.738281 138.457031 101.699219 C 138.496094 101.699219 138.53125 101.738281 138.53125 101.8125 Z M 138.570312 101.851562 C 138.570312 101.8125 138.570312 101.777344 138.570312 101.777344 C 138.609375 101.777344 138.609375 101.777344 138.648438 101.777344 C 138.648438 101.777344 138.648438 101.8125 138.648438 101.851562 C 138.609375 101.851562 138.609375 101.851562 138.570312 101.851562 Z M 138.382812 101.890625 C 138.53125 101.890625 138.34375 102.078125 138.382812 101.890625 Z M 138.113281 102.195312 C 138.035156 101.964844 138.265625 102.078125 138.265625 101.964844 C 138.34375 101.929688 138.304688 102.042969 138.382812 102.078125 C 138.34375 102.15625 138.191406 102.117188 138.113281 102.195312 Z M 137.882812 102.195312 C 137.882812 102.15625 137.921875 102.195312 137.882812 102.195312 Z M 137.730469 102.347656 C 137.730469 102.15625 137.882812 102.3125 137.730469 102.347656 C 137.730469 102.347656 137.730469 102.386719 137.695312 102.386719 C 137.695312 102.425781 137.617188 102.386719 137.695312 102.386719 C 137.695312 102.347656 137.695312 102.3125 137.730469 102.347656 Z M 138 102.460938 C 137.882812 102.425781 138 102.3125 138 102.3125 C 138.113281 102.3125 137.960938 102.386719 138 102.460938 Z M 137.808594 102.539062 C 137.808594 102.5 137.808594 102.460938 137.808594 102.460938 C 137.847656 102.460938 137.847656 102.460938 137.882812 102.460938 C 137.882812 102.460938 137.882812 102.5 137.882812 102.539062 C 137.847656 102.539062 137.847656 102.539062 137.808594 102.539062 Z M 137.542969 102.578125 C 137.542969 102.5 137.582031 102.539062 137.542969 102.578125 C 137.542969 102.613281 137.464844 102.578125 137.542969 102.578125 Z M 137.695312 102.578125 C 137.730469 102.578125 137.730469 102.539062 137.730469 102.539062 C 137.808594 102.5 137.769531 102.691406 137.695312 102.652344 C 137.695312 102.613281 137.695312 102.578125 137.695312 102.578125 Z M 137.695312 102.730469 C 137.695312 102.691406 137.730469 102.730469 137.695312 102.730469 Z M 137.542969 102.878906 C 137.542969 102.804688 137.617188 102.804688 137.617188 102.765625 C 137.65625 102.765625 137.65625 102.804688 137.65625 102.878906 C 137.617188 102.878906 137.582031 102.878906 137.542969 102.878906 Z M 137.808594 102.960938 C 137.808594 102.921875 137.847656 102.960938 137.808594 102.960938 Z M 137.386719 103.035156 C 137.429688 102.878906 137.429688 103.1875 137.386719 103.035156 Z M 137.65625 103.300781 C 137.503906 103.148438 137.769531 103.074219 137.808594 102.996094 C 137.882812 103.074219 137.65625 103.1875 137.65625 103.300781 Z M 137.386719 103.566406 C 137.429688 103.414062 137.503906 103.339844 137.617188 103.339844 C 137.582031 103.453125 137.464844 103.492188 137.386719 103.566406 C 137.386719 103.566406 137.386719 103.605469 137.351562 103.605469 C 137.3125 103.722656 137.273438 103.835938 137.160156 103.875 C 137.160156 103.875 137.160156 103.910156 137.121094 103.910156 C 137.121094 103.910156 137.121094 103.949219 137.082031 103.949219 C 137.046875 104.140625 136.855469 104.214844 136.78125 104.410156 C 136.742188 104.214844 136.96875 104.0625 137.082031 103.949219 C 137.082031 103.910156 137.082031 103.875 137.121094 103.910156 C 137.121094 103.875 137.121094 103.835938 137.160156 103.875 C 137.199219 103.761719 137.234375 103.683594 137.3125 103.605469 C 137.3125 103.605469 137.351562 103.605469 137.351562 103.605469 C 137.351562 103.566406 137.351562 103.527344 137.386719 103.566406 Z M 136.933594 103.644531 C 136.933594 103.605469 136.96875 103.644531 136.933594 103.644531 Z M 136.625 103.988281 C 136.625 103.949219 136.664062 103.988281 136.625 103.988281 Z M 140.667969 104.253906 C 140.667969 104.214844 140.707031 104.253906 140.667969 104.253906 Z M 136.585938 104.5625 C 136.585938 104.445312 136.625 104.410156 136.703125 104.445312 C 136.664062 104.484375 136.625 104.523438 136.585938 104.5625 C 136.585938 104.597656 136.585938 104.675781 136.550781 104.710938 C 136.550781 104.710938 136.511719 104.710938 136.511719 104.710938 C 136.433594 104.863281 136.359375 105.015625 136.167969 105.132812 C 136.167969 105.285156 136.015625 105.132812 136.167969 105.132812 C 136.246094 104.941406 136.398438 104.828125 136.472656 104.710938 C 136.472656 104.710938 136.511719 104.710938 136.511719 104.710938 C 136.511719 104.636719 136.511719 104.5625 136.550781 104.5625 C 136.550781 104.5625 136.585938 104.5625 136.585938 104.5625 Z M 138.457031 104.902344 C 138.457031 104.863281 138.496094 104.902344 138.457031 104.902344 Z M 135.863281 105.015625 C 135.863281 104.976562 135.902344 105.015625 135.863281 105.015625 Z M 138.304688 105.171875 C 138.304688 105.132812 138.34375 105.171875 138.304688 105.171875 Z M 139.90625 105.210938 C 139.90625 105.171875 139.945312 105.210938 139.90625 105.210938 Z M 138.265625 105.324219 C 138.265625 105.359375 138.230469 105.324219 138.191406 105.359375 C 138.191406 105.324219 138.230469 105.324219 138.265625 105.324219 Z M 135.863281 105.550781 C 135.824219 105.324219 135.976562 105.476562 135.863281 105.550781 C 135.863281 105.550781 135.863281 105.589844 135.824219 105.589844 C 135.824219 105.628906 135.824219 105.742188 135.710938 105.742188 C 135.710938 105.628906 135.75 105.589844 135.824219 105.589844 C 135.824219 105.550781 135.824219 105.511719 135.863281 105.550781 Z M 135.671875 105.511719 C 135.671875 105.476562 135.710938 105.511719 135.671875 105.511719 Z M 137.617188 105.703125 C 137.542969 105.664062 137.617188 105.628906 137.617188 105.589844 C 137.695312 105.589844 137.617188 105.628906 137.617188 105.703125 Z M 137.503906 105.820312 C 137.464844 105.78125 137.464844 105.703125 137.464844 105.664062 C 137.542969 105.703125 137.542969 105.742188 137.503906 105.820312 Z M 138 105.78125 C 138.035156 105.628906 138.035156 105.933594 138 105.78125 Z M 135.632812 105.820312 C 135.75 105.703125 135.558594 105.933594 135.632812 105.820312 Z M 137.199219 105.820312 C 137.199219 105.78125 137.234375 105.820312 137.199219 105.820312 Z M 137.351562 105.894531 C 137.464844 105.78125 137.273438 106.011719 137.351562 105.894531 Z M 135.367188 105.933594 C 135.367188 105.894531 135.40625 105.933594 135.367188 105.933594 Z M 138.152344 106.011719 C 138.152344 105.933594 138.191406 105.972656 138.152344 106.011719 C 138.191406 106.199219 138.035156 106.046875 138.152344 106.011719 Z M 137.199219 106.125 C 137.273438 105.972656 137.199219 106.390625 137.199219 106.125 Z M 137.808594 106.125 C 137.921875 106.011719 137.730469 106.238281 137.808594 106.125 Z M 136.933594 106.160156 C 136.96875 106.011719 136.96875 106.3125 136.933594 106.160156 Z M 129.226562 106.46875 C 129.152344 106.425781 129.226562 106.390625 129.226562 106.351562 C 129.304688 106.351562 129.226562 106.390625 129.226562 106.46875 Z M 137.273438 106.621094 C 137.234375 106.507812 137.3125 106.542969 137.386719 106.542969 C 137.386719 106.582031 137.351562 106.621094 137.273438 106.621094 Z M 135.023438 106.621094 C 135.023438 106.582031 135.0625 106.621094 135.023438 106.621094 Z M 137.464844 106.773438 C 137.542969 106.621094 137.503906 106.886719 137.464844 106.773438 Z M 139.066406 106.773438 C 139.066406 106.734375 139.105469 106.773438 139.066406 106.773438 Z M 134.871094 106.847656 C 134.871094 106.808594 134.910156 106.847656 134.871094 106.847656 Z M 136.550781 107 C 136.585938 106.847656 136.511719 107.191406 136.550781 107 Z M 137.582031 107.191406 C 137.582031 107.15625 137.617188 107.191406 137.582031 107.191406 Z M 134.300781 107.230469 C 134.335938 107.078125 134.335938 107.382812 134.300781 107.230469 Z M 136.398438 107.230469 C 136.398438 107.191406 136.433594 107.230469 136.398438 107.230469 Z M 134.449219 107.269531 C 134.488281 107.113281 134.527344 107.382812 134.449219 107.269531 Z M 137.199219 107.496094 C 137.121094 107.460938 137.234375 107.308594 137.234375 107.269531 C 137.351562 107.308594 137.199219 107.421875 137.199219 107.496094 Z M 134.300781 107.382812 C 134.414062 107.269531 134.222656 107.496094 134.300781 107.382812 Z M 137.464844 107.421875 C 137.464844 107.34375 137.503906 107.382812 137.464844 107.421875 C 137.464844 107.460938 137.386719 107.421875 137.464844 107.421875 Z M 137.046875 107.460938 C 137.082031 107.308594 137.082031 107.609375 137.046875 107.460938 Z M 137.386719 107.726562 C 137.273438 107.6875 137.429688 107.574219 137.386719 107.535156 C 137.464844 107.535156 137.429688 107.6875 137.386719 107.726562 Z M 136.015625 107.648438 C 136.015625 107.609375 136.054688 107.609375 136.054688 107.574219 C 136.09375 107.574219 136.09375 107.574219 136.132812 107.574219 C 136.132812 107.648438 136.09375 107.609375 136.015625 107.648438 Z M 137.046875 107.917969 C 136.894531 107.878906 137.046875 107.761719 137.046875 107.648438 C 137.160156 107.6875 137.007812 107.800781 137.046875 107.917969 Z M 134.183594 107.726562 C 134.183594 107.6875 134.222656 107.726562 134.183594 107.726562 Z M 135.75 107.761719 C 135.75 107.6875 135.785156 107.726562 135.75 107.761719 C 135.75 107.800781 135.671875 107.761719 135.75 107.761719 Z M 136.015625 107.761719 C 136.015625 107.726562 136.054688 107.761719 136.015625 107.761719 Z M 135.902344 107.878906 C 135.9375 107.726562 135.9375 108.03125 135.902344 107.878906 Z M 130.828125 107.957031 C 130.828125 107.917969 130.867188 107.957031 130.828125 107.957031 Z M 135.558594 107.957031 C 135.558594 107.917969 135.597656 107.957031 135.558594 107.957031 Z M 137.234375 107.957031 C 137.234375 107.917969 137.273438 107.957031 137.234375 107.957031 Z M 135.75 107.992188 C 135.824219 107.839844 135.785156 108.109375 135.75 107.992188 Z M 133.652344 108.109375 C 133.6875 107.957031 133.6875 108.257812 133.652344 108.109375 Z M 136.855469 108.144531 C 136.855469 108.109375 136.894531 108.144531 136.855469 108.144531 Z M 136.664062 108.222656 C 136.664062 108.257812 136.625 108.222656 136.585938 108.257812 C 136.585938 108.222656 136.625 108.222656 136.664062 108.222656 Z M 130.902344 108.335938 C 130.867188 108.144531 131.019531 108.296875 130.902344 108.335938 C 130.902344 108.375 130.902344 108.449219 130.828125 108.449219 C 130.828125 108.375 130.867188 108.335938 130.902344 108.335938 Z M 136.703125 108.566406 C 136.585938 108.527344 136.742188 108.410156 136.703125 108.375 C 136.78125 108.375 136.742188 108.527344 136.703125 108.566406 Z M 136.933594 108.605469 C 136.933594 108.566406 136.96875 108.605469 136.933594 108.605469 Z M 135.25 108.71875 C 135.25 108.679688 135.292969 108.71875 135.25 108.71875 Z M 136.511719 108.871094 C 136.511719 108.792969 136.511719 108.679688 136.625 108.71875 C 136.550781 108.71875 136.625 108.871094 136.511719 108.871094 Z M 136.703125 109.097656 C 136.703125 108.984375 136.78125 108.945312 136.78125 108.871094 C 136.855469 108.871094 136.78125 109.097656 136.703125 109.097656 Z M 134.949219 108.984375 C 134.949219 108.945312 134.949219 108.910156 134.949219 108.910156 C 134.984375 108.910156 134.984375 108.910156 135.023438 108.910156 C 135.023438 108.910156 135.023438 108.945312 135.023438 108.984375 C 134.984375 108.984375 134.984375 108.984375 134.949219 108.984375 Z M 134.796875 109.058594 C 134.832031 108.910156 134.832031 109.210938 134.796875 109.058594 Z M 136.28125 109.136719 C 136.28125 109.058594 136.320312 109.097656 136.28125 109.136719 C 136.28125 109.175781 136.207031 109.136719 136.28125 109.136719 Z M 134.605469 109.25 C 134.605469 109.210938 134.644531 109.25 134.605469 109.25 Z M 134.644531 109.40625 C 134.644531 109.367188 134.683594 109.40625 134.644531 109.40625 Z M 134.148438 109.785156 C 134.148438 109.746094 134.183594 109.785156 134.148438 109.785156 Z M 134.222656 109.898438 C 134.222656 109.859375 134.261719 109.898438 134.222656 109.898438 Z M 137.582031 109.9375 C 137.617188 109.785156 137.617188 110.089844 137.582031 109.9375 Z M 136.398438 110.089844 C 136.472656 109.9375 136.433594 110.207031 136.398438 110.089844 Z M 137.503906 110.089844 C 137.542969 109.9375 137.542969 110.242188 137.503906 110.089844 Z M 133.800781 110.207031 C 133.839844 110.054688 133.839844 110.359375 133.800781 110.207031 Z M 133.460938 110.242188 C 133.460938 110.207031 133.5 110.242188 133.460938 110.242188 Z M 137.429688 110.320312 C 137.429688 110.242188 137.464844 110.28125 137.429688 110.320312 C 137.429688 110.472656 137.273438 110.320312 137.429688 110.320312 Z M 133.535156 110.472656 C 133.535156 110.433594 133.574219 110.472656 133.535156 110.472656 Z M 133.347656 110.625 C 133.460938 110.507812 133.269531 110.742188 133.347656 110.625 Z M 137.234375 110.625 C 137.3125 110.472656 137.234375 110.890625 137.234375 110.625 Z M 133.5 110.703125 C 133.535156 110.546875 133.535156 110.855469 133.5 110.703125 Z M 136.015625 110.703125 C 136.054688 110.546875 136.054688 110.855469 136.015625 110.703125 Z M 135.9375 110.890625 C 135.976562 110.742188 135.976562 111.042969 135.9375 110.890625 Z M 132.390625 111.691406 C 132.46875 111.542969 132.429688 111.808594 132.390625 111.691406 Z M 132.085938 111.921875 C 132.125 111.769531 132.125 112.074219 132.085938 111.921875 Z M 131.972656 112.035156 C 131.972656 111.957031 132.011719 111.996094 131.972656 112.035156 C 131.972656 112.035156 131.972656 112.074219 131.933594 112.074219 C 131.898438 112.113281 131.820312 112.152344 131.703125 112.191406 C 131.703125 112.113281 131.742188 112.074219 131.742188 112.035156 C 131.820312 111.996094 131.820312 112.074219 131.933594 112.074219 C 131.933594 112.035156 131.933594 111.996094 131.972656 112.035156 Z M 131.019531 112.339844 C 131.058594 112.339844 131.058594 112.265625 131.058594 112.265625 C 131.363281 112.378906 130.675781 112.378906 131.019531 112.339844 Z M 131.210938 112.339844 C 131.210938 112.304688 131.25 112.304688 131.25 112.265625 C 131.285156 112.265625 131.285156 112.265625 131.324219 112.265625 C 131.324219 112.339844 131.285156 112.304688 131.210938 112.339844 Z M 131.4375 112.339844 C 131.4375 112.304688 131.4375 112.265625 131.4375 112.265625 C 131.476562 112.265625 131.476562 112.265625 131.515625 112.265625 C 131.515625 112.265625 131.515625 112.304688 131.515625 112.339844 C 131.476562 112.339844 131.476562 112.339844 131.4375 112.339844 Z M 135.671875 112.492188 C 135.671875 112.457031 135.710938 112.492188 135.671875 112.492188 Z M 136.703125 112.644531 C 136.703125 112.609375 136.742188 112.644531 136.703125 112.644531 Z M 135.785156 112.839844 C 135.75 112.800781 135.75 112.757812 135.75 112.722656 C 135.824219 112.683594 135.824219 112.722656 135.824219 112.800781 C 135.785156 112.757812 135.785156 112.800781 135.785156 112.839844 Z M 136.511719 112.839844 C 136.511719 112.875 136.472656 112.839844 136.433594 112.875 C 136.433594 112.839844 136.472656 112.839844 136.511719 112.839844 Z M 136.398438 113.445312 C 136.398438 113.40625 136.433594 113.445312 136.398438 113.445312 Z M 136.320312 113.789062 C 136.320312 113.753906 136.359375 113.789062 136.320312 113.789062 Z M 136.28125 113.941406 C 136.28125 113.90625 136.320312 113.941406 136.28125 113.941406 Z M 136.054688 114.058594 C 136.09375 113.90625 136.09375 114.210938 136.054688 114.058594 Z M 135.445312 114.441406 C 135.445312 114.289062 135.445312 114.09375 135.632812 114.132812 C 135.445312 114.171875 135.632812 114.402344 135.445312 114.441406 Z M 136.207031 114.25 C 136.132812 114.210938 136.207031 114.171875 136.207031 114.132812 C 136.28125 114.132812 136.207031 114.171875 136.207031 114.25 Z M 136.015625 114.707031 C 136.054688 114.589844 136.054688 114.402344 136.132812 114.324219 C 136.167969 114.363281 136.09375 114.628906 136.015625 114.707031 Z M 135.902344 114.515625 C 135.902344 114.402344 135.9375 114.402344 135.9375 114.363281 C 136.015625 114.324219 136.015625 114.554688 135.902344 114.515625 Z M 135.75 114.476562 C 135.785156 114.324219 135.785156 114.628906 135.75 114.476562 Z M 135.710938 114.9375 C 135.632812 114.894531 135.710938 114.855469 135.710938 114.820312 C 135.785156 114.820312 135.710938 114.855469 135.710938 114.9375 Z M 141.394531 99.296875 C 141.507812 99.21875 141.355469 99.066406 141.394531 99.296875 Z M 139.105469 100.824219 C 139.105469 100.78125 139.144531 100.824219 139.105469 100.824219 Z M 134.148438 101.394531 C 134.183594 101.394531 134.183594 101.46875 134.222656 101.511719 C 134.222656 101.355469 134.375 101.164062 134.222656 101.128906 C 134.148438 101.128906 134.222656 101.355469 134.148438 101.394531 Z M 139.640625 106.734375 C 139.640625 106.695312 139.679688 106.734375 139.640625 106.734375 Z M 139.601562 106.808594 C 139.601562 106.773438 139.640625 106.808594 139.601562 106.808594 Z M 137.007812 107.039062 C 137.007812 107.078125 136.933594 107.039062 137.007812 107.039062 Z M 139.410156 107.078125 C 139.449219 107.15625 139.257812 107.230469 139.371094 107.308594 C 139.371094 107.230469 139.527344 107.113281 139.410156 107.078125 Z M 139.296875 107.34375 C 139.296875 107.382812 139.144531 107.496094 139.257812 107.535156 C 139.257812 107.460938 139.410156 107.34375 139.296875 107.34375 Z M 136.816406 107.460938 C 136.816406 107.460938 136.855469 107.460938 136.855469 107.460938 C 136.855469 107.382812 136.816406 107.421875 136.816406 107.460938 Z M 136.816406 107.460938 C 136.78125 107.460938 136.78125 107.496094 136.78125 107.535156 C 136.816406 107.535156 136.816406 107.460938 136.816406 107.460938 Z M 136.78125 107.535156 C 136.78125 107.574219 136.703125 107.535156 136.78125 107.535156 Z M 139.183594 107.609375 C 139.183594 107.574219 139.21875 107.609375 139.183594 107.609375 Z M 131.25 107.6875 C 131.25 107.648438 131.285156 107.6875 131.25 107.6875 Z M 139.144531 107.726562 C 139.144531 107.648438 139.183594 107.6875 139.144531 107.726562 Z M 139.144531 107.726562 C 139.105469 107.726562 139.105469 107.761719 139.105469 107.800781 C 139.144531 107.800781 139.144531 107.726562 139.144531 107.726562 Z M 139.105469 107.800781 C 139.105469 107.839844 139.03125 107.800781 139.105469 107.800781 Z M 131.136719 107.917969 C 131.171875 108.070312 131.171875 107.761719 131.136719 107.917969 Z M 130.789062 108.640625 C 130.789062 108.679688 130.753906 108.757812 130.714844 108.792969 C 130.714844 108.910156 130.675781 108.984375 130.636719 109.058594 C 130.636719 109.25 130.410156 109.558594 130.5625 109.710938 C 130.601562 109.367188 130.941406 108.910156 130.789062 108.640625 Z M 136.015625 109.175781 C 136.054688 109.328125 136.054688 109.023438 136.015625 109.175781 Z M 136.132812 109.292969 C 136.167969 109.328125 136.015625 109.40625 136.132812 109.441406 C 136.132812 109.40625 136.207031 109.292969 136.132812 109.292969 Z M 136.09375 109.59375 C 136.09375 109.632812 136.015625 109.671875 136.09375 109.710938 C 136.09375 109.632812 136.167969 109.59375 136.09375 109.59375 Z M 136.359375 109.710938 C 136.359375 109.671875 136.398438 109.710938 136.359375 109.710938 Z M 136.246094 109.746094 C 136.320312 109.859375 136.28125 109.59375 136.246094 109.746094 Z M 136.246094 109.976562 C 136.246094 109.898438 136.28125 109.9375 136.246094 109.976562 Z M 136.207031 110.015625 C 136.246094 110.015625 136.246094 109.976562 136.246094 109.976562 C 136.207031 109.9375 136.207031 109.976562 136.207031 110.015625 Z M 136.207031 110.015625 C 136.054688 109.976562 136.207031 110.128906 136.207031 110.015625 Z M 135.824219 110.242188 C 135.824219 110.207031 135.824219 110.167969 135.824219 110.167969 C 135.75 110.128906 135.671875 110.28125 135.75 110.320312 C 135.75 110.28125 135.785156 110.242188 135.824219 110.242188 Z M 135.824219 110.242188 C 135.824219 110.28125 135.824219 110.28125 135.863281 110.320312 C 135.902344 110.242188 135.902344 110.167969 135.824219 110.242188 Z M 137.730469 110.816406 C 137.847656 110.777344 137.695312 110.625 137.730469 110.816406 Z M 137.730469 110.816406 C 137.617188 110.816406 137.769531 110.96875 137.730469 110.816406 Z M 124.117188 110.890625 C 124.117188 110.929688 124.039062 110.890625 124.117188 110.890625 Z M 135.597656 110.929688 C 135.597656 110.96875 135.597656 111.042969 135.671875 111.042969 C 135.671875 110.96875 135.632812 110.929688 135.597656 110.929688 Z M 137.65625 110.96875 C 137.65625 110.929688 137.695312 110.96875 137.65625 110.96875 Z M 135.445312 111.042969 C 135.445312 111.007812 135.484375 111.042969 135.445312 111.042969 Z M 135.484375 111.273438 C 135.484375 111.234375 135.519531 111.273438 135.484375 111.273438 Z M 135.484375 111.957031 C 135.484375 111.921875 135.519531 111.957031 135.484375 111.957031 Z M 135.332031 112.378906 C 135.367188 112.53125 135.367188 112.226562 135.332031 112.378906 Z M 135.25 112.492188 C 135.25 112.457031 135.292969 112.492188 135.25 112.492188 Z M 135.25 112.800781 C 135.292969 112.953125 135.292969 112.644531 135.25 112.800781 Z M 136.703125 113.292969 C 136.703125 113.257812 136.742188 113.292969 136.703125 113.292969 Z M 135.332031 113.40625 C 135.214844 113.40625 135.367188 113.5625 135.332031 113.40625 Z M 135.332031 113.523438 C 135.332031 113.523438 135.292969 113.5625 135.25 113.5625 C 135.25 113.640625 135.25 113.675781 135.332031 113.714844 C 135.367188 113.675781 135.40625 113.523438 135.332031 113.523438 Z M 135.484375 113.675781 C 135.597656 113.640625 135.445312 113.484375 135.484375 113.675781 Z M 135.214844 113.753906 C 135.214844 113.753906 135.214844 113.789062 135.214844 113.828125 C 135.25 113.828125 135.25 113.828125 135.292969 113.828125 C 135.292969 113.789062 135.292969 113.753906 135.292969 113.753906 C 135.25 113.753906 135.25 113.753906 135.214844 113.753906 Z M 135.332031 114.058594 C 135.214844 114.171875 135.484375 114.171875 135.332031 114.058594 Z M 135.214844 114.441406 C 135.332031 114.441406 135.292969 114.324219 135.332031 114.324219 C 135.214844 114.289062 135.25 114.402344 135.214844 114.441406 Z M 135.214844 114.441406 C 135.214844 114.476562 135.136719 114.441406 135.214844 114.441406 Z M 135.332031 114.554688 C 135.175781 114.707031 135.558594 114.589844 135.332031 114.554688 Z M 135.175781 114.707031 C 135.175781 114.667969 135.214844 114.707031 135.175781 114.707031 Z M 135.25 114.78125 C 135.292969 114.9375 135.292969 114.628906 135.25 114.78125 Z M 135.632812 115.203125 C 135.632812 115.125 135.671875 115.164062 135.632812 115.203125 Z M 135.597656 115.238281 C 135.632812 115.238281 135.632812 115.203125 135.632812 115.203125 C 135.597656 115.164062 135.597656 115.203125 135.597656 115.238281 Z M 135.597656 115.238281 " fill-opacity="1" fill-rule="nonzero"/><path fill="#ffffff" d="M 153.941406 113.140625 C 154.019531 112.992188 154.171875 113.066406 154.363281 113.066406 C 154.4375 112.992188 154.324219 112.757812 154.515625 112.722656 C 154.550781 112.875 154.4375 112.992188 154.550781 112.992188 C 154.589844 112.875 154.550781 112.722656 154.703125 112.644531 C 154.820312 112.722656 154.820312 112.757812 154.933594 112.683594 C 154.972656 112.644531 154.820312 112.53125 154.933594 112.492188 C 155.085938 112.570312 155.050781 112.457031 155.238281 112.492188 C 155.238281 112.265625 155.507812 112.113281 155.660156 112.152344 C 155.8125 111.882812 156.152344 111.769531 156.347656 111.542969 C 156.347656 111.578125 156.382812 111.617188 156.382812 111.617188 C 156.421875 111.425781 156.613281 111.273438 156.726562 111.308594 C 157.148438 110.585938 157.984375 110.128906 158.25 109.367188 C 158.332031 109.328125 158.40625 109.328125 158.445312 109.292969 C 158.75 108.757812 159.054688 108.488281 159.359375 107.957031 C 159.359375 107.992188 159.433594 107.992188 159.433594 107.992188 C 159.398438 107.800781 159.625 107.839844 159.550781 107.648438 C 159.742188 107.609375 159.929688 107.382812 159.929688 107.078125 C 160.082031 107.113281 160.082031 107.039062 160.121094 106.960938 C 160.082031 107 160.082031 106.960938 160.046875 106.886719 C 160.347656 106.808594 160.3125 106.425781 160.542969 106.3125 C 160.921875 105.511719 161.839844 104.292969 161.457031 103.035156 C 161.152344 102.730469 160.882812 102.347656 160.386719 102.15625 C 160.082031 101.8125 159.625 101.585938 159.167969 101.316406 C 159.167969 101.28125 159.167969 101.242188 159.167969 101.203125 C 158.863281 101.203125 158.710938 100.9375 158.40625 101.011719 C 158.367188 101.011719 158.332031 100.976562 158.332031 100.898438 C 158.097656 101.011719 157.984375 100.824219 157.71875 100.824219 C 157.644531 100.898438 157.757812 100.976562 157.605469 101.011719 C 157.527344 100.824219 157.222656 101.050781 157.03125 100.9375 C 157.03125 101.242188 156.460938 101.050781 156.269531 101.242188 C 156.347656 101.242188 156.421875 101.242188 156.421875 101.28125 C 156.421875 101.355469 156.347656 101.355469 156.234375 101.355469 C 156.269531 101.28125 156.234375 101.242188 156.152344 101.242188 C 156.039062 101.355469 156.421875 101.625 156.078125 101.585938 C 156.117188 101.546875 156.117188 101.546875 156.117188 101.46875 C 155.964844 101.429688 155.851562 101.546875 155.699219 101.511719 C 155.660156 101.585938 155.734375 101.625 155.699219 101.738281 C 155.582031 101.738281 155.582031 101.890625 155.429688 101.890625 C 155.429688 101.8125 155.429688 101.777344 155.351562 101.738281 C 155.316406 101.8125 155.238281 101.929688 155.351562 101.964844 C 155.238281 102.042969 155.164062 102.15625 155.011719 102.195312 C 154.933594 102.234375 154.898438 102.195312 154.859375 102.117188 C 153.980469 102.117188 153.410156 102.386719 152.761719 102.765625 C 152.761719 102.921875 152.644531 102.996094 152.453125 102.996094 C 152.378906 103.148438 152.339844 103.378906 152.074219 103.378906 C 151.917969 103.644531 151.804688 103.949219 151.464844 104.0625 C 151.5 104.445312 151.003906 104.445312 151.082031 104.75 C 151.042969 104.75 151.003906 104.75 150.929688 104.75 C 150.96875 104.976562 150.851562 105.015625 150.738281 105.09375 C 150.851562 105.285156 150.703125 105.285156 150.664062 105.4375 C 150.738281 105.550781 150.777344 105.359375 150.816406 105.476562 C 150.738281 105.550781 150.703125 105.703125 150.585938 105.78125 C 150.585938 105.894531 150.550781 105.972656 150.46875 106.011719 C 150.46875 105.894531 150.507812 105.820312 150.585938 105.78125 C 150.585938 105.589844 150.738281 105.550781 150.585938 105.398438 C 150.585938 105.742188 150.203125 105.894531 150.433594 106.125 C 150.394531 106.199219 150.433594 106.3125 150.320312 106.3125 C 150.355469 106.425781 150.355469 106.507812 150.242188 106.507812 C 150.203125 106.46875 150.242188 106.351562 150.320312 106.3125 C 150.320312 106.238281 150.394531 106.238281 150.355469 106.160156 C 150.320312 106.160156 150.28125 106.125 150.203125 106.085938 C 150.203125 106.199219 150.28125 106.199219 150.28125 106.277344 C 150.203125 106.3125 150.203125 106.390625 150.128906 106.390625 C 150.128906 106.46875 150.128906 106.542969 150.128906 106.582031 C 150.167969 106.582031 150.203125 106.582031 150.203125 106.582031 C 150.203125 106.582031 150.242188 106.542969 150.242188 106.582031 C 150.242188 106.582031 150.242188 106.582031 150.203125 106.582031 C 150.242188 106.808594 150.167969 106.960938 150.015625 107 C 150.015625 106.808594 150.128906 106.773438 150.128906 106.582031 C 149.902344 106.621094 149.863281 106.925781 149.902344 107.113281 C 149.667969 107.078125 149.746094 107.34375 149.667969 107.421875 C 149.519531 106.886719 150.203125 106.3125 150.167969 105.742188 C 149.785156 106.734375 149.175781 107.878906 149.175781 108.910156 C 149.097656 108.945312 149.136719 109.058594 149.058594 109.058594 C 149.136719 109.328125 149.058594 109.441406 148.90625 109.558594 C 148.90625 109.519531 148.945312 109.441406 148.871094 109.441406 C 148.753906 109.859375 149.019531 110.433594 148.871094 110.777344 C 148.90625 111.160156 149.097656 111.425781 149.328125 111.578125 C 149.328125 111.65625 149.253906 111.691406 149.214844 111.769531 C 149.441406 111.691406 149.367188 111.808594 149.328125 111.957031 C 149.480469 111.882812 149.519531 111.957031 149.554688 111.808594 C 149.632812 111.882812 149.746094 112.074219 149.59375 112.113281 C 150.050781 112.757812 151.003906 113.179688 151.5 113.40625 C 151.464844 113.40625 151.464844 113.332031 151.5 113.332031 C 151.882812 113.445312 152.492188 113.601562 152.761719 113.371094 C 152.761719 113.332031 152.835938 113.371094 152.761719 113.371094 C 152.761719 113.40625 152.761719 113.445312 152.761719 113.484375 C 153.179688 113.292969 153.601562 113.332031 153.941406 113.140625 C 153.867188 113.140625 153.828125 113.21875 153.789062 113.105469 C 153.867188 113.066406 153.941406 112.992188 153.941406 113.140625 Z M 156.996094 101.242188 C 156.996094 101.28125 156.957031 101.28125 156.917969 101.28125 C 156.917969 101.242188 156.996094 101.28125 156.996094 101.242188 Z M 155.507812 102.078125 C 155.507812 102.117188 155.46875 102.117188 155.429688 102.117188 C 155.429688 102.078125 155.507812 102.117188 155.507812 102.078125 Z M 154.703125 104.523438 C 154.820312 104.484375 154.898438 104.445312 154.972656 104.410156 C 155.050781 104.597656 154.898438 104.5625 154.972656 104.75 C 155.085938 104.636719 155.238281 104.445312 155.429688 104.523438 C 155.699219 103.910156 156.117188 103.492188 156.6875 103.1875 C 157.070312 102.730469 158.136719 102.347656 158.863281 102.691406 C 158.632812 104.675781 157.335938 105.664062 156.574219 107.113281 C 156.308594 107.308594 156.195312 107.6875 155.925781 107.878906 C 155.886719 107.917969 155.964844 107.957031 155.925781 107.992188 C 154.628906 109.367188 153.5625 111.007812 151.425781 111.542969 C 151.351562 111.308594 151.464844 110.929688 151.273438 110.777344 C 151.425781 110.207031 151.464844 109.441406 151.578125 108.679688 C 151.691406 108.640625 151.652344 108.488281 151.730469 108.449219 C 151.730469 108.296875 151.804688 108.257812 151.769531 108.070312 C 152.113281 107.535156 152.226562 106.773438 152.644531 106.351562 C 152.644531 106.3125 152.644531 106.238281 152.644531 106.160156 C 153.292969 105.476562 153.714844 104.597656 154.550781 104.101562 C 154.589844 104.292969 154.667969 104.410156 154.703125 104.523438 Z M 152.683594 103.113281 C 152.644531 103.113281 152.683594 103.035156 152.683594 102.996094 C 152.761719 103.035156 152.722656 103.074219 152.683594 103.113281 Z M 152.492188 103.261719 C 152.492188 103.226562 152.492188 103.1875 152.492188 103.148438 C 152.53125 103.148438 152.570312 103.148438 152.605469 103.148438 C 152.644531 103.226562 152.570312 103.226562 152.570312 103.261719 C 152.570312 103.261719 152.53125 103.261719 152.492188 103.261719 Z M 151.804688 104.101562 C 151.730469 104.140625 151.730469 104.0625 151.730469 103.988281 C 151.804688 104.027344 151.804688 104.0625 151.804688 104.101562 Z M 154.667969 104.253906 C 154.667969 104.253906 154.667969 104.214844 154.667969 104.179688 C 154.703125 104.179688 154.742188 104.179688 154.742188 104.179688 C 154.742188 104.214844 154.742188 104.253906 154.742188 104.253906 C 154.742188 104.253906 154.703125 104.253906 154.667969 104.253906 Z M 154.820312 104.292969 C 154.898438 104.179688 154.933594 104.445312 154.820312 104.292969 Z M 151.386719 104.484375 C 151.386719 104.484375 151.425781 104.523438 151.386719 104.484375 Z M 151.195312 104.789062 C 151.195312 104.789062 151.234375 104.828125 151.195312 104.789062 Z M 150.890625 105.171875 C 150.929688 105.171875 150.929688 105.171875 150.929688 105.132812 C 150.96875 105.132812 151.003906 105.132812 151.003906 105.132812 C 151.003906 105.171875 151.003906 105.210938 151.003906 105.246094 C 150.96875 105.246094 150.929688 105.246094 150.890625 105.246094 C 150.890625 105.246094 150.890625 105.210938 150.890625 105.171875 Z M 160.808594 105.4375 C 160.808594 105.476562 160.769531 105.476562 160.730469 105.476562 C 160.730469 105.4375 160.808594 105.476562 160.808594 105.4375 Z M 160.464844 106.011719 C 160.582031 105.859375 160.542969 106.160156 160.464844 106.011719 Z M 160.160156 106.507812 C 160.160156 106.390625 160.273438 106.390625 160.234375 106.277344 C 160.429688 106.277344 160.273438 106.507812 160.160156 106.507812 Z M 159.585938 106.507812 C 159.550781 106.507812 159.585938 106.425781 159.585938 106.390625 C 159.664062 106.425781 159.625 106.46875 159.585938 106.507812 Z M 159.359375 106.808594 C 159.433594 106.660156 159.433594 106.960938 159.359375 106.808594 Z M 159.855469 106.925781 C 159.929688 106.773438 159.929688 107.078125 159.855469 106.925781 Z M 149.976562 107.113281 C 149.976562 107.113281 150.015625 107.15625 149.976562 107.113281 Z M 157.03125 107.15625 C 157.03125 107.15625 157.070312 107.191406 157.03125 107.15625 Z M 149.746094 107.269531 C 149.785156 107.269531 149.785156 107.269531 149.785156 107.230469 C 149.863281 107.230469 149.863281 107.421875 149.746094 107.34375 C 149.746094 107.34375 149.746094 107.308594 149.746094 107.269531 Z M 149.902344 107.308594 C 149.902344 107.308594 149.9375 107.34375 149.902344 107.308594 Z M 159.511719 107.421875 C 159.550781 107.382812 159.585938 107.34375 159.625 107.34375 C 159.625 107.421875 159.585938 107.421875 159.511719 107.421875 Z M 149.328125 109.023438 C 149.097656 108.605469 149.441406 107.957031 149.554688 107.460938 C 149.707031 107.917969 149.253906 108.449219 149.328125 109.023438 Z M 158.40625 107.574219 C 158.558594 107.496094 158.332031 107.726562 158.40625 107.574219 Z M 149.707031 107.839844 C 149.667969 107.726562 149.820312 107.726562 149.785156 107.609375 C 149.9375 107.648438 149.820312 107.839844 149.707031 107.839844 Z M 158.289062 107.726562 C 158.289062 107.761719 158.25 107.761719 158.214844 107.761719 C 158.214844 107.726562 158.289062 107.761719 158.289062 107.726562 Z M 159.359375 107.878906 C 159.28125 107.917969 159.28125 107.839844 159.28125 107.761719 C 159.359375 107.800781 159.359375 107.839844 159.359375 107.878906 Z M 158.445312 108.070312 C 158.519531 107.917969 158.519531 108.222656 158.445312 108.070312 Z M 149.59375 108.296875 C 149.59375 108.296875 149.59375 108.257812 149.59375 108.222656 C 149.632812 108.222656 149.667969 108.222656 149.667969 108.222656 C 149.667969 108.257812 149.667969 108.296875 149.667969 108.296875 C 149.667969 108.296875 149.632812 108.296875 149.59375 108.296875 Z M 158.519531 108.375 C 158.519531 108.410156 158.480469 108.410156 158.445312 108.410156 C 158.445312 108.375 158.519531 108.410156 158.519531 108.375 Z M 158.785156 108.449219 C 158.785156 108.449219 158.785156 108.410156 158.785156 108.375 C 158.863281 108.375 158.9375 108.375 158.898438 108.449219 C 158.863281 108.449219 158.824219 108.449219 158.785156 108.449219 Z M 149.441406 108.527344 C 149.554688 108.375 149.519531 108.679688 149.441406 108.527344 Z M 149.402344 108.71875 C 149.402344 108.71875 149.441406 108.757812 149.402344 108.71875 Z M 158.558594 108.792969 C 158.632812 108.640625 158.632812 108.945312 158.558594 108.792969 Z M 158.40625 108.945312 C 158.40625 108.945312 158.445312 108.984375 158.40625 108.945312 Z M 149.136719 109.40625 C 149.175781 109.25 149.214844 109.175781 149.214844 109.058594 C 149.289062 109.136719 149.253906 109.40625 149.136719 109.40625 Z M 149.328125 109.097656 C 149.402344 108.945312 149.402344 109.25 149.328125 109.097656 Z M 158.023438 109.328125 C 158.097656 109.175781 158.097656 109.480469 158.023438 109.328125 Z M 157.683594 109.558594 C 157.683594 109.558594 157.683594 109.519531 157.683594 109.480469 C 157.71875 109.480469 157.757812 109.480469 157.757812 109.480469 C 157.757812 109.519531 157.757812 109.558594 157.757812 109.558594 C 157.757812 109.558594 157.71875 109.558594 157.683594 109.558594 Z M 157.984375 109.558594 C 157.984375 109.632812 157.984375 109.558594 157.910156 109.558594 C 157.949219 109.519531 157.984375 109.519531 157.984375 109.558594 Z M 148.90625 109.746094 C 148.90625 109.671875 148.945312 109.59375 149.019531 109.59375 C 149.019531 109.671875 149.019531 109.785156 148.90625 109.746094 Z M 157.300781 109.859375 C 157.222656 109.859375 157.300781 109.710938 157.375 109.710938 C 157.414062 109.824219 157.300781 109.785156 157.300781 109.859375 Z M 157.414062 109.859375 C 157.414062 109.898438 157.375 109.898438 157.335938 109.898438 C 157.335938 109.859375 157.414062 109.898438 157.414062 109.859375 Z M 156.996094 109.898438 C 156.996094 109.9375 156.957031 109.9375 156.917969 109.9375 C 156.917969 109.898438 156.996094 109.9375 156.996094 109.898438 Z M 157.71875 109.898438 C 157.71875 109.9375 157.683594 109.9375 157.644531 109.9375 C 157.644531 109.898438 157.71875 109.9375 157.71875 109.898438 Z M 157.109375 110.015625 C 157.183594 109.859375 157.183594 110.167969 157.109375 110.015625 Z M 149.097656 110.089844 C 149.097656 110.089844 149.136719 110.128906 149.097656 110.089844 Z M 157.414062 110.242188 C 157.414062 110.242188 157.449219 110.28125 157.414062 110.242188 Z M 156.917969 110.394531 C 156.996094 110.242188 156.996094 110.546875 156.917969 110.394531 Z M 156.574219 110.855469 C 156.5 110.855469 156.574219 110.742188 156.535156 110.660156 C 156.613281 110.742188 156.648438 110.816406 156.574219 110.855469 Z M 149.097656 110.855469 C 149.097656 110.855469 149.097656 110.816406 149.097656 110.777344 C 149.136719 110.777344 149.175781 110.777344 149.175781 110.777344 C 149.175781 110.816406 149.175781 110.855469 149.175781 110.855469 C 149.175781 110.855469 149.136719 110.855469 149.097656 110.855469 Z M 156.421875 110.890625 C 156.421875 110.890625 156.460938 110.929688 156.421875 110.890625 Z M 156.800781 110.890625 C 156.800781 110.890625 156.839844 110.929688 156.800781 110.890625 Z M 155.773438 111.042969 C 155.773438 111.042969 155.8125 111.082031 155.773438 111.042969 Z M 156 111.347656 C 156 111.425781 156 111.347656 155.925781 111.347656 C 155.964844 111.308594 156 111.308594 156 111.347656 Z M 150.050781 112.304688 C 150.128906 112.191406 150.167969 112.457031 150.050781 112.304688 Z M 150.929688 112.875 C 150.929688 112.875 150.96875 112.914062 150.929688 112.875 Z M 154.210938 112.992188 C 154.210938 112.992188 154.210938 112.953125 154.210938 112.914062 C 154.25 112.914062 154.285156 112.914062 154.285156 112.914062 C 154.285156 112.953125 154.285156 112.992188 154.285156 112.992188 C 154.285156 112.992188 154.25 112.992188 154.210938 112.992188 Z M 151.195312 113.105469 C 151.273438 112.953125 151.273438 113.257812 151.195312 113.105469 Z M 152.417969 113.105469 C 152.492188 112.953125 152.492188 113.257812 152.417969 113.105469 Z M 152.152344 113.21875 C 152.152344 113.21875 152.1875 113.257812 152.152344 113.21875 Z M 156.6875 101.011719 C 156.765625 101.164062 156.800781 100.863281 156.6875 101.011719 Z M 155.46875 101.738281 C 155.546875 101.890625 155.582031 101.585938 155.46875 101.738281 Z M 155.050781 101.851562 C 155.011719 101.929688 155.050781 101.964844 155.085938 102.003906 C 155.164062 101.964844 155.164062 101.890625 155.050781 101.851562 Z M 154.703125 104.523438 C 154.820312 104.5625 154.785156 104.636719 154.703125 104.675781 C 154.703125 104.636719 154.703125 104.597656 154.703125 104.523438 Z M 150.816406 104.675781 C 150.816406 104.675781 150.851562 104.710938 150.816406 104.675781 Z M 150.777344 104.75 C 150.851562 104.902344 150.851562 104.597656 150.777344 104.75 Z M 150.664062 104.941406 C 150.664062 104.941406 150.703125 104.976562 150.664062 104.941406 Z M 150.394531 105.285156 C 150.394531 105.324219 150.394531 105.359375 150.394531 105.359375 C 150.433594 105.359375 150.46875 105.359375 150.46875 105.359375 C 150.46875 105.359375 150.46875 105.324219 150.46875 105.285156 C 150.46875 105.285156 150.433594 105.285156 150.394531 105.285156 Z M 150.242188 105.628906 C 150.242188 105.664062 150.242188 105.703125 150.242188 105.703125 C 150.28125 105.703125 150.320312 105.703125 150.320312 105.703125 C 150.320312 105.703125 150.320312 105.664062 150.320312 105.628906 C 150.320312 105.628906 150.28125 105.628906 150.242188 105.628906 Z M 150.128906 106.390625 C 150.089844 106.390625 150.128906 106.351562 150.128906 106.390625 Z M 149.136719 108.109375 C 149.214844 108.257812 149.214844 107.957031 149.136719 108.109375 Z M 149.097656 108.222656 C 149.097656 108.527344 149.214844 108.109375 149.097656 108.222656 Z M 149.058594 108.488281 C 149.136719 108.640625 149.136719 108.335938 149.058594 108.488281 Z M 148.945312 109.136719 C 148.945312 109.175781 148.871094 109.367188 148.945312 109.367188 C 148.90625 109.292969 149.058594 109.210938 148.945312 109.136719 Z M 148.792969 110.546875 C 148.832031 110.546875 148.871094 110.546875 148.871094 110.507812 C 148.871094 110.546875 148.792969 110.507812 148.792969 110.546875 Z M 155.351562 112.339844 C 155.351562 112.378906 155.351562 112.417969 155.351562 112.417969 C 155.390625 112.417969 155.429688 112.417969 155.429688 112.417969 C 155.429688 112.417969 155.429688 112.378906 155.429688 112.339844 C 155.429688 112.339844 155.390625 112.339844 155.351562 112.339844 Z M 155.351562 112.339844 " fill-opacity="1" fill-rule="nonzero"/><path fill="#ffffff" d="M 181.023438 104.101562 C 181.175781 104.027344 181.367188 103.835938 181.558594 103.910156 C 181.597656 103.910156 181.558594 103.761719 181.632812 103.761719 C 182.246094 103.796875 182.625 103.261719 183.160156 103.074219 C 183.199219 102.960938 182.96875 102.921875 183.160156 102.84375 C 183.273438 103.035156 183.769531 102.765625 183.582031 102.386719 C 184.113281 102.117188 184.074219 101.203125 184.230469 100.824219 C 184.265625 100.707031 184.074219 100.78125 184.113281 100.667969 C 183.769531 99.714844 182.433594 99.792969 181.671875 99.792969 C 181.0625 99.832031 180.453125 99.792969 179.839844 99.867188 C 176.601562 100.328125 172.898438 101.242188 170.496094 103.113281 C 170.382812 103.910156 170.6875 104.597656 170.878906 105.398438 C 171.144531 105.550781 171.257812 105.972656 171.679688 105.859375 C 171.871094 105.511719 172.171875 105.210938 172.441406 105.015625 C 172.40625 105.132812 172.441406 105.171875 172.519531 105.171875 C 172.59375 104.941406 172.898438 104.976562 172.9375 104.710938 C 172.976562 104.75 172.9375 104.863281 173.054688 104.828125 C 173.054688 104.789062 173.089844 104.75 173.128906 104.710938 C 173.621094 104.675781 174.082031 104.332031 174.539062 104.101562 C 174.617188 104.027344 174.617188 104.140625 174.691406 104.140625 C 174.84375 104.0625 174.996094 103.988281 175.152344 103.910156 C 175.1875 103.761719 174.957031 103.875 174.996094 103.722656 C 175.226562 103.796875 175.570312 103.875 175.683594 103.605469 C 176.105469 103.761719 176.371094 103.339844 176.789062 103.453125 C 176.980469 103.1875 177.25 103.035156 177.667969 103.113281 C 177.78125 102.921875 177.9375 102.921875 178.085938 102.730469 C 178.277344 102.921875 178.203125 102.652344 178.503906 102.652344 C 178.503906 102.730469 178.503906 102.765625 178.542969 102.765625 C 178.660156 102.613281 179.078125 102.5 179.230469 102.652344 C 179.5 102.613281 179.953125 102.3125 180.222656 102.5 C 176.714844 104.0625 173.128906 106.046875 169.808594 107.992188 C 168.894531 108.757812 167.824219 109.328125 167.023438 110.167969 C 167.023438 110.359375 166.875 110.394531 166.875 110.546875 C 167.0625 110.929688 167.023438 111.503906 167.40625 111.617188 C 167.445312 111.769531 167.292969 111.730469 167.332031 111.882812 C 167.40625 111.996094 167.484375 112.074219 167.40625 112.191406 C 167.902344 113.179688 169.238281 113.601562 170.269531 113.257812 C 170.269531 113.40625 170.574219 113.292969 170.648438 113.21875 C 170.917969 113.332031 171.527344 113.292969 171.71875 113.066406 C 171.832031 113.140625 171.984375 113.21875 172.171875 113.140625 C 172.058594 112.953125 172.058594 112.992188 171.90625 112.839844 C 172.097656 112.914062 172.210938 112.644531 172.328125 112.839844 C 172.289062 112.914062 172.171875 112.839844 172.171875 112.914062 C 172.289062 113.105469 172.480469 112.839844 172.671875 112.953125 C 172.707031 112.722656 173.167969 112.644531 173.355469 112.757812 C 173.242188 112.875 173.054688 112.757812 173.015625 112.875 C 173.28125 113.027344 173.507812 112.722656 173.816406 112.800781 C 173.855469 112.722656 173.664062 112.683594 173.777344 112.644531 C 174.386719 112.644531 174.730469 112.53125 175.378906 112.457031 C 175.378906 112.417969 175.378906 112.339844 175.417969 112.339844 C 175.53125 112.304688 175.53125 112.417969 175.605469 112.417969 C 175.644531 112.378906 175.644531 112.265625 175.761719 112.265625 C 175.761719 112.339844 175.800781 112.378906 175.875 112.378906 C 176.488281 112.074219 177.132812 112.113281 177.742188 112.113281 C 177.742188 112.074219 177.628906 111.957031 177.742188 111.921875 C 178.011719 111.957031 178.46875 111.808594 178.8125 111.84375 C 178.773438 111.617188 178.429688 111.882812 178.390625 111.691406 C 178.621094 111.691406 178.8125 111.65625 179.003906 111.65625 C 178.964844 111.808594 178.773438 111.691406 178.886719 111.84375 C 179.078125 111.84375 179.039062 111.617188 179.078125 111.542969 C 179.117188 111.578125 179.152344 111.65625 179.230469 111.65625 C 179.269531 111.578125 179.347656 111.542969 179.421875 111.464844 C 179.421875 111.503906 179.460938 111.542969 179.460938 111.578125 C 179.996094 111.425781 180.601562 111.542969 181.289062 111.503906 C 181.367188 111.503906 181.597656 111.503906 181.671875 111.464844 C 181.824219 111.425781 181.75 111.347656 181.9375 111.425781 C 181.863281 111.160156 182.167969 111.273438 182.285156 111.082031 C 182.320312 111.121094 182.433594 111.121094 182.398438 111.234375 C 182.320312 111.195312 182.167969 111.195312 182.207031 111.308594 C 182.472656 111.347656 182.703125 111.234375 183.085938 111.234375 C 183.121094 110.96875 183.3125 111.042969 183.542969 110.96875 C 183.464844 110.855469 183.425781 110.703125 183.582031 110.625 C 183.921875 110.660156 184.535156 110.359375 184.683594 110.855469 C 184.953125 110.929688 184.953125 110.703125 185.21875 110.742188 C 185.21875 110.855469 185.066406 110.855469 185.03125 110.890625 C 185.066406 110.929688 185.066406 110.96875 185.105469 111.007812 C 185.410156 110.625 185.5625 110.660156 186.019531 110.703125 C 186.019531 110.585938 186.171875 110.625 186.210938 110.507812 C 186.285156 110.660156 186.367188 110.625 186.554688 110.742188 C 186.632812 110.660156 186.78125 110.660156 186.933594 110.585938 C 186.933594 110.625 186.933594 110.660156 186.933594 110.703125 C 187.089844 110.742188 186.898438 110.585938 187.089844 110.585938 C 187.089844 110.660156 187.089844 110.703125 187.089844 110.742188 C 187.660156 110.660156 187.816406 110.625 188.421875 110.585938 C 188.382812 110.507812 188.382812 110.433594 188.308594 110.394531 C 188.195312 110.472656 188.082031 110.472656 188.003906 110.507812 C 187.929688 110.433594 188.003906 110.472656 188.003906 110.359375 C 187.851562 110.472656 187.660156 110.28125 187.890625 110.207031 C 187.929688 110.242188 188.003906 110.28125 188.003906 110.359375 C 188.082031 110.207031 188.230469 110.320312 188.347656 110.167969 C 188.464844 110.167969 188.347656 110.359375 188.5 110.320312 C 188.539062 110.207031 188.308594 110.167969 188.5 110.089844 C 188.578125 110.128906 188.5 110.28125 188.578125 110.28125 C 188.691406 110.242188 188.652344 110.28125 188.804688 110.28125 C 188.84375 110.089844 188.578125 110.242188 188.613281 110.089844 C 189.070312 110.054688 189.71875 110.128906 190.292969 110.128906 C 190.253906 109.976562 190.027344 110.054688 190.027344 109.898438 C 190.101562 109.9375 190.636719 109.898438 190.445312 110.128906 C 190.519531 110.207031 190.519531 110.128906 190.636719 110.128906 C 190.636719 110.089844 190.597656 110.054688 190.597656 109.976562 C 190.789062 109.898438 191.054688 110.054688 191.207031 109.9375 C 191.09375 109.9375 191.054688 109.859375 191.015625 109.785156 C 190.714844 109.976562 190.101562 109.519531 189.757812 109.746094 C 189.71875 109.710938 189.644531 109.710938 189.683594 109.632812 C 187.851562 109.558594 185.90625 109.328125 183.695312 109.480469 C 183.65625 109.40625 183.617188 109.40625 183.582031 109.328125 C 180.601562 109.328125 177.667969 109.671875 174.691406 109.859375 C 174.195312 110.015625 173.585938 110.054688 173.054688 110.015625 C 172.210938 110.167969 171.183594 110.359375 170.382812 110.28125 C 170.648438 110.089844 170.992188 109.976562 171.183594 109.671875 C 171.945312 109.367188 172.632812 108.984375 173.207031 108.488281 C 173.207031 108.375 173.207031 108.296875 173.28125 108.257812 C 173.242188 108.375 173.28125 108.410156 173.355469 108.410156 C 173.355469 108.375 173.355469 108.296875 173.394531 108.296875 C 174.351562 107.992188 175.152344 107.535156 175.914062 106.925781 C 176.523438 106.808594 177.054688 106.351562 177.703125 106.125 C 177.742188 105.742188 178.238281 105.859375 178.390625 105.550781 C 178.429688 105.550781 178.46875 105.550781 178.542969 105.550781 C 178.542969 105.476562 178.542969 105.4375 178.621094 105.398438 C 179.386719 105.058594 179.953125 104.828125 180.71875 104.410156 C 180.757812 104.332031 180.601562 104.292969 180.71875 104.253906 C 180.796875 104.332031 180.796875 104.332031 180.910156 104.292969 C 180.910156 104.214844 180.871094 104.214844 180.871094 104.140625 C 180.949219 104.179688 180.949219 104.140625 181.023438 104.101562 Z M 183.273438 102.804688 C 183.273438 102.765625 183.3125 102.730469 183.386719 102.730469 C 183.351562 102.804688 183.3125 102.804688 183.273438 102.804688 Z M 177.554688 102.996094 C 177.4375 103.035156 177.363281 102.996094 177.402344 102.878906 C 177.476562 102.921875 177.554688 102.921875 177.554688 102.996094 Z M 174.882812 103.722656 C 174.882812 103.796875 174.691406 103.796875 174.769531 103.683594 C 174.804688 103.683594 174.804688 103.722656 174.882812 103.722656 Z M 174.15625 103.949219 C 174.15625 103.910156 174.234375 103.910156 174.234375 103.835938 C 174.386719 103.875 174.234375 104.101562 174.15625 103.949219 Z M 176.902344 106.390625 C 176.902344 106.351562 176.941406 106.3125 177.054688 106.3125 C 177.054688 106.390625 176.980469 106.425781 176.902344 106.390625 C 176.902344 106.46875 176.828125 106.425781 176.902344 106.390625 Z M 189.339844 109.859375 C 189.378906 109.710938 189.378906 110.015625 189.339844 109.859375 Z M 189.566406 109.976562 C 189.53125 109.898438 189.644531 109.898438 189.644531 109.824219 C 189.683594 109.859375 189.683594 109.898438 189.757812 109.898438 C 189.757812 109.976562 189.644531 109.976562 189.566406 109.976562 Z M 188.996094 109.898438 C 189.03125 109.746094 189.03125 110.054688 188.996094 109.898438 Z M 189.414062 109.9375 C 189.414062 109.9375 189.414062 109.898438 189.414062 109.859375 C 189.492188 109.859375 189.492188 109.9375 189.492188 109.976562 C 189.453125 109.976562 189.453125 109.9375 189.414062 109.9375 Z M 183.464844 110.359375 C 183.769531 110.089844 184 110.167969 184.34375 110.242188 C 184.34375 110.320312 184.304688 110.320312 184.304688 110.359375 C 184.304688 110.394531 184.382812 110.394531 184.382812 110.472656 C 184.230469 110.394531 184.1875 110.433594 183.960938 110.433594 C 184.152344 110.28125 183.734375 110.167969 183.734375 110.394531 C 183.617188 110.320312 183.617188 110.359375 183.464844 110.359375 Z M 186.402344 110.320312 C 186.402344 110.320312 186.402344 110.28125 186.402344 110.242188 C 186.480469 110.242188 186.480469 110.320312 186.480469 110.359375 C 186.441406 110.359375 186.441406 110.320312 186.402344 110.320312 Z M 186.78125 110.359375 C 186.59375 110.394531 186.707031 110.167969 186.78125 110.28125 C 186.78125 110.320312 186.78125 110.359375 186.78125 110.359375 Z M 186.132812 110.359375 C 186.132812 110.359375 186.132812 110.320312 186.132812 110.28125 C 186.132812 110.28125 186.171875 110.28125 186.210938 110.28125 C 186.210938 110.320312 186.210938 110.359375 186.210938 110.359375 C 186.171875 110.359375 186.132812 110.359375 186.132812 110.359375 Z M 185.332031 110.394531 C 185.332031 110.359375 185.371094 110.320312 185.484375 110.320312 C 185.449219 110.394531 185.410156 110.394531 185.332031 110.394531 Z M 187.050781 110.472656 C 186.972656 110.472656 187.011719 110.359375 186.972656 110.359375 C 186.972656 110.28125 187.089844 110.359375 187.128906 110.359375 C 187.089844 110.433594 187.050781 110.433594 187.050781 110.472656 Z M 183.273438 110.742188 C 183.234375 110.625 183.386719 110.660156 183.425781 110.585938 C 183.5 110.660156 183.351562 110.742188 183.273438 110.742188 Z M 187.203125 110.585938 C 187.203125 110.625 187.164062 110.625 187.128906 110.625 C 187.128906 110.585938 187.164062 110.625 187.203125 110.585938 Z M 184.800781 110.660156 C 184.835938 110.742188 184.648438 110.777344 184.683594 110.660156 C 184.683594 110.625 184.761719 110.625 184.800781 110.660156 Z M 182.050781 110.816406 C 182.089844 110.660156 182.089844 110.96875 182.050781 110.816406 Z M 183.234375 110.855469 C 183.199219 110.777344 183.273438 110.777344 183.351562 110.777344 C 183.3125 110.855469 183.273438 110.855469 183.234375 110.855469 Z M 182.359375 111.007812 C 182.359375 111.007812 182.359375 110.96875 182.359375 110.929688 C 182.359375 110.929688 182.398438 110.929688 182.433594 110.929688 C 182.433594 110.96875 182.433594 111.007812 182.433594 111.007812 C 182.398438 111.007812 182.359375 111.007812 182.359375 111.007812 Z M 181.253906 111.308594 C 181.136719 111.464844 181.101562 111.195312 181.253906 111.308594 Z M 175.226562 112.339844 C 175.265625 112.191406 175.265625 112.492188 175.226562 112.339844 Z M 173.472656 112.722656 C 173.433594 112.800781 173.433594 112.722656 173.394531 112.722656 C 173.394531 112.683594 173.472656 112.683594 173.472656 112.722656 Z M 172.367188 112.839844 C 172.40625 112.683594 172.40625 112.992188 172.367188 112.839844 Z M 171.335938 112.914062 C 171.449219 112.839844 171.222656 113.066406 171.335938 112.914062 Z M 170.648438 113.027344 C 170.6875 113.027344 170.761719 113.027344 170.761719 112.992188 C 170.878906 113.066406 170.609375 113.257812 170.648438 113.027344 Z M 181.40625 104.179688 C 181.445312 104.0625 181.253906 104.027344 181.253906 104.140625 C 181.289062 104.179688 181.328125 104.214844 181.40625 104.179688 Z M 181.023438 104.101562 C 180.984375 104.179688 181.023438 104.214844 181.101562 104.214844 C 181.101562 104.179688 181.0625 104.140625 181.023438 104.101562 Z M 179.613281 105.132812 C 179.652344 105.132812 179.6875 105.132812 179.6875 105.09375 C 179.652344 105.132812 179.613281 105.09375 179.613281 105.132812 Z M 178.585938 105.628906 C 178.542969 105.628906 178.585938 105.664062 178.585938 105.628906 Z M 177.972656 105.933594 C 177.898438 105.933594 177.855469 105.972656 177.855469 106.011719 C 177.898438 106.011719 177.9375 106.011719 177.972656 105.933594 Z M 190.980469 110.054688 C 190.863281 110.054688 190.828125 110.089844 190.828125 110.128906 C 190.863281 110.207031 190.980469 110.167969 190.980469 110.054688 Z M 191.246094 110.167969 C 191.246094 110.054688 191.09375 110.054688 191.054688 110.089844 C 191.015625 110.242188 191.167969 110.167969 191.246094 110.167969 Z M 188.917969 110.242188 C 188.882812 110.242188 188.917969 110.28125 188.917969 110.242188 Z M 188.539062 110.585938 C 188.578125 110.585938 188.613281 110.585938 188.613281 110.546875 C 188.578125 110.585938 188.539062 110.546875 188.539062 110.585938 Z M 188.882812 110.585938 C 188.917969 110.742188 188.917969 110.433594 188.882812 110.585938 Z M 187.316406 110.742188 C 187.316406 110.816406 187.316406 110.855469 187.316406 110.890625 C 187.433594 110.929688 187.433594 110.855469 187.46875 110.742188 C 187.394531 110.742188 187.355469 110.742188 187.316406 110.742188 Z M 183.695312 110.816406 C 183.617188 110.777344 183.542969 110.777344 183.542969 110.855469 C 183.582031 110.929688 183.65625 110.929688 183.695312 110.816406 Z M 184 110.855469 C 184.035156 110.855469 184.074219 110.855469 184.074219 110.816406 C 184.035156 110.855469 184 110.816406 184 110.855469 Z M 184.265625 110.855469 C 184.304688 110.855469 184.304688 110.929688 184.34375 110.855469 C 184.34375 110.816406 184.265625 110.816406 184.265625 110.855469 Z M 184.496094 110.855469 C 184.457031 110.855469 184.496094 110.890625 184.496094 110.855469 Z M 185.449219 110.816406 C 185.371094 110.929688 185.371094 110.890625 185.410156 111.007812 C 185.484375 111.042969 185.5625 111.007812 185.5625 110.929688 C 185.484375 110.929688 185.523438 110.816406 185.449219 110.816406 Z M 185.792969 110.855469 C 186.019531 110.890625 185.867188 110.742188 185.792969 110.855469 Z M 186.667969 110.855469 C 186.667969 110.855469 186.78125 110.890625 186.78125 110.890625 C 186.859375 110.816406 186.632812 110.816406 186.667969 110.855469 Z M 187.011719 110.855469 C 187.050781 110.855469 187.050781 110.929688 187.089844 110.855469 C 187.089844 110.816406 187.011719 110.816406 187.011719 110.855469 Z M 187.660156 110.816406 C 187.660156 110.855469 187.660156 110.890625 187.660156 110.890625 C 187.660156 110.890625 187.699219 110.890625 187.734375 110.890625 C 187.734375 110.890625 187.734375 110.855469 187.734375 110.816406 C 187.699219 110.816406 187.660156 110.816406 187.660156 110.816406 Z M 185.792969 110.855469 C 185.714844 110.890625 185.792969 110.929688 185.792969 110.855469 Z M 183.160156 111.195312 C 183.199219 111.347656 183.199219 111.042969 183.160156 111.195312 Z M 182.664062 111.390625 C 182.816406 111.425781 182.664062 111.273438 182.664062 111.390625 Z M 182.664062 111.390625 C 182.585938 111.425781 182.664062 111.464844 182.664062 111.390625 Z M 180.71875 111.65625 C 180.679688 111.65625 180.71875 111.691406 180.71875 111.65625 Z M 179.117188 111.769531 C 179.152344 111.769531 179.191406 111.769531 179.191406 111.730469 C 179.152344 111.769531 179.117188 111.730469 179.117188 111.769531 Z M 179.117188 111.769531 " fill-opacity="1" fill-rule="nonzero"/><path fill="#ffffff" d="M 196.355469 113.140625 C 196.433594 112.992188 196.585938 113.066406 196.777344 113.066406 C 196.851562 112.992188 196.738281 112.757812 196.929688 112.722656 C 196.96875 112.875 196.851562 112.992188 196.96875 112.992188 C 197.003906 112.875 196.96875 112.722656 197.117188 112.644531 C 197.234375 112.722656 197.234375 112.757812 197.351562 112.683594 C 197.386719 112.644531 197.234375 112.53125 197.351562 112.492188 C 197.5 112.570312 197.464844 112.457031 197.652344 112.492188 C 197.652344 112.265625 197.921875 112.113281 198.074219 112.152344 C 198.226562 111.882812 198.566406 111.769531 198.761719 111.542969 C 198.761719 111.578125 198.800781 111.617188 198.800781 111.617188 C 198.835938 111.425781 199.027344 111.273438 199.140625 111.308594 C 199.5625 110.585938 200.398438 110.128906 200.664062 109.367188 C 200.746094 109.328125 200.820312 109.328125 200.859375 109.292969 C 201.164062 108.757812 201.46875 108.488281 201.773438 107.957031 C 201.773438 107.992188 201.847656 107.992188 201.847656 107.992188 C 201.8125 107.800781 202.039062 107.839844 201.964844 107.648438 C 202.15625 107.609375 202.347656 107.382812 202.347656 107.078125 C 202.496094 107.113281 202.496094 107.039062 202.535156 106.960938 C 202.496094 107 202.496094 106.960938 202.460938 106.886719 C 202.765625 106.808594 202.726562 106.425781 202.957031 106.3125 C 203.335938 105.511719 204.253906 104.292969 203.871094 103.035156 C 203.566406 102.730469 203.296875 102.347656 202.800781 102.15625 C 202.496094 101.8125 202.039062 101.585938 201.582031 101.316406 C 201.582031 101.28125 201.582031 101.242188 201.582031 101.203125 C 201.277344 101.203125 201.125 100.9375 200.820312 101.011719 C 200.78125 101.011719 200.746094 100.976562 200.746094 100.898438 C 200.515625 101.011719 200.398438 100.824219 200.132812 100.824219 C 200.058594 100.898438 200.171875 100.976562 200.019531 101.011719 C 199.941406 100.824219 199.636719 101.050781 199.449219 100.9375 C 199.449219 101.242188 198.875 101.050781 198.683594 101.242188 C 198.761719 101.242188 198.835938 101.242188 198.835938 101.28125 C 198.835938 101.355469 198.761719 101.355469 198.648438 101.355469 C 198.683594 101.28125 198.648438 101.242188 198.566406 101.242188 C 198.453125 101.355469 198.835938 101.625 198.492188 101.585938 C 198.53125 101.546875 198.53125 101.546875 198.53125 101.46875 C 198.378906 101.429688 198.265625 101.546875 198.113281 101.511719 C 198.074219 101.585938 198.148438 101.625 198.113281 101.738281 C 198 101.738281 198 101.890625 197.84375 101.890625 C 197.84375 101.8125 197.84375 101.777344 197.765625 101.738281 C 197.730469 101.8125 197.652344 101.929688 197.765625 101.964844 C 197.652344 102.042969 197.578125 102.15625 197.425781 102.195312 C 197.351562 102.234375 197.3125 102.195312 197.273438 102.117188 C 196.394531 102.117188 195.824219 102.386719 195.175781 102.765625 C 195.175781 102.921875 195.058594 102.996094 194.867188 102.996094 C 194.792969 103.148438 194.753906 103.378906 194.488281 103.378906 C 194.335938 103.644531 194.21875 103.949219 193.878906 104.0625 C 193.917969 104.445312 193.417969 104.445312 193.496094 104.75 C 193.457031 104.75 193.417969 104.75 193.34375 104.75 C 193.382812 104.976562 193.269531 105.015625 193.152344 105.09375 C 193.269531 105.285156 193.117188 105.285156 193.078125 105.4375 C 193.152344 105.550781 193.191406 105.359375 193.230469 105.476562 C 193.152344 105.550781 193.117188 105.703125 193 105.78125 C 193 105.894531 192.964844 105.972656 192.886719 106.011719 C 192.886719 105.894531 192.921875 105.820312 193 105.78125 C 193 105.589844 193.152344 105.550781 193 105.398438 C 193 105.742188 192.617188 105.894531 192.847656 106.125 C 192.808594 106.199219 192.847656 106.3125 192.734375 106.3125 C 192.769531 106.425781 192.769531 106.507812 192.65625 106.507812 C 192.617188 106.46875 192.65625 106.351562 192.734375 106.3125 C 192.734375 106.238281 192.808594 106.238281 192.769531 106.160156 C 192.734375 106.160156 192.695312 106.125 192.617188 106.085938 C 192.617188 106.199219 192.695312 106.199219 192.695312 106.277344 C 192.617188 106.3125 192.617188 106.390625 192.542969 106.390625 C 192.542969 106.46875 192.542969 106.542969 192.542969 106.582031 C 192.582031 106.582031 192.617188 106.582031 192.617188 106.582031 C 192.617188 106.582031 192.65625 106.542969 192.65625 106.582031 C 192.65625 106.582031 192.65625 106.582031 192.617188 106.582031 C 192.65625 106.808594 192.582031 106.960938 192.429688 107 C 192.429688 106.808594 192.542969 106.773438 192.542969 106.582031 C 192.316406 106.621094 192.277344 106.925781 192.316406 107.113281 C 192.085938 107.078125 192.160156 107.34375 192.085938 107.421875 C 191.933594 106.886719 192.617188 106.3125 192.582031 105.742188 C 192.199219 106.734375 191.589844 107.878906 191.589844 108.910156 C 191.511719 108.945312 191.550781 109.058594 191.472656 109.058594 C 191.550781 109.328125 191.472656 109.441406 191.320312 109.558594 C 191.320312 109.519531 191.359375 109.441406 191.285156 109.441406 C 191.167969 109.859375 191.4375 110.433594 191.285156 110.777344 C 191.320312 111.160156 191.511719 111.425781 191.742188 111.578125 C 191.742188 111.65625 191.667969 111.691406 191.628906 111.769531 C 191.855469 111.691406 191.78125 111.808594 191.742188 111.957031 C 191.894531 111.882812 191.933594 111.957031 191.96875 111.808594 C 192.046875 111.882812 192.160156 112.074219 192.007812 112.113281 C 192.46875 112.757812 193.417969 113.179688 193.917969 113.40625 C 193.878906 113.40625 193.878906 113.332031 193.917969 113.332031 C 194.296875 113.445312 194.90625 113.601562 195.175781 113.371094 C 195.175781 113.332031 195.25 113.371094 195.175781 113.371094 C 195.175781 113.40625 195.175781 113.445312 195.175781 113.484375 C 195.59375 113.292969 196.015625 113.332031 196.355469 113.140625 C 196.28125 113.140625 196.242188 113.21875 196.203125 113.105469 C 196.28125 113.066406 196.355469 112.992188 196.355469 113.140625 Z M 199.410156 101.242188 C 199.410156 101.28125 199.371094 101.28125 199.332031 101.28125 C 199.332031 101.242188 199.410156 101.28125 199.410156 101.242188 Z M 197.921875 102.078125 C 197.921875 102.117188 197.882812 102.117188 197.84375 102.117188 C 197.84375 102.078125 197.921875 102.117188 197.921875 102.078125 Z M 197.117188 104.523438 C 197.234375 104.484375 197.3125 104.445312 197.386719 104.410156 C 197.464844 104.597656 197.3125 104.5625 197.386719 104.75 C 197.5 104.636719 197.652344 104.445312 197.84375 104.523438 C 198.113281 103.910156 198.53125 103.492188 199.101562 103.1875 C 199.484375 102.730469 200.550781 102.347656 201.277344 102.691406 C 201.046875 104.675781 199.75 105.664062 198.988281 107.113281 C 198.722656 107.308594 198.609375 107.6875 198.339844 107.878906 C 198.300781 107.917969 198.378906 107.957031 198.339844 107.992188 C 197.042969 109.367188 195.976562 111.007812 193.839844 111.542969 C 193.765625 111.308594 193.878906 110.929688 193.6875 110.777344 C 193.839844 110.207031 193.878906 109.441406 193.992188 108.679688 C 194.105469 108.640625 194.066406 108.488281 194.144531 108.449219 C 194.144531 108.296875 194.21875 108.257812 194.183594 108.070312 C 194.527344 107.535156 194.640625 106.773438 195.058594 106.351562 C 195.058594 106.3125 195.058594 106.238281 195.058594 106.160156 C 195.707031 105.476562 196.128906 104.597656 196.96875 104.101562 C 197.003906 104.292969 197.082031 104.410156 197.117188 104.523438 Z M 195.101562 103.113281 C 195.058594 103.113281 195.101562 103.035156 195.101562 102.996094 C 195.175781 103.035156 195.136719 103.074219 195.101562 103.113281 Z M 194.90625 103.261719 C 194.90625 103.226562 194.90625 103.1875 194.90625 103.148438 C 194.945312 103.148438 194.984375 103.148438 195.019531 103.148438 C 195.058594 103.226562 194.984375 103.226562 194.984375 103.261719 C 194.984375 103.261719 194.945312 103.261719 194.90625 103.261719 Z M 194.21875 104.101562 C 194.144531 104.140625 194.144531 104.0625 194.144531 103.988281 C 194.21875 104.027344 194.21875 104.0625 194.21875 104.101562 Z M 197.082031 104.253906 C 197.082031 104.253906 197.082031 104.214844 197.082031 104.179688 C 197.117188 104.179688 197.15625 104.179688 197.15625 104.179688 C 197.15625 104.214844 197.15625 104.253906 197.15625 104.253906 C 197.15625 104.253906 197.117188 104.253906 197.082031 104.253906 Z M 197.234375 104.292969 C 197.3125 104.179688 197.351562 104.445312 197.234375 104.292969 Z M 193.800781 104.484375 C 193.800781 104.484375 193.839844 104.523438 193.800781 104.484375 Z M 193.609375 104.789062 C 193.609375 104.789062 193.648438 104.828125 193.609375 104.789062 Z M 193.304688 105.171875 C 193.34375 105.171875 193.34375 105.171875 193.34375 105.132812 C 193.382812 105.132812 193.417969 105.132812 193.417969 105.132812 C 193.417969 105.171875 193.417969 105.210938 193.417969 105.246094 C 193.382812 105.246094 193.34375 105.246094 193.304688 105.246094 C 193.304688 105.246094 193.304688 105.210938 193.304688 105.171875 Z M 203.222656 105.4375 C 203.222656 105.476562 203.183594 105.476562 203.148438 105.476562 C 203.148438 105.4375 203.222656 105.476562 203.222656 105.4375 Z M 202.878906 106.011719 C 202.996094 105.859375 202.957031 106.160156 202.878906 106.011719 Z M 202.574219 106.507812 C 202.574219 106.390625 202.6875 106.390625 202.648438 106.277344 C 202.84375 106.277344 202.6875 106.507812 202.574219 106.507812 Z M 202 106.507812 C 201.964844 106.507812 202 106.425781 202 106.390625 C 202.078125 106.425781 202.039062 106.46875 202 106.507812 Z M 201.773438 106.808594 C 201.847656 106.660156 201.847656 106.960938 201.773438 106.808594 Z M 202.269531 106.925781 C 202.347656 106.773438 202.347656 107.078125 202.269531 106.925781 Z M 192.390625 107.113281 C 192.390625 107.113281 192.429688 107.15625 192.390625 107.113281 Z M 199.449219 107.15625 C 199.449219 107.15625 199.484375 107.191406 199.449219 107.15625 Z M 192.160156 107.269531 C 192.199219 107.269531 192.199219 107.269531 192.199219 107.230469 C 192.277344 107.230469 192.277344 107.421875 192.160156 107.34375 C 192.160156 107.34375 192.160156 107.308594 192.160156 107.269531 Z M 192.316406 107.308594 C 192.316406 107.308594 192.351562 107.34375 192.316406 107.308594 Z M 201.925781 107.421875 C 201.964844 107.382812 202 107.34375 202.039062 107.34375 C 202.039062 107.421875 202 107.421875 201.925781 107.421875 Z M 191.742188 109.023438 C 191.511719 108.605469 191.855469 107.957031 191.96875 107.460938 C 192.121094 107.917969 191.667969 108.449219 191.742188 109.023438 Z M 200.820312 107.574219 C 200.972656 107.496094 200.746094 107.726562 200.820312 107.574219 Z M 192.121094 107.839844 C 192.085938 107.726562 192.234375 107.726562 192.199219 107.609375 C 192.351562 107.648438 192.234375 107.839844 192.121094 107.839844 Z M 200.703125 107.726562 C 200.703125 107.761719 200.664062 107.761719 200.628906 107.761719 C 200.628906 107.726562 200.703125 107.761719 200.703125 107.726562 Z M 201.773438 107.878906 C 201.699219 107.917969 201.699219 107.839844 201.699219 107.761719 C 201.773438 107.800781 201.773438 107.839844 201.773438 107.878906 Z M 200.859375 108.070312 C 200.933594 107.917969 200.933594 108.222656 200.859375 108.070312 Z M 192.007812 108.296875 C 192.007812 108.296875 192.007812 108.257812 192.007812 108.222656 C 192.046875 108.222656 192.085938 108.222656 192.085938 108.222656 C 192.085938 108.257812 192.085938 108.296875 192.085938 108.296875 C 192.085938 108.296875 192.046875 108.296875 192.007812 108.296875 Z M 200.933594 108.375 C 200.933594 108.410156 200.898438 108.410156 200.859375 108.410156 C 200.859375 108.375 200.933594 108.410156 200.933594 108.375 Z M 201.199219 108.449219 C 201.199219 108.449219 201.199219 108.410156 201.199219 108.375 C 201.277344 108.375 201.351562 108.375 201.316406 108.449219 C 201.277344 108.449219 201.238281 108.449219 201.199219 108.449219 Z M 191.855469 108.527344 C 191.96875 108.375 191.933594 108.679688 191.855469 108.527344 Z M 191.820312 108.71875 C 191.820312 108.71875 191.855469 108.757812 191.820312 108.71875 Z M 200.972656 108.792969 C 201.046875 108.640625 201.046875 108.945312 200.972656 108.792969 Z M 200.820312 108.945312 C 200.820312 108.945312 200.859375 108.984375 200.820312 108.945312 Z M 191.550781 109.40625 C 191.589844 109.25 191.628906 109.175781 191.628906 109.058594 C 191.703125 109.136719 191.667969 109.40625 191.550781 109.40625 Z M 191.742188 109.097656 C 191.820312 108.945312 191.820312 109.25 191.742188 109.097656 Z M 200.4375 109.328125 C 200.515625 109.175781 200.515625 109.480469 200.4375 109.328125 Z M 200.097656 109.558594 C 200.097656 109.558594 200.097656 109.519531 200.097656 109.480469 C 200.132812 109.480469 200.171875 109.480469 200.171875 109.480469 C 200.171875 109.519531 200.171875 109.558594 200.171875 109.558594 C 200.171875 109.558594 200.132812 109.558594 200.097656 109.558594 Z M 200.398438 109.558594 C 200.398438 109.632812 200.398438 109.558594 200.324219 109.558594 C 200.363281 109.519531 200.398438 109.519531 200.398438 109.558594 Z M 191.320312 109.746094 C 191.320312 109.671875 191.359375 109.59375 191.4375 109.59375 C 191.4375 109.671875 191.4375 109.785156 191.320312 109.746094 Z M 199.714844 109.859375 C 199.636719 109.859375 199.714844 109.710938 199.789062 109.710938 C 199.828125 109.824219 199.714844 109.785156 199.714844 109.859375 Z M 199.828125 109.859375 C 199.828125 109.898438 199.789062 109.898438 199.75 109.898438 C 199.75 109.859375 199.828125 109.898438 199.828125 109.859375 Z M 199.410156 109.898438 C 199.410156 109.9375 199.371094 109.9375 199.332031 109.9375 C 199.332031 109.898438 199.410156 109.9375 199.410156 109.898438 Z M 200.132812 109.898438 C 200.132812 109.9375 200.097656 109.9375 200.058594 109.9375 C 200.058594 109.898438 200.132812 109.9375 200.132812 109.898438 Z M 199.523438 110.015625 C 199.597656 109.859375 199.597656 110.167969 199.523438 110.015625 Z M 191.511719 110.089844 C 191.511719 110.089844 191.550781 110.128906 191.511719 110.089844 Z M 199.828125 110.242188 C 199.828125 110.242188 199.867188 110.28125 199.828125 110.242188 Z M 199.332031 110.394531 C 199.410156 110.242188 199.410156 110.546875 199.332031 110.394531 Z M 198.988281 110.855469 C 198.914062 110.855469 198.988281 110.742188 198.949219 110.660156 C 199.027344 110.742188 199.066406 110.816406 198.988281 110.855469 Z M 191.511719 110.855469 C 191.511719 110.855469 191.511719 110.816406 191.511719 110.777344 C 191.550781 110.777344 191.589844 110.777344 191.589844 110.777344 C 191.589844 110.816406 191.589844 110.855469 191.589844 110.855469 C 191.589844 110.855469 191.550781 110.855469 191.511719 110.855469 Z M 198.835938 110.890625 C 198.835938 110.890625 198.875 110.929688 198.835938 110.890625 Z M 199.214844 110.890625 C 199.214844 110.890625 199.253906 110.929688 199.214844 110.890625 Z M 198.1875 111.042969 C 198.1875 111.042969 198.226562 111.082031 198.1875 111.042969 Z M 198.417969 111.347656 C 198.417969 111.425781 198.417969 111.347656 198.339844 111.347656 C 198.378906 111.308594 198.417969 111.308594 198.417969 111.347656 Z M 192.46875 112.304688 C 192.542969 112.191406 192.582031 112.457031 192.46875 112.304688 Z M 193.34375 112.875 C 193.34375 112.875 193.382812 112.914062 193.34375 112.875 Z M 196.625 112.992188 C 196.625 112.992188 196.625 112.953125 196.625 112.914062 C 196.664062 112.914062 196.699219 112.914062 196.699219 112.914062 C 196.699219 112.953125 196.699219 112.992188 196.699219 112.992188 C 196.699219 112.992188 196.664062 112.992188 196.625 112.992188 Z M 193.609375 113.105469 C 193.6875 112.953125 193.6875 113.257812 193.609375 113.105469 Z M 194.832031 113.105469 C 194.90625 112.953125 194.90625 113.257812 194.832031 113.105469 Z M 194.566406 113.21875 C 194.566406 113.21875 194.601562 113.257812 194.566406 113.21875 Z M 199.101562 101.011719 C 199.179688 101.164062 199.214844 100.863281 199.101562 101.011719 Z M 197.882812 101.738281 C 197.960938 101.890625 198 101.585938 197.882812 101.738281 Z M 197.464844 101.851562 C 197.425781 101.929688 197.464844 101.964844 197.5 102.003906 C 197.578125 101.964844 197.578125 101.890625 197.464844 101.851562 Z M 197.117188 104.523438 C 197.234375 104.5625 197.199219 104.636719 197.117188 104.675781 C 197.117188 104.636719 197.117188 104.597656 197.117188 104.523438 Z M 193.230469 104.675781 C 193.230469 104.675781 193.269531 104.710938 193.230469 104.675781 Z M 193.191406 104.75 C 193.269531 104.902344 193.269531 104.597656 193.191406 104.75 Z M 193.078125 104.941406 C 193.078125 104.941406 193.117188 104.976562 193.078125 104.941406 Z M 192.808594 105.285156 C 192.808594 105.324219 192.808594 105.359375 192.808594 105.359375 C 192.847656 105.359375 192.886719 105.359375 192.886719 105.359375 C 192.886719 105.359375 192.886719 105.324219 192.886719 105.285156 C 192.886719 105.285156 192.847656 105.285156 192.808594 105.285156 Z M 192.65625 105.628906 C 192.65625 105.664062 192.65625 105.703125 192.65625 105.703125 C 192.695312 105.703125 192.734375 105.703125 192.734375 105.703125 C 192.734375 105.703125 192.734375 105.664062 192.734375 105.628906 C 192.734375 105.628906 192.695312 105.628906 192.65625 105.628906 Z M 192.542969 106.390625 C 192.503906 106.390625 192.542969 106.351562 192.542969 106.390625 Z M 191.550781 108.109375 C 191.628906 108.257812 191.628906 107.957031 191.550781 108.109375 Z M 191.511719 108.222656 C 191.511719 108.527344 191.628906 108.109375 191.511719 108.222656 Z M 191.472656 108.488281 C 191.550781 108.640625 191.550781 108.335938 191.472656 108.488281 Z M 191.359375 109.136719 C 191.359375 109.175781 191.285156 109.367188 191.359375 109.367188 C 191.320312 109.292969 191.472656 109.210938 191.359375 109.136719 Z M 191.207031 110.546875 C 191.246094 110.546875 191.285156 110.546875 191.285156 110.507812 C 191.285156 110.546875 191.207031 110.507812 191.207031 110.546875 Z M 197.765625 112.339844 C 197.765625 112.378906 197.765625 112.417969 197.765625 112.417969 C 197.804688 112.417969 197.84375 112.417969 197.84375 112.417969 C 197.84375 112.417969 197.84375 112.378906 197.84375 112.339844 C 197.84375 112.339844 197.804688 112.339844 197.765625 112.339844 Z M 197.765625 112.339844 " fill-opacity="1" fill-rule="nonzero"/><path fill="#ffffff" d="M 127.085938 129.582031 L 126.46875 129.582031 L 126.46875 124.789062 L 124.785156 124.789062 L 124.785156 124.242188 L 128.78125 124.242188 L 128.78125 124.789062 L 127.085938 124.789062 Z M 127.085938 129.582031 " fill-opacity="1" fill-rule="nonzero"/><path fill="#ffffff" d="M 134.8125 129.582031 L 131.832031 129.582031 L 131.832031 124.242188 L 134.8125 124.242188 L 134.8125 124.789062 L 132.449219 124.789062 L 132.449219 126.507812 L 134.660156 126.507812 L 134.660156 127.058594 L 132.449219 127.058594 L 132.449219 129.019531 L 134.8125 129.019531 Z M 134.8125 129.582031 " fill-opacity="1" fill-rule="nonzero"/><path fill="#ffffff" d="M 140.511719 124.71875 C 139.929688 124.71875 139.464844 124.914062 139.121094 125.304688 C 138.785156 125.695312 138.621094 126.234375 138.621094 126.917969 C 138.621094 127.613281 138.785156 128.152344 139.109375 128.53125 C 139.4375 128.914062 139.90625 129.101562 140.511719 129.101562 C 140.886719 129.101562 141.3125 129.039062 141.785156 128.902344 L 141.785156 129.441406 C 141.414062 129.582031 140.957031 129.652344 140.417969 129.652344 C 139.628906 129.652344 139.023438 129.414062 138.597656 128.9375 C 138.167969 128.464844 137.953125 127.789062 137.953125 126.90625 C 137.953125 126.351562 138.054688 125.871094 138.257812 125.457031 C 138.46875 125.042969 138.765625 124.730469 139.15625 124.507812 C 139.546875 124.285156 140 124.171875 140.523438 124.171875 C 141.085938 124.171875 141.578125 124.273438 141.996094 124.476562 L 141.730469 125 C 141.324219 124.8125 140.917969 124.71875 140.511719 124.71875 Z M 140.511719 124.71875 " fill-opacity="1" fill-rule="nonzero"/><path fill="#ffffff" d="M 149.25 129.582031 L 148.632812 129.582031 L 148.632812 127.070312 L 145.8125 127.070312 L 145.8125 129.582031 L 145.195312 129.582031 L 145.195312 124.242188 L 145.8125 124.242188 L 145.8125 126.507812 L 148.632812 126.507812 L 148.632812 124.242188 L 149.25 124.242188 Z M 149.25 129.582031 " fill-opacity="1" fill-rule="nonzero"/><path fill="#ffffff" d="M 157.128906 129.582031 L 156.414062 129.582031 L 153.492188 125.105469 L 153.46875 125.105469 C 153.507812 125.628906 153.527344 126.109375 153.527344 126.542969 L 153.527344 129.582031 L 152.957031 129.582031 L 152.957031 124.242188 L 153.65625 124.242188 L 156.566406 128.707031 L 156.589844 128.707031 C 156.589844 128.644531 156.578125 128.433594 156.554688 128.074219 C 156.539062 127.71875 156.535156 127.460938 156.542969 127.304688 L 156.542969 124.242188 L 157.128906 124.242188 Z M 157.128906 129.582031 " fill-opacity="1" fill-rule="nonzero"/><path fill="#ffffff" d="M 165.464844 126.90625 C 165.464844 127.765625 165.246094 128.4375 164.808594 128.925781 C 164.382812 129.414062 163.785156 129.652344 163.023438 129.652344 C 162.234375 129.652344 161.625 129.414062 161.199219 128.9375 C 160.769531 128.457031 160.554688 127.777344 160.554688 126.894531 C 160.554688 126.027344 160.769531 125.359375 161.199219 124.882812 C 161.625 124.402344 162.234375 124.160156 163.023438 124.160156 C 163.792969 124.160156 164.394531 124.40625 164.820312 124.894531 C 165.25 125.378906 165.464844 126.050781 165.464844 126.90625 Z M 161.210938 126.90625 C 161.210938 127.628906 161.363281 128.179688 161.667969 128.554688 C 161.976562 128.925781 162.429688 129.113281 163.023438 129.113281 C 163.613281 129.113281 164.054688 128.925781 164.355469 128.554688 C 164.660156 128.179688 164.808594 127.628906 164.808594 126.90625 C 164.808594 126.191406 164.660156 125.644531 164.355469 125.269531 C 164.054688 124.894531 163.613281 124.707031 163.023438 124.707031 C 162.429688 124.707031 161.976562 124.894531 161.667969 125.269531 C 161.363281 125.644531 161.210938 126.191406 161.210938 126.90625 Z M 161.210938 126.90625 " fill-opacity="1" fill-rule="nonzero"/><path fill="#ffffff" d="M 168.902344 129.582031 L 168.902344 124.242188 L 169.523438 124.242188 L 169.523438 129.019531 L 171.882812 129.019531 L 171.882812 129.582031 Z M 168.902344 129.582031 " fill-opacity="1" fill-rule="nonzero"/><path fill="#ffffff" d="M 179.65625 126.90625 C 179.65625 127.765625 179.4375 128.4375 179.003906 128.925781 C 178.574219 129.414062 177.976562 129.652344 177.214844 129.652344 C 176.425781 129.652344 175.816406 129.414062 175.390625 128.9375 C 174.960938 128.457031 174.75 127.777344 174.75 126.894531 C 174.75 126.027344 174.960938 125.359375 175.390625 124.882812 C 175.816406 124.402344 176.425781 124.160156 177.214844 124.160156 C 177.984375 124.160156 178.585938 124.40625 179.015625 124.894531 C 179.441406 125.378906 179.65625 126.050781 179.65625 126.90625 Z M 175.402344 126.90625 C 175.402344 127.628906 175.554688 128.179688 175.859375 128.554688 C 176.167969 128.925781 176.621094 129.113281 177.214844 129.113281 C 177.804688 129.113281 178.25 128.925781 178.546875 128.554688 C 178.851562 128.179688 179.003906 127.628906 179.003906 126.90625 C 179.003906 126.191406 178.851562 125.644531 178.546875 125.269531 C 178.25 124.894531 177.804688 124.707031 177.214844 124.707031 C 176.621094 124.707031 176.167969 124.894531 175.859375 125.269531 C 175.554688 125.644531 175.402344 126.191406 175.402344 126.90625 Z M 175.402344 126.90625 " fill-opacity="1" fill-rule="nonzero"/><path fill="#ffffff" d="M 185.445312 126.789062 L 187.257812 126.789062 L 187.257812 129.382812 C 186.976562 129.472656 186.6875 129.535156 186.390625 129.582031 C 186.101562 129.628906 185.765625 129.652344 185.375 129.652344 C 184.570312 129.652344 183.945312 129.414062 183.492188 128.9375 C 183.039062 128.457031 182.816406 127.78125 182.816406 126.917969 C 182.816406 126.355469 182.921875 125.871094 183.144531 125.457031 C 183.367188 125.035156 183.691406 124.71875 184.113281 124.496094 C 184.535156 124.28125 185.023438 124.171875 185.585938 124.171875 C 186.152344 124.171875 186.683594 124.273438 187.175781 124.476562 L 186.941406 125.023438 C 186.457031 124.824219 185.996094 124.71875 185.550781 124.71875 C 184.894531 124.71875 184.382812 124.914062 184.019531 125.304688 C 183.652344 125.6875 183.46875 126.226562 183.46875 126.917969 C 183.46875 127.636719 183.644531 128.179688 183.996094 128.554688 C 184.351562 128.925781 184.871094 129.113281 185.550781 129.113281 C 185.925781 129.113281 186.285156 129.074219 186.636719 128.984375 L 186.636719 127.339844 L 185.445312 127.339844 Z M 185.445312 126.789062 " fill-opacity="1" fill-rule="nonzero"/><path fill="#ffffff" d="M 190.785156 124.242188 L 191.402344 124.242188 L 191.402344 129.582031 L 190.785156 129.582031 Z M 190.785156 124.242188 " fill-opacity="1" fill-rule="nonzero"/><path fill="#ffffff" d="M 198.09375 129.582031 L 195.113281 129.582031 L 195.113281 124.242188 L 198.09375 124.242188 L 198.09375 124.789062 L 195.730469 124.789062 L 195.730469 126.507812 L 197.941406 126.507812 L 197.941406 127.058594 L 195.730469 127.058594 L 195.730469 129.019531 L 198.09375 129.019531 Z M 198.09375 129.582031 " fill-opacity="1" fill-rule="nonzero"/><path fill="#ffffff" d="M 204.53125 128.15625 C 204.53125 128.632812 204.359375 129.003906 204.015625 129.265625 C 203.671875 129.523438 203.210938 129.652344 202.625 129.652344 C 201.992188 129.652344 201.507812 129.570312 201.164062 129.40625 L 201.164062 128.8125 C 201.378906 128.902344 201.621094 128.980469 201.878906 129.03125 C 202.140625 129.089844 202.398438 129.113281 202.648438 129.113281 C 203.058594 129.113281 203.375 129.039062 203.582031 128.882812 C 203.792969 128.71875 203.898438 128.496094 203.898438 128.214844 C 203.898438 128.035156 203.859375 127.886719 203.78125 127.769531 C 203.710938 127.648438 203.585938 127.535156 203.410156 127.441406 C 203.234375 127.34375 202.976562 127.226562 202.625 127.09375 C 202.125 126.921875 201.765625 126.714844 201.550781 126.472656 C 201.339844 126.226562 201.234375 125.90625 201.234375 125.515625 C 201.234375 125.101562 201.386719 124.777344 201.691406 124.53125 C 202 124.292969 202.414062 124.171875 202.929688 124.171875 C 203.457031 124.171875 203.945312 124.269531 204.390625 124.464844 L 204.203125 125 C 203.757812 124.8125 203.328125 124.71875 202.917969 124.71875 C 202.582031 124.71875 202.320312 124.789062 202.132812 124.929688 C 201.953125 125.070312 201.867188 125.265625 201.867188 125.515625 C 201.867188 125.703125 201.894531 125.859375 201.957031 125.980469 C 202.027344 126.097656 202.144531 126.210938 202.308594 126.308594 C 202.472656 126.402344 202.722656 126.507812 203.058594 126.625 C 203.617188 126.828125 204.003906 127.046875 204.214844 127.28125 C 204.425781 127.507812 204.53125 127.800781 204.53125 128.15625 Z M 204.53125 128.15625 " fill-opacity="1" fill-rule="nonzero"/></svg>